G04 ================== begin FILE IDENTIFICATION RECORD ==================*
G04 Layout Name:  fishingbatterymonitor-v1_00-0a.brd*
G04 Film Name:    FishingBatteryMonitor-TOP-v1_00-0a*
G04 File Format:  Gerber RS274X*
G04 File Origin:  Cadence Allegro 22.1-P001*
G04 Origin Date:  Sat Oct 29 18:15:58 2022*
G04 *
G04 Layer:  ETCH/TOP*
G04 Layer:  PIN/TOP*
G04 Layer:  VIA CLASS/TOP*
G04 *
G04 Offset:    (0.0000 0.0000)*
G04 Mirror:    No*
G04 Mode:      Positive*
G04 Rotation:  0*
G04 FullContactRelief:  No*
G04 UndefLineWidth:     0.1270*
G04 ================== end FILE IDENTIFICATION RECORD ====================*
%FSLAX25Y25*MOMM*%
%IR0*IPPOS*OFA0.00000B0.00000*MIA0B0*SFA1.00000B1.00000*%
%AMMACRO43*
4,1,44,-.75,.1668,
-.75,-.1668,
-.744988,-.22466,
-.729956,-.280761,
-.70541,-.3334,
-.672096,-.380977,
-.631027,-.422046,
-.58345,-.45536,
-.530811,-.479906,
-.47471,-.494938,
-.41685,-.5,
-.4168,-.5,
.4168,-.5,
.47466,-.494947,
.530764,-.479923,
.583407,-.455385,
.630989,-.422078,
.672064,-.381015,
.705385,-.333443,
.729938,-.280808,
.744979,-.224709,
.75005,-.16685,
.75,-.1668,
.75,.1668,
.744988,.22466,
.729956,.280761,
.70541,.3334,
.672096,.380977,
.631027,.422046,
.58345,.45536,
.530811,.479906,
.47471,.494938,
.41685,.5,
.4168,.5,
-.4168,.5,
-.47466,.494947,
-.530764,.479923,
-.583407,.455385,
-.630989,.422078,
-.672064,.381015,
-.705385,.333443,
-.729938,.280808,
-.744979,.224709,
-.75005,.16685,
-.75,.1668,
0.0*
%
%ADD43MACRO43*%
%ADD10C,10.*%
%ADD18R,.8001X1.5001*%
%ADD44R,5.5999X2.8999*%
%AMMACRO32*
4,1,44,-.18,-.2999,
.18,-.2999,
.200821,-.298137,
.221011,-.292736,
.239957,-.283911,
.257082,-.271931,
.271867,-.257159,
.283861,-.240043,
.292702,-.221105,
.29812,-.20092,
.29995,-.1801,
.2999,-.18,
.2999,.18,
.298137,.200821,
.292736,.221011,
.283911,.239957,
.271931,.257082,
.257159,.271867,
.240043,.283861,
.221105,.292702,
.20092,.29812,
.1801,.29995,
.18,.2999,
-.18,.2999,
-.200821,.298137,
-.221011,.292736,
-.239957,.283911,
-.257082,.271931,
-.271867,.257159,
-.283861,.240043,
-.292702,.221105,
-.29812,.20092,
-.29995,.1801,
-.2999,.18,
-.2999,-.18,
-.298137,-.200821,
-.292736,-.221011,
-.283911,-.239957,
-.271931,-.257082,
-.257159,-.271867,
-.240043,-.283861,
-.221105,-.292702,
-.20092,-.29812,
-.1801,-.29995,
-.18,-.2999,
0.0*
%
%ADD32MACRO32*%
%AMMACRO28*
4,1,44,.2999,-.18,
.2999,.18,
.298137,.200821,
.292736,.221011,
.283911,.239957,
.271931,.257082,
.257159,.271867,
.240043,.283861,
.221105,.292702,
.20092,.29812,
.1801,.29995,
.18,.2999,
-.18,.2999,
-.200821,.298137,
-.221011,.292736,
-.239957,.283911,
-.257082,.271931,
-.271867,.257159,
-.283861,.240043,
-.292702,.221105,
-.29812,.20092,
-.29995,.1801,
-.2999,.18,
-.2999,-.18,
-.298137,-.200821,
-.292736,-.221011,
-.283911,-.239957,
-.271931,-.257082,
-.257159,-.271867,
-.240043,-.283861,
-.221105,-.292702,
-.20092,-.29812,
-.1801,-.29995,
-.18,-.2999,
.18,-.2999,
.200821,-.298137,
.221011,-.292736,
.239957,-.283911,
.257082,-.271931,
.271867,-.257159,
.283861,-.240043,
.292702,-.221105,
.29812,-.20092,
.29995,-.1801,
.2999,-.18,
0.0*
%
%ADD28MACRO28*%
%ADD27R,1.7501X.4501*%
%AMMACRO25*
4,1,44,.375,-.1218,
.375,.1218,
.373634,.137984,
.369429,.153676,
.362564,.1684,
.353245,.181708,
.341758,.193195,
.32845,.202514,
.313726,.209379,
.298034,.213584,
.28185,.215,
.2818,.215,
-.2818,.215,
-.297985,.213593,
-.313679,.209396,
-.328407,.202539,
-.341719,.193227,
-.353213,.181746,
-.362539,.168443,
-.369412,.153723,
-.373625,.138033,
-.37505,.12185,
-.375,.1218,
-.375,-.1218,
-.373634,-.137984,
-.369429,-.153676,
-.362564,-.1684,
-.353245,-.181708,
-.341758,-.193195,
-.32845,-.202514,
-.313726,-.209379,
-.298034,-.213584,
-.28185,-.215,
-.2818,-.215,
.2818,-.215,
.297985,-.213593,
.313679,-.209396,
.328407,-.202539,
.341719,-.193227,
.353213,-.181746,
.362539,-.168443,
.369412,-.153723,
.373625,-.138033,
.37505,-.12185,
.375,-.1218,
0.0*
%
%ADD25MACRO25*%
%ADD11C,.508*%
%ADD12C,.635*%
%AMMACRO33*
4,1,44,.07,.2999,
-.07,.2999,
-.094311,.297832,
-.117886,.291524,
-.140007,.281219,
-.160002,.267228,
-.177264,.249979,
-.191269,.229993,
-.20159,.20788,
-.207914,.18431,
-.21005,.16,
-.21,.1599,
-.21,-.1599,
-.207932,-.184211,
-.201624,-.207786,
-.191319,-.229907,
-.177328,-.249902,
-.160079,-.267164,
-.140093,-.281169,
-.11798,-.29149,
-.09441,-.297814,
-.0701,-.29995,
-.07,-.2999,
.07,-.2999,
.094311,-.297832,
.117886,-.291524,
.140007,-.281219,
.160002,-.267228,
.177264,-.249979,
.191269,-.229993,
.20159,-.20788,
.207914,-.18431,
.21005,-.16,
.21,-.1599,
.21,.1599,
.207932,.184211,
.201624,.207786,
.191319,.229907,
.177328,.249902,
.160079,.267164,
.140093,.281169,
.11798,.29149,
.09441,.297814,
.0701,.29995,
.07,.2999,
0.0*
%
%ADD33MACRO33*%
%AMMACRO41*
4,1,44,-.35,.1498,
-.35,-.1498,
-.347728,-.175865,
-.340965,-.20114,
-.329915,-.224857,
-.314915,-.246294,
-.296421,-.264801,
-.274993,-.279815,
-.251284,-.290881,
-.226014,-.297661,
-.19995,-.29995,
-.1999,-.2999,
.1999,-.2999,
.225965,-.29767,
.251237,-.290898,
.27495,-.27984,
.296382,-.264833,
.314883,-.246332,
.32989,-.2249,
.340948,-.201187,
.34772,-.175915,
.35,-.14985,
.35,-.1498,
.35,.1498,
.347728,.175865,
.340965,.20114,
.329915,.224857,
.314915,.246294,
.296421,.264801,
.274993,.279815,
.251284,.290881,
.226014,.297661,
.19995,.29995,
.1999,.2999,
-.1999,.2999,
-.225965,.29767,
-.251237,.290898,
-.27495,.27984,
-.296382,.264833,
-.314883,.246332,
-.32989,.2249,
-.340948,.201187,
-.34772,.175915,
-.35,.14985,
-.35,.1498,
0.0*
%
%ADD41MACRO41*%
%AMMACRO35*
4,1,44,-.1415,.3534,
-.3534,.1415,
-.370257,.121496,
-.383341,.098838,
-.392292,.074253,
-.396838,.048487,
-.396841,.022323,
-.3923,-.003444,
-.383353,-.028032,
-.370273,-.050692,
-.353457,-.070736,
-.3534,-.0707,
-.0707,-.3534,
-.050704,-.370265,
-.028045,-.383347,
-.003459,-.392296,
.022308,-.396839,
.048472,-.39684,
.074239,-.392296,
.098825,-.383348,
.121484,-.370266,
.141527,-.353448,
.1415,-.3534,
.3534,-.1415,
.370257,-.121496,
.383341,-.098838,
.392292,-.074253,
.396838,-.048487,
.396841,-.022323,
.3923,.003444,
.383353,.028032,
.370273,.050692,
.353457,.070736,
.3534,.0707,
.0707,.3534,
.050704,.370265,
.028045,.383347,
.003459,.392296,
-.022308,.396839,
-.048472,.39684,
-.074239,.392296,
-.098825,.383348,
-.121484,.370266,
-.141527,.353448,
-.1415,.3534,
0.0*
%
%ADD35MACRO35*%
%AMMACRO20*
4,1,44,.1498,.35,
-.1498,.35,
-.175865,.347728,
-.20114,.340965,
-.224857,.329915,
-.246294,.314915,
-.264801,.296421,
-.279815,.274993,
-.290881,.251284,
-.297661,.226014,
-.29995,.19995,
-.2999,.1999,
-.2999,-.1999,
-.29767,-.225965,
-.290898,-.251237,
-.27984,-.27495,
-.264833,-.296382,
-.246332,-.314883,
-.2249,-.32989,
-.201187,-.340948,
-.175915,-.34772,
-.14985,-.35,
-.1498,-.35,
.1498,-.35,
.175865,-.347728,
.20114,-.340965,
.224857,-.329915,
.246294,-.314915,
.264801,-.296421,
.279815,-.274993,
.290881,-.251284,
.297661,-.226014,
.29995,-.19995,
.2999,-.1999,
.2999,.1999,
.29767,.225965,
.290898,.251237,
.27984,.27495,
.264833,.296382,
.246332,.314883,
.2249,.32989,
.201187,.340948,
.175915,.34772,
.14985,.35,
.1498,.35,
0.0*
%
%ADD20MACRO20*%
%AMMACRO36*
4,1,44,-1.85,.3666,
-1.85,-.3666,
-1.838868,-.493937,
-1.805794,-.617406,
-1.751781,-.733257,
-1.678473,-.837968,
-1.588094,-.928358,
-1.483393,-1.001681,
-1.36755,-1.055709,
-1.244085,-1.088801,
-1.11675,-1.09995,
-1.1167,-1.0999,
1.1167,-1.0999,
1.244036,-1.08881,
1.367503,-1.055727,
1.48335,-1.001706,
1.588056,-.92839,
1.67844,-.838006,
1.751756,-.7333,
1.805777,-.617453,
1.83886,-.493986,
1.85,-.36665,
1.85,-.3666,
1.85,.3666,
1.838868,.493937,
1.805794,.617406,
1.751781,.733257,
1.678473,.837968,
1.588094,.928358,
1.483393,1.001681,
1.36755,1.055709,
1.244085,1.088801,
1.11675,1.09995,
1.1167,1.0999,
-1.1167,1.0999,
-1.244036,1.08881,
-1.367503,1.055727,
-1.48335,1.001706,
-1.588056,.92839,
-1.67844,.838006,
-1.751756,.7333,
-1.805777,.617453,
-1.83886,.493986,
-1.85,.36665,
-1.85,.3666,
0.0*
%
%ADD36MACRO36*%
%AMMACRO26*
4,1,44,.375,-.0467,
.375,.0467,
.373643,.062885,
.369446,.078579,
.362589,.093307,
.353277,.106619,
.341796,.118113,
.328493,.127439,
.313773,.134312,
.298083,.138525,
.2819,.13995,
.2818,.1399,
-.2818,.1399,
-.297985,.138543,
-.313679,.134346,
-.328407,.127489,
-.341719,.118177,
-.353213,.106696,
-.362539,.093393,
-.369412,.078673,
-.373625,.062983,
-.37505,.0468,
-.375,.0467,
-.375,-.0467,
-.373643,-.062885,
-.369446,-.078579,
-.362589,-.093307,
-.353277,-.106619,
-.341796,-.118113,
-.328493,-.127439,
-.313773,-.134312,
-.298083,-.138525,
-.2819,-.13995,
-.2818,-.1399,
.2818,-.1399,
.297985,-.138543,
.313679,-.134346,
.328407,-.127489,
.341719,-.118177,
.353213,-.106696,
.362539,-.093393,
.369412,-.078673,
.373625,-.062983,
.37505,-.0468,
.375,-.0467,
0.0*
%
%ADD26MACRO26*%
%AMMACRO16*
4,1,44,-.5999,.4201,
-.5999,-.4201,
-.594947,-.477387,
-.580072,-.532935,
-.555777,-.585057,
-.5228,-.632167,
-.482144,-.672836,
-.435043,-.705827,
-.382929,-.730137,
-.327386,-.745029,
-.2701,-.75005,
-.27,-.75,
.27,-.75,
.327287,-.745047,
.382835,-.730172,
.434957,-.705877,
.482067,-.6729,
.522736,-.632244,
.555727,-.585143,
.580037,-.533029,
.594929,-.477486,
.59995,-.4202,
.5999,-.4201,
.5999,.4201,
.594947,.477387,
.580072,.532935,
.555777,.585057,
.5228,.632167,
.482144,.672836,
.435043,.705827,
.382929,.730137,
.327386,.745029,
.2701,.75005,
.27,.75,
-.27,.75,
-.327287,.745047,
-.382835,.730172,
-.434957,.705877,
-.482067,.6729,
-.522736,.632244,
-.555727,.585143,
-.580037,.533029,
-.594929,.477486,
-.59995,.4202,
-.5999,.4201,
0.0*
%
%ADD16MACRO16*%
%AMMACRO17*
4,1,44,.4201,.5999,
-.4201,.5999,
-.477387,.594947,
-.532935,.580072,
-.585057,.555777,
-.632167,.5228,
-.672836,.482144,
-.705827,.435043,
-.730137,.382929,
-.745029,.327386,
-.75005,.2701,
-.75,.27,
-.75,-.27,
-.745047,-.327287,
-.730172,-.382835,
-.705877,-.434957,
-.6729,-.482067,
-.632244,-.522736,
-.585143,-.555727,
-.533029,-.580037,
-.477486,-.594929,
-.4202,-.59995,
-.4201,-.5999,
.4201,-.5999,
.477387,-.594947,
.532935,-.580072,
.585057,-.555777,
.632167,-.5228,
.672836,-.482144,
.705827,-.435043,
.730137,-.382929,
.745029,-.327386,
.75005,-.2701,
.75,-.27,
.75,.27,
.745047,.327287,
.730172,.382835,
.705877,.434957,
.6729,.482067,
.632244,.522736,
.585143,.555727,
.533029,.580037,
.477486,.594929,
.4202,.59995,
.4201,.5999,
0.0*
%
%ADD17MACRO17*%
%ADD15R,1.X1.4*%
%ADD34R,1.4501X1.*%
%ADD40R,1.X1.4501*%
%AMMACRO13*
4,1,40,-.6667,-1.4,
.6667,-1.4,
.794036,-1.38886,
.917503,-1.355777,
1.03335,-1.301756,
1.138056,-1.22844,
1.22844,-1.138056,
1.301756,-1.03335,
1.355777,-.917503,
1.38886,-.794036,
1.4,-.6667,
1.4,.6667,
1.38886,.794036,
1.355777,.917503,
1.301756,1.03335,
1.22844,1.138056,
1.138056,1.22844,
1.03335,1.301756,
.917503,1.355777,
.794036,1.38886,
.6667,1.4,
-.6667,1.4,
-.794036,1.38886,
-.917503,1.355777,
-1.03335,1.301756,
-1.138056,1.22844,
-1.22844,1.138056,
-1.301756,1.03335,
-1.355777,.917503,
-1.38886,.794036,
-1.4,.6667,
-1.4,-.6667,
-1.38886,-.794036,
-1.355777,-.917503,
-1.301756,-1.03335,
-1.22844,-1.138056,
-1.138056,-1.22844,
-1.03335,-1.301756,
-.917503,-1.355777,
-.794036,-1.38886,
-.6667,-1.4,
0.0*
%
%ADD13MACRO13*%
%ADD14C,1.016*%
%ADD39R,.8999X2.8999*%
%AMMACRO30*
4,1,44,-.2999,.18,
-.2999,-.18,
-.298137,-.200821,
-.292736,-.221011,
-.283911,-.239957,
-.271931,-.257082,
-.257159,-.271867,
-.240043,-.283861,
-.221105,-.292702,
-.20092,-.29812,
-.1801,-.29995,
-.18,-.2999,
.18,-.2999,
.200821,-.298137,
.221011,-.292736,
.239957,-.283911,
.257082,-.271931,
.271867,-.257159,
.283861,-.240043,
.292702,-.221105,
.29812,-.20092,
.29995,-.1801,
.2999,-.18,
.2999,.18,
.298137,.200821,
.292736,.221011,
.283911,.239957,
.271931,.257082,
.257159,.271867,
.240043,.283861,
.221105,.292702,
.20092,.29812,
.1801,.29995,
.18,.2999,
-.18,.2999,
-.200821,.298137,
-.221011,.292736,
-.239957,.283911,
-.257082,.271931,
-.271867,.257159,
-.283861,.240043,
-.292702,.221105,
-.29812,.20092,
-.29995,.1801,
-.2999,.18,
0.0*
%
%ADD30MACRO30*%
%AMMACRO38*
4,1,44,.18,.2999,
-.18,.2999,
-.200821,.298137,
-.221011,.292736,
-.239957,.283911,
-.257082,.271931,
-.271867,.257159,
-.283861,.240043,
-.292702,.221105,
-.29812,.20092,
-.29995,.1801,
-.2999,.18,
-.2999,-.18,
-.298137,-.200821,
-.292736,-.221011,
-.283911,-.239957,
-.271931,-.257082,
-.257159,-.271867,
-.240043,-.283861,
-.221105,-.292702,
-.20092,-.29812,
-.1801,-.29995,
-.18,-.2999,
.18,-.2999,
.200821,-.298137,
.221011,-.292736,
.239957,-.283911,
.257082,-.271931,
.271867,-.257159,
.283861,-.240043,
.292702,-.221105,
.29812,-.20092,
.29995,-.1801,
.2999,-.18,
.2999,.18,
.298137,.200821,
.292736,.221011,
.283911,.239957,
.271931,.257082,
.257159,.271867,
.240043,.283861,
.221105,.292702,
.20092,.29812,
.1801,.29995,
.18,.2999,
0.0*
%
%ADD38MACRO38*%
%AMMACRO31*
4,1,44,-.55,.1998,
-.55,-.1998,
-.548538,-.217183,
-.54403,-.234039,
-.536664,-.249857,
-.526663,-.264155,
-.514331,-.276499,
-.500043,-.286514,
-.484233,-.293896,
-.467381,-.298421,
-.45,-.29995,
-.4499,-.2999,
.4499,-.2999,
.467283,-.298438,
.484139,-.29393,
.499957,-.286564,
.514255,-.276563,
.526599,-.264231,
.536614,-.249943,
.543996,-.234133,
.548521,-.217281,
.55005,-.1999,
.55,-.1998,
.55,.1998,
.548538,.217183,
.54403,.234039,
.536664,.249857,
.526663,.264155,
.514331,.276499,
.500043,.286514,
.484233,.293896,
.467381,.298421,
.45,.29995,
.4499,.2999,
-.4499,.2999,
-.467283,.298438,
-.484139,.29393,
-.499957,.286564,
-.514255,.276563,
-.526599,.264231,
-.536614,.249943,
-.543996,.234133,
-.548521,.217281,
-.55005,.1999,
-.55,.1998,
0.0*
%
%ADD31MACRO31*%
%AMMACRO22*
4,1,44,-.375,.1218,
-.375,-.1218,
-.373634,-.137984,
-.369429,-.153676,
-.362564,-.1684,
-.353245,-.181708,
-.341758,-.193195,
-.32845,-.202514,
-.313726,-.209379,
-.298034,-.213584,
-.28185,-.215,
-.2818,-.215,
.2818,-.215,
.297985,-.213593,
.313679,-.209396,
.328407,-.202539,
.341719,-.193227,
.353213,-.181746,
.362539,-.168443,
.369412,-.153723,
.373625,-.138033,
.37505,-.12185,
.375,-.1218,
.375,.1218,
.373634,.137984,
.369429,.153676,
.362564,.1684,
.353245,.181708,
.341758,.193195,
.32845,.202514,
.313726,.209379,
.298034,.213584,
.28185,.215,
.2818,.215,
-.2818,.215,
-.297985,.213593,
-.313679,.209396,
-.328407,.202539,
-.341719,.193227,
-.353213,.181746,
-.362539,.168443,
-.369412,.153723,
-.373625,.138033,
-.37505,.12185,
-.375,.1218,
0.0*
%
%ADD22MACRO22*%
%AMMACRO37*
4,1,44,1.575,-.2967,
1.575,.2967,
1.566036,.399725,
1.53927,.499621,
1.495563,.59335,
1.436244,.678066,
1.363116,.751194,
1.2784,.810513,
1.184671,.85422,
1.084775,.880986,
.98175,.89,
.9817,.89,
-.9817,.89,
-1.084726,.880995,
-1.184624,.854237,
-1.278357,.810538,
-1.363078,.751226,
-1.436212,.678104,
-1.495538,.593393,
-1.539253,.499668,
-1.566028,.399775,
-1.57505,.29675,
-1.575,.2967,
-1.575,-.2967,
-1.566036,-.399725,
-1.53927,-.499621,
-1.495563,-.59335,
-1.436244,-.678066,
-1.363116,-.751194,
-1.2784,-.810513,
-1.184671,-.85422,
-1.084775,-.880986,
-.98175,-.89,
-.9817,-.89,
.9817,-.89,
1.084726,-.880995,
1.184624,-.854237,
1.278357,-.810538,
1.363078,-.751226,
1.436212,-.678104,
1.495538,-.593393,
1.539253,-.499668,
1.566028,-.399775,
1.57505,-.29675,
1.575,-.2967,
0.0*
%
%ADD37MACRO37*%
%AMMACRO42*
4,1,44,-.3534,-.1415,
-.1415,-.3534,
-.121496,-.370257,
-.098838,-.383341,
-.074253,-.392292,
-.048487,-.396838,
-.022323,-.396841,
.003444,-.3923,
.028032,-.383353,
.050692,-.370273,
.070736,-.353457,
.0707,-.3534,
.3534,-.0707,
.370265,-.050704,
.383347,-.028045,
.392296,-.003459,
.396839,.022308,
.39684,.048472,
.392296,.074239,
.383348,.098825,
.370266,.121484,
.353448,.141527,
.3534,.1415,
.1415,.3534,
.121496,.370257,
.098838,.383341,
.074253,.392292,
.048487,.396838,
.022323,.396841,
-.003444,.3923,
-.028032,.383353,
-.050692,.370273,
-.070736,.353457,
-.0707,.3534,
-.3534,.0707,
-.370265,.050704,
-.383347,.028045,
-.392296,.003459,
-.396839,-.022308,
-.39684,-.048472,
-.392296,-.074239,
-.383348,-.098825,
-.370266,-.121484,
-.353448,-.141527,
-.3534,-.1415,
0.0*
%
%ADD42MACRO42*%
%AMMACRO24*
4,1,44,-.1498,-.35,
.1498,-.35,
.175865,-.347728,
.20114,-.340965,
.224857,-.329915,
.246294,-.314915,
.264801,-.296421,
.279815,-.274993,
.290881,-.251284,
.297661,-.226014,
.29995,-.19995,
.2999,-.1999,
.2999,.1999,
.29767,.225965,
.290898,.251237,
.27984,.27495,
.264833,.296382,
.246332,.314883,
.2249,.32989,
.201187,.340948,
.175915,.34772,
.14985,.35,
.1498,.35,
-.1498,.35,
-.175865,.347728,
-.20114,.340965,
-.224857,.329915,
-.246294,.314915,
-.264801,.296421,
-.279815,.274993,
-.290881,.251284,
-.297661,.226014,
-.29995,.19995,
-.2999,.1999,
-.2999,-.1999,
-.29767,-.225965,
-.290898,-.251237,
-.27984,-.27495,
-.264833,-.296382,
-.246332,-.314883,
-.2249,-.32989,
-.201187,-.340948,
-.175915,-.34772,
-.14985,-.35,
-.1498,-.35,
0.0*
%
%ADD24MACRO24*%
%AMMACRO19*
4,1,44,.35,-.1498,
.35,.1498,
.347728,.175865,
.340965,.20114,
.329915,.224857,
.314915,.246294,
.296421,.264801,
.274993,.279815,
.251284,.290881,
.226014,.297661,
.19995,.29995,
.1999,.2999,
-.1999,.2999,
-.225965,.29767,
-.251237,.290898,
-.27495,.27984,
-.296382,.264833,
-.314883,.246332,
-.32989,.2249,
-.340948,.201187,
-.34772,.175915,
-.35,.14985,
-.35,.1498,
-.35,-.1498,
-.347728,-.175865,
-.340965,-.20114,
-.329915,-.224857,
-.314915,-.246294,
-.296421,-.264801,
-.274993,-.279815,
-.251284,-.290881,
-.226014,-.297661,
-.19995,-.29995,
-.1999,-.2999,
.1999,-.2999,
.225965,-.29767,
.251237,-.290898,
.27495,-.27984,
.296382,-.264833,
.314883,-.246332,
.32989,-.2249,
.340948,-.201187,
.34772,-.175915,
.35,-.14985,
.35,-.1498,
0.0*
%
%ADD19MACRO19*%
%AMMACRO29*
4,1,44,-.4201,-.5999,
.4201,-.5999,
.477387,-.594947,
.532935,-.580072,
.585057,-.555777,
.632167,-.5228,
.672836,-.482144,
.705827,-.435043,
.730137,-.382929,
.745029,-.327386,
.75005,-.2701,
.75,-.27,
.75,.27,
.745047,.327287,
.730172,.382835,
.705877,.434957,
.6729,.482067,
.632244,.522736,
.585143,.555727,
.533029,.580037,
.477486,.594929,
.4202,.59995,
.4201,.5999,
-.4201,.5999,
-.477387,.594947,
-.532935,.580072,
-.585057,.555777,
-.632167,.5228,
-.672836,.482144,
-.705827,.435043,
-.730137,.382929,
-.745029,.327386,
-.75005,.2701,
-.75,.27,
-.75,-.27,
-.745047,-.327287,
-.730172,-.382835,
-.705877,-.434957,
-.6729,-.482067,
-.632244,-.522736,
-.585143,-.555727,
-.533029,-.580037,
-.477486,-.594929,
-.4202,-.59995,
-.4201,-.5999,
0.0*
%
%ADD29MACRO29*%
%AMMACRO23*
4,1,44,-.375,.0467,
-.375,-.0467,
-.373643,-.062885,
-.369446,-.078579,
-.362589,-.093307,
-.353277,-.106619,
-.341796,-.118113,
-.328493,-.127439,
-.313773,-.134312,
-.298083,-.138525,
-.2819,-.13995,
-.2818,-.1399,
.2818,-.1399,
.297985,-.138543,
.313679,-.134346,
.328407,-.127489,
.341719,-.118177,
.353213,-.106696,
.362539,-.093393,
.369412,-.078673,
.373625,-.062983,
.37505,-.0468,
.375,-.0467,
.375,.0467,
.373643,.062885,
.369446,.078579,
.362589,.093307,
.353277,.106619,
.341796,.118113,
.328493,.127439,
.313773,.134312,
.298083,.138525,
.2819,.13995,
.2818,.1399,
-.2818,.1399,
-.297985,.138543,
-.313679,.134346,
-.328407,.127489,
-.341719,.118177,
-.353213,.106696,
-.362539,.093393,
-.369412,.078673,
-.373625,.062983,
-.37505,.0468,
-.375,.0467,
0.0*
%
%ADD23MACRO23*%
%AMMACRO21*
4,1,40,.1668,1.5,
-.1668,1.5,
-.22466,1.494938,
-.280761,1.479906,
-.3334,1.45536,
-.380977,1.422046,
-.422046,1.380977,
-.45536,1.3334,
-.479906,1.280761,
-.494938,1.22466,
-.5,1.1668,
-.5,-1.1668,
-.494938,-1.22466,
-.479906,-1.280761,
-.45536,-1.3334,
-.422046,-1.380977,
-.380977,-1.422046,
-.3334,-1.45536,
-.280761,-1.479906,
-.22466,-1.494938,
-.1668,-1.5,
.1668,-1.5,
.22466,-1.494938,
.280761,-1.479906,
.3334,-1.45536,
.380977,-1.422046,
.422046,-1.380977,
.45536,-1.3334,
.479906,-1.280761,
.494938,-1.22466,
.5,-1.1668,
.5,1.1668,
.494938,1.22466,
.479906,1.280761,
.45536,1.3334,
.422046,1.380977,
.380977,1.422046,
.3334,1.45536,
.280761,1.479906,
.22466,1.494938,
.1668,1.5,
0.0*
%
%ADD21MACRO21*%
%ADD45C,.127*%
%ADD46C,.254*%
%ADD47C,1.27*%
%ADD48C,2.127*%
%ADD49C,10.2544*%
%ADD51C,.8894*%
%ADD50C,1.3974*%
G75*
%LPD*%
G75*
G36*
G01X6217010Y2669050D02*
X6202990D01*
G03X6180900Y2660580I9J-33064D01*
G02X6174100I-3400J3778D01*
G03X6152010Y2669050I-22099J-24594D01*
G01X6137990D01*
G03X6115900Y2660580I9J-33064D01*
G02X6109100I-3400J3778D01*
G03X6087010Y2669050I-22099J-24594D01*
G01X6072990D01*
G03X6043940Y2651770I4J-33065D01*
G01X6010000D01*
G03X5987540Y2642460I8J-31767D01*
G01X5866980Y2521910D01*
X5865040Y2521810D01*
G03X5822930Y2477400I2363J-44410D01*
G03X5835630Y2446280I44478J0D01*
G01Y2248360D01*
X5714540Y2127270D01*
X5397960D01*
X5305660Y2219560D01*
G03X5283200Y2228870I-22468J-22457D01*
G01X4877260D01*
X4818860Y2287260D01*
G03X4817560Y2288500I-22567J-22358D01*
G02X4819520Y2305030I6762J7579D01*
G01X4843660D01*
G03X4871490Y2287740I27837J13764D01*
G01X4907510D01*
G03X4935340Y2305030I-7J31054D01*
G01X4989970D01*
X4991430Y2302460D01*
G03X5016710Y2287740I25284J14355D01*
G01X5106710D01*
G03X5135780Y2316810I-5J29075D01*
G01Y2356790D01*
G03X5106710Y2385860I-29075J-5D01*
G01X5016710D01*
G03X4991430Y2371140I4J-29075D01*
G01X4989970Y2368570D01*
X4935340D01*
G03X4922930Y2381760I-27840J-13760D01*
G02X4922010Y2398800I5048J8817D01*
G03X4932210Y2418790I-14504J19998D01*
G01Y2454810D01*
G03X4907510Y2479510I-24705J-5D01*
G01X4871490D01*
G03X4846790Y2454810I5J-24705D01*
G01Y2418790D01*
G03X4856990Y2398800I24704J8D01*
G02X4856070Y2381760I-5968J-8223D01*
G03X4843660Y2368570I15430J-26950D01*
G01X4819020D01*
G03X4787900Y2381270I-31120J-31778D01*
G03X4743430Y2336800I0J-44470D01*
G01Y2336790D01*
G03X4750770Y2312320I44472J4D01*
G02X4742290Y2296570I-8481J-5592D01*
G01X4455560D01*
Y2352320D01*
G03X4436500Y2371380I-19070J-10D01*
G01X4380760D01*
Y2418130D01*
X4483520Y2520890D01*
X4485460Y2520990D01*
G03X4514220Y2533630I-2360J44409D01*
G01X4602360D01*
G03X4614770Y2520440I27840J13760D01*
G02X4615690Y2503400I-5048J-8817D01*
G03X4605490Y2483410I14504J-19998D01*
G01Y2447390D01*
G03X4630190Y2422690I24705J5D01*
G01X4666210D01*
G03X4690910Y2447390I-5J24705D01*
G01Y2483410D01*
G03X4680710Y2503400I-24704J-8D01*
G02X4681630Y2520440I5968J8223D01*
G03X4694040Y2533630I-15430J26950D01*
G01X4728080D01*
X4729460Y2530740D01*
G03X4760220Y2511330I30760J14668D01*
G01X4790180D01*
G03X4817160Y2524590I0J34078D01*
G02X4833240I8040J-6212D01*
G03X4860220Y2511330I26980J20818D01*
G01X4890180D01*
G03X4914700Y2521740I0J34083D01*
G02X4929200Y2521870I7314J-7051D01*
G01X4946750Y2504330D01*
G03X4969210Y2495020I22468J22457D01*
G01X4989970D01*
X4991430Y2492450D01*
G03X5016710Y2477730I25284J14355D01*
G01X5106710D01*
G03X5132230Y2492880I-4J29075D01*
G01X5133670Y2495530D01*
X5143040D01*
X5162530Y2476040D01*
Y2374900D01*
G03X5171840Y2352440I31767J8D01*
G01X5209940Y2314340D01*
G03X5232400Y2305030I22468J22457D01*
G01X5274960D01*
X5276420Y2302460D01*
G03X5301700Y2287740I25284J14355D01*
G01X5391700D01*
G03X5420770Y2316810I-5J29075D01*
G01Y2356790D01*
G03X5408850Y2380260I-29075J-5D01*
G02X5407690Y2395680I5995J8205D01*
G03X5414420Y2411810I-15993J16142D01*
G01Y2451790D01*
G03X5403260Y2471350I-22726J-3D01*
G01X5400770Y2475720D01*
X5403740Y2480340D01*
G03X5406250Y2481640I-12101J26437D01*
G01X5407430Y2482320D01*
X5421350D01*
X5422790Y2481070D01*
G03X5452000Y2470130I29210J33526D01*
G01X5521510D01*
X5522090Y2465720D01*
G03X5573690Y2420530I51602J6867D01*
G01X5627710D01*
G03X5679760Y2472580I-5J52055D01*
G01Y2556620D01*
G03X5627710Y2608670I-52055J-5D01*
G01X5573690D01*
G03X5522090Y2563480I2J-52057D01*
G01X5521510Y2559070D01*
X5470400D01*
G03X5439810Y2571260I-30590J-32287D01*
G01X5407430D01*
X5406250Y2571940D01*
G03X5395570Y2575590I-14563J-25163D01*
G01X5391170Y2576180D01*
Y2585080D01*
X5416250Y2610150D01*
G03X5429270Y2641580I-31454J31442D01*
G01Y2658090D01*
X5429920Y2659250D01*
G03X5433860Y2674390I-27116J15139D01*
G01Y2710410D01*
G03X5429920Y2725550I-31056J1D01*
G01X5429270Y2726710D01*
Y2798110D01*
X5429660Y2799050D01*
G03X5432260Y2812100I-31481J13056D01*
G01Y2823270D01*
X5505150Y2896150D01*
G03X5518170Y2927580I-31454J31442D01*
G01Y3015540D01*
G02X5535510Y3022720I10159J-7D01*
G01X5554700Y3003530D01*
X6015000D01*
X6052530Y3041060D01*
G02X6066030Y3030900I3356J-9590D01*
G03X6065990Y3029510I24665J-1405D01*
G01Y2993490D01*
G03X6090690Y2968790I24705J5D01*
G01X6126710D01*
G03X6151410Y2993490I-5J24705D01*
G01Y3029510D01*
G03X6147930Y3042140I-24704J-12D01*
G01X6145910Y3045540D01*
X6165870Y3065500D01*
Y3230820D01*
G02X6181010Y3239670I10159J-4D01*
G03X6206710Y3232930I25706J45651D01*
G01X6290080D01*
G03X6334490Y3257530I0J52386D01*
G01X6356330D01*
Y3238480D01*
G03X6369350Y3207050I44474J12D01*
G01X6371720Y3204690D01*
Y3177680D01*
X6366190D01*
G03X6347120Y3158620I0J-19070D01*
G01Y3013580D01*
G03X6366190Y2994520I19070J10D01*
G01X6466190D01*
G03X6485260Y3013580I0J19070D01*
G01Y3158620D01*
G03X6466190Y3177680I-19070J-10D01*
G01X6460660D01*
Y3223130D01*
G03X6447640Y3254560I-44474J-12D01*
G01X6445270Y3256920D01*
Y3270230D01*
X6513400D01*
G03X6544830Y3283250I-12J44474D01*
G01X6551190Y3289620D01*
X6552400Y3289990D01*
G03X6560940Y3293960I-9957J32589D01*
G02X6568070Y3287110I2754J-4270D01*
G03X6572370Y3253460I23903J-14045D01*
G01X6593560Y3232270D01*
G03X6632760I19600J19602D01*
G01X6661030Y3260540D01*
G03Y3299740I-19602J19600D01*
G01X6639840Y3320930D01*
G03X6615100Y3328570I-19603J-19603D01*
G02X6603450Y3341380I-1889J9984D01*
G03X6594810Y3374940I-32732J9465D01*
G01X6573620Y3396130D01*
G03X6525440I-24090J-24092D01*
G01X6497170Y3367860D01*
G03X6490860Y3359170I24073J-24116D01*
G01X6437920D01*
X6436800Y3359770D01*
G03X6436040Y3360160I-15939J-30125D01*
G01X6433240Y3364700D01*
X6436040Y3369240D01*
G03X6454870Y3399720I-15254J30480D01*
G01Y3429680D01*
G03X6420790Y3463760I-34080J0D01*
G01X6414630D01*
X6394940Y3483460D01*
G03X6363510Y3496480I-31442J-31454D01*
G01X6334490D01*
G03X6293850Y3520940I-44408J-27792D01*
G03X6291140Y3522660I-45593J-68840D01*
G01X6288690Y3527000D01*
X6291140Y3531350D01*
G03X6293850Y3533070I-42883J70560D01*
G03X6342470Y3585320I-3766J52250D01*
G01Y3618680D01*
G03X6308320Y3667790I-52387J0D01*
G01X6307280Y3668180D01*
X6169480Y3805980D01*
X6171250Y3809300D01*
G03X6177370Y3833790I-45936J24489D01*
G01Y3887810D01*
G03X6165870Y3920440I-52055J-5D01*
G01Y3985500D01*
G03X6141690Y4043880I-82573J-3D01*
G01X6103160Y4082400D01*
X6104050Y4085320D01*
G03X6107470Y4108220I-74980J22903D01*
G01Y4167560D01*
G03X6029070Y4245960I-78400J0D01*
G01X5832730D01*
G03X5754330Y4167560I0J-78400D01*
G01Y4108220D01*
G03X5832730Y4029820I78400J0D01*
G01X5922200D01*
X6000730Y3951290D01*
Y3920440D01*
G03X5993450Y3908350I40544J-32651D01*
G01X5992130Y3905270D01*
X5927110D01*
X5925950Y3905920D01*
G03X5910810Y3909860I-15139J-27116D01*
G01X5874790D01*
G03X5847840Y3894230I4J-31055D01*
G02X5830800Y3893310I-8817J5048D01*
G03X5810810Y3903510I-19998J-14504D01*
G01X5774790D01*
G03X5750090Y3878810I5J-24705D01*
G01Y3842790D01*
G03X5774790Y3818090I24705J5D01*
G01X5810810D01*
G03X5834630Y3836260I-5J24705D01*
G02X5844490Y3836020I4900J-1341D01*
G03X5847680Y3827650I30311J6759D01*
G01X5848330Y3826490D01*
Y3811120D01*
X5806450Y3769240D01*
X5737960D01*
X5730060Y3777130D01*
G03X5681880I-24090J-24092D01*
G01X5660690Y3755940D01*
G03X5650980Y3727500I24088J-24102D01*
G02X5639610Y3716130I-10074J-1296D01*
G03X5611170Y3706420I-4338J-33798D01*
G01X5589980Y3685230D01*
G03Y3637050I24092J-24090D01*
G01X5597870Y3629150D01*
Y3598170D01*
X5442250Y3442560D01*
G03X5429230Y3411130I31454J-31442D01*
G01Y3098190D01*
G02X5415060Y3088860I-10159J3D01*
G03X5397520Y3092470I-17551J-40862D01*
G01X5340370D01*
Y3121120D01*
G03X5327350Y3152550I-44474J-12D01*
G01X5322460Y3157430D01*
Y3288120D01*
G03X5303400Y3307180I-19070J-10D01*
G01X5223380D01*
G03X5204320Y3288120I10J-19070D01*
G01Y3138080D01*
G03X5223380Y3119020I19070J10D01*
G01X5235080D01*
X5251430Y3102680D01*
Y3085120D01*
X5250830Y3084000D01*
G03X5250440Y3083240I30126J-15940D01*
G01X5245900Y3080440D01*
X5241360Y3083240D01*
G03X5210880Y3102070I-30480J-15254D01*
G01X5180920D01*
G03X5150160Y3082660I0J-34078D01*
G01X5148780Y3079770D01*
X5091550D01*
G03X5085560Y3087500I-29656J-16795D01*
G02X5085430Y3102000I7051J7314D01*
G01X5095860Y3112440D01*
G03X5100920Y3119020I-22437J22490D01*
G01X5113410D01*
G03X5132480Y3138090I-5J19075D01*
G01Y3288110D01*
G03X5113410Y3307180I-19075J-5D01*
G01X5033390D01*
G03X5014320Y3288110I5J-19075D01*
G01Y3138100D01*
G03X5019080Y3125500I19071J5D01*
G03X5010130Y3103400I22810J-22100D01*
G01Y3095120D01*
X5007240Y3093740D01*
G03X4987830Y3062980I14668J-30760D01*
G01Y3033020D01*
G03X5001090Y3006040I34078J0D01*
G02Y2989960I-6212J-8040D01*
G03X4987830Y2962980I20818J-26980D01*
G01Y2933020D01*
G03X5007240Y2902260I34078J0D01*
G01X5010130Y2900880D01*
Y2845260D01*
X4889040Y2724170D01*
X4394200D01*
G03X4371740Y2714860I8J-31767D01*
G01X4176610Y2519740D01*
G02X4159270Y2526920I-7180J7187D01*
G01Y2552240D01*
X4327760Y2720740D01*
G03X4337070Y2743200I-22457J22468D01*
G01Y2900880D01*
X4339960Y2902260D01*
G03X4359370Y2933020I-14668J30760D01*
G01Y2962980D01*
G03X4346110Y2989960I-34078J0D01*
G02Y3006040I6212J8040D01*
G03X4354950Y3016230I-20814J26986D01*
G01X4424880D01*
X4426260Y3013340D01*
G03X4457020Y2993930I30760J14668D01*
G01X4486980D01*
G03X4513960Y3007190I0J34078D01*
G02X4530040I8040J-6212D01*
G03X4557020Y2993930I26980J20818D01*
G01X4586980D01*
G03X4610690Y3003530I0J34079D01*
G01X4660900D01*
G03Y3092470I0J44470D01*
G01X4616470D01*
Y3121120D01*
G03X4603450Y3152550I-44474J-12D01*
G01X4585860Y3170130D01*
Y3288120D01*
G03X4566800Y3307180I-19070J-10D01*
G01X4486780D01*
G03X4467720Y3288120I10J-19070D01*
G01Y3138080D01*
G03X4486780Y3119020I19070J10D01*
G01X4511180D01*
X4527530Y3102680D01*
Y3085120D01*
X4526930Y3084000D01*
G03X4526540Y3083240I30126J-15940D01*
G01X4522000Y3080440D01*
X4517460Y3083240D01*
G03X4486980Y3102070I-30480J-15254D01*
G01X4457020D01*
G03X4426260Y3082660I0J-34078D01*
G01X4424880Y3079770D01*
X4354950D01*
G03X4348960Y3087500I-29656J-16795D01*
G02X4348830Y3102000I7051J7314D01*
G01X4359260Y3112440D01*
G03X4364320Y3119020I-22437J22490D01*
G01X4376810D01*
G03X4395880Y3138090I-5J19075D01*
G01Y3288110D01*
G03X4376810Y3307180I-19075J-5D01*
G01X4296790D01*
G03X4277720Y3288110I5J-19075D01*
G01Y3138100D01*
G03X4282480Y3125500I19071J5D01*
G03X4273530Y3103400I22810J-22100D01*
G01Y3095120D01*
X4270640Y3093740D01*
G03X4251230Y3062980I14668J-30760D01*
G01Y3033020D01*
G03X4264490Y3006040I34078J0D01*
G02Y2989960I-6212J-8040D01*
G03X4251230Y2962980I20818J-26980D01*
G01Y2933020D01*
G03X4270640Y2902260I34078J0D01*
G01X4273530Y2900880D01*
Y2756360D01*
X4102100Y2584930D01*
X3946760Y2740260D01*
G03X3924300Y2749570I-22468J-22457D01*
G01X3607260D01*
X3467210Y2889620D01*
G02X3468560Y2905120I7185J7183D01*
G03X3483070Y2933020I-19568J27900D01*
G01Y2962980D01*
G03X3469810Y2989960I-34078J0D01*
G02Y3006040I6212J8040D01*
G03X3478650Y3016230I-20814J26986D01*
G01X3548580D01*
X3549960Y3013340D01*
G03X3580720Y2993930I30760J14668D01*
G01X3610680D01*
G03X3637660Y3007190I0J34078D01*
G02X3653740I8040J-6212D01*
G03X3680720Y2993930I26980J20818D01*
G01X3710680D01*
G03X3734390Y3003530I0J34079D01*
G01X3784600D01*
G03Y3092470I0J44470D01*
G01X3740170D01*
Y3121120D01*
G03X3727150Y3152550I-44474J-12D01*
G01X3709560Y3170130D01*
Y3288120D01*
G03X3690500Y3307180I-19070J-10D01*
G01X3610480D01*
G03X3591420Y3288120I10J-19070D01*
G01Y3138080D01*
G03X3610480Y3119020I19070J10D01*
G01X3634880D01*
X3651230Y3102680D01*
Y3085120D01*
X3650630Y3084000D01*
G03X3650240Y3083240I30126J-15940D01*
G01X3645700Y3080440D01*
X3641160Y3083240D01*
G03X3610680Y3102070I-30480J-15254D01*
G01X3580720D01*
G03X3549960Y3082660I0J-34078D01*
G01X3548580Y3079770D01*
X3478650D01*
G03X3472660Y3087500I-29656J-16795D01*
G02X3472530Y3102000I7051J7314D01*
G01X3482960Y3112440D01*
G03X3488020Y3119020I-22437J22490D01*
G01X3500510D01*
G03X3519580Y3138090I-5J19075D01*
G01Y3288110D01*
G03X3500510Y3307180I-19075J-5D01*
G01X3420490D01*
G03X3401420Y3288110I5J-19075D01*
G01Y3138100D01*
G03X3406180Y3125500I19071J5D01*
G03X3397230Y3103400I22810J-22100D01*
G01Y3095120D01*
X3394340Y3093740D01*
G03X3374930Y3062980I14668J-30760D01*
G01Y3033020D01*
G03X3388190Y3006040I34078J0D01*
G02Y2989960I-6212J-8040D01*
G03X3374930Y2962980I20818J-26980D01*
G01Y2933020D01*
G03X3394340Y2902260I34078J0D01*
G01X3397230Y2900880D01*
Y2882900D01*
G03X3406540Y2860440I31767J8D01*
G01X3571640Y2695340D01*
G03X3594100Y2686030I22468J22457D01*
G01X3911140D01*
X4044930Y2552240D01*
Y2514220D01*
G02X4027590Y2507040I-10160J7D01*
G01X3895960Y2638660D01*
G03X3873500Y2647970I-22468J-22457D01*
G01X2934160D01*
X2724170Y2857960D01*
Y2900880D01*
X2727060Y2902260D01*
G03X2746470Y2933020I-14668J30760D01*
G01Y2962980D01*
G03X2733210Y2989960I-34078J0D01*
G02Y3006040I6212J8040D01*
G03X2742050Y3016230I-20814J26986D01*
G01X2811980D01*
X2813360Y3013340D01*
G03X2844120Y2993930I30760J14668D01*
G01X2874080D01*
G03X2901060Y3007190I0J34078D01*
G02X2917140I8040J-6212D01*
G03X2944120Y2993930I26980J20818D01*
G01X2974080D01*
G03X2997790Y3003530I0J34079D01*
G01X3048000D01*
G03Y3092470I0J44470D01*
G01X3003570D01*
Y3121120D01*
G03X2990550Y3152550I-44474J-12D01*
G01X2972960Y3170130D01*
Y3288120D01*
G03X2953900Y3307180I-19070J-10D01*
G01X2873880D01*
G03X2854820Y3288120I10J-19070D01*
G01Y3138080D01*
G03X2873880Y3119020I19070J10D01*
G01X2898280D01*
X2914630Y3102680D01*
Y3085120D01*
X2914030Y3084000D01*
G03X2913640Y3083240I30126J-15940D01*
G01X2909100Y3080440D01*
X2904560Y3083240D01*
G03X2874080Y3102070I-30480J-15254D01*
G01X2844120D01*
G03X2813360Y3082660I0J-34078D01*
G01X2811980Y3079770D01*
X2742050D01*
G03X2736060Y3087500I-29656J-16795D01*
G02X2735930Y3102000I7051J7314D01*
G01X2746360Y3112440D01*
G03X2751420Y3119020I-22437J22490D01*
G01X2763910D01*
G03X2782980Y3138090I-5J19075D01*
G01Y3288110D01*
G03X2763910Y3307180I-19075J-5D01*
G01X2683890D01*
G03X2664820Y3288110I5J-19075D01*
G01Y3138100D01*
G03X2669580Y3125500I19071J5D01*
G03X2660630Y3103400I22810J-22100D01*
G01Y3095120D01*
X2657740Y3093740D01*
G03X2638330Y3062980I14668J-30760D01*
G01Y3033020D01*
G03X2651590Y3006040I34078J0D01*
G02Y2989960I-6212J-8040D01*
G03X2638330Y2962980I20818J-26980D01*
G01Y2933020D01*
G03X2657740Y2902260I34078J0D01*
G01X2660630Y2900880D01*
Y2844800D01*
G03X2669940Y2822340I31767J8D01*
G01X2898540Y2593740D01*
G03X2921000Y2584430I22468J22457D01*
G01X3860340D01*
X3994130Y2450640D01*
Y1905000D01*
G03X4003440Y1882540I31767J8D01*
G01X4163630Y1722350D01*
G03X4186090Y1713040I22468J22457D01*
G01X4242420D01*
Y1657260D01*
G03X4245240Y1647290I19069J10D01*
G03X4242420Y1637320I16249J-9980D01*
G01Y1592280D01*
G03X4248760Y1578080I19069J-2D01*
G01Y1527280D01*
G03X4249770Y1522340I12720J27D01*
G03X4246140Y1518620I11706J-15054D01*
G01X4244620Y1516560D01*
X3897790D01*
G03X3875330Y1507250I8J-31767D01*
G01X3784140Y1416070D01*
X3516820D01*
G02X3509640Y1433410I7J10160D01*
G01X3526230Y1450000D01*
X3529770Y1447240D01*
G03X3541460Y1443220I11712J15050D01*
G01X3716520D01*
G03X3735580Y1462280I-10J19070D01*
G01Y1507300D01*
G03X3732750Y1517290I-19073J-7D01*
G03X3735580Y1527280I-16243J9997D01*
G01Y1536410D01*
G02X3752960Y1543550I10158J-3D01*
G03X3784600Y1530330I31640J31253D01*
G03X3829070Y1574800I0J44470D01*
G03X3816370Y1605920I-44478J0D01*
G01Y1752980D01*
G02X3833710Y1760160I10160J-7D01*
G01X3854430Y1739440D01*
Y1605920D01*
G03X3841730Y1574800I31778J-31120D01*
G03X3930670I44470J0D01*
G03X3917970Y1605920I-44478J0D01*
G01Y1727580D01*
G02X3935310Y1734760I10160J-7D01*
G01X3956030Y1714040D01*
Y1605920D01*
G03X3943330Y1574800I31778J-31120D01*
G03X4032270I44470J0D01*
G03X4019570Y1605920I-44478J0D01*
G01Y1702180D01*
G02X4036910Y1709360I10160J-7D01*
G01X4057630Y1688640D01*
Y1605920D01*
G03X4044930Y1574800I31778J-31120D01*
G03X4133870I44470J0D01*
G03X4121170Y1605920I-44478J0D01*
G01Y1701800D01*
G03X4111860Y1724260I-31767J-8D01*
G01X3968770Y1867360D01*
Y2159000D01*
G03X3959460Y2181460I-31767J-8D01*
G01X3853660Y2287260D01*
G03X3831200Y2296570I-22468J-22457D01*
G01X3735580D01*
Y2352310D01*
G03X3716510Y2371380I-19075J-5D01*
G01X3541500D01*
G03X3526150Y2363630I-2J-19072D01*
G01X3524630Y2361570D01*
X3499960D01*
X3438760Y2422760D01*
G03X3416300Y2432070I-22468J-22457D01*
G01X3399920D01*
X3398540Y2434960D01*
G03X3367780Y2454370I-30760J-14668D01*
G01X3337820D01*
G03X3307970Y2436740I0J-34085D01*
G02X3290690Y2435920I-8892J4909D01*
G03X3267780Y2448020I-22910J-15639D01*
G01X3237820D01*
G03X3210090Y2420290I0J-27730D01*
G01Y2380310D01*
G03X3237820Y2352580I27730J0D01*
G01X3267780D01*
G03X3290690Y2364680I0J27739D01*
G02X3307970Y2363860I8388J-5729D01*
G03X3337820Y2346230I29850J16455D01*
G01X3367780D01*
G03X3395160Y2360020I0J34076D01*
G02X3410510Y2361160I8166J-6045D01*
G01X3461400Y2310270D01*
G02X3458350Y2293810I-7187J-7181D01*
G03X3456570Y2292950I12924J-29022D01*
G01X3455460Y2292370D01*
X3414940D01*
G03X3394390Y2301170I-20550J-19594D01*
G01X3338030D01*
G03X3316430Y2291210I0J-28402D01*
G02X3300980I-7725J6592D01*
G03X3279380Y2301170I-21600J-18442D01*
G01X3223020D01*
G03X3194630Y2272780I0J-28390D01*
G01Y2248420D01*
G03X3201990Y2229350I28385J0D01*
G03X3194630Y2210290I21024J-19069D01*
G01Y2200930D01*
G03X3200470Y2183690I28385J6D01*
G02Y2177520I-4037J-3085D01*
G03X3194630Y2160280I22545J-17246D01*
G01Y2150920D01*
G03X3195330Y2144680I28384J25D01*
G02X3186110Y2132310I-9911J-2234D01*
G03X3165830Y2123070I2195J-31693D01*
G01X3136040Y2093290D01*
G03X3117830Y2057400I26263J-35890D01*
G03X3162300Y2012930I44470J0D01*
G03X3206410Y2051730I0J44473D01*
G02X3218210Y2060450I10076J-1291D01*
G03X3223010Y2060040I4807J27980D01*
G01X3279380D01*
G03X3300980Y2070000I0J28402D01*
G02X3316430I7725J-6592D01*
G03X3338030Y2060040I21600J18442D01*
G01X3377860D01*
X3420290Y2017610D01*
G02X3413110Y2000270I-7187J-7180D01*
G01X3399920D01*
X3398540Y2003160D01*
G03X3367780Y2022570I-30760J-14668D01*
G01X3337820D01*
G03X3307970Y2004940I0J-34085D01*
G02X3290690Y2004120I-8892J4909D01*
G03X3267780Y2016220I-22910J-15639D01*
G01X3237820D01*
G03X3210090Y1988490I0J-27730D01*
G01Y1948510D01*
G03X3237820Y1920780I27730J0D01*
G01X3267780D01*
G03X3290690Y1932880I0J27739D01*
G02X3307970Y1932060I8388J-5729D01*
G03X3337820Y1914430I29850J16455D01*
G01X3367780D01*
G03X3395160Y1928220I0J34076D01*
G02X3410510Y1929360I8166J-6045D01*
G01X3422530Y1917350D01*
G03X3444990Y1908040I22468J22457D01*
G01X3451490D01*
G02X3458670Y1890700I-7J-10160D01*
G01X3429130Y1861160D01*
X3411030D01*
G03X3390480Y1869960I-20550J-19594D01*
G01X3334120D01*
G03X3312520Y1860000I0J-28402D01*
G02X3297070I-7725J6592D01*
G03X3275470Y1869960I-21600J-18442D01*
G01X3219110D01*
G03X3198560Y1861160I0J-28394D01*
G01X3124070D01*
X2393970Y2591260D01*
Y3677280D01*
G03X2406670Y3708400I-31778J31120D01*
G03X2362200Y3752870I-44470J0D01*
G03X2354980Y3752280I0J-44472D01*
G02X2343170Y3762300I-1650J10025D01*
G01Y3816980D01*
G03X2355870Y3848100I-31778J31120D01*
G03X2311400Y3892570I-44470J0D01*
G03X2304180Y3891980I0J-44472D01*
G02X2292370Y3902000I-1650J10025D01*
G01Y3911140D01*
X2324560Y3943330D01*
X2381880D01*
G03X2413000Y3930630I31120J31778D01*
G03Y4019570I0J44470D01*
G03X2381880Y4006870I0J-44478D01*
G01X2311400D01*
G03X2288940Y3997560I8J-31767D01*
G01X2258910Y3967540D01*
G02X2241570Y3974720I-7180J7187D01*
G01Y3987340D01*
X2299160Y4044930D01*
X2381880D01*
G03X2413000Y4032230I31120J31778D01*
G03X2457470Y4076700I0J44470D01*
G03X2447630Y4104600I-44473J0D01*
G02X2455540Y4121130I7914J6371D01*
G01X2508230D01*
Y3888070D01*
X2504930Y3886840D01*
G03X2470930Y3837780I18395J-49060D01*
G01Y3604420D01*
G03X2523320Y3552030I52390J0D01*
G01X2556680D01*
G03X2603010Y3579960I0J52391D01*
G02X2620980I8985J-4741D01*
G03X2667310Y3552030I46330J24461D01*
G01X2700670D01*
G03X2747010Y3579990I0J52381D01*
G02X2764990I8990J-4743D01*
G03X2778100Y3563920I46345J24426D01*
G03X2774420Y3546210I40791J-17713D01*
G01Y3526930D01*
X2771350Y3525610D01*
G03X2759820Y3508100I7537J-17514D01*
G01Y3358080D01*
G03X2778880Y3339020I19065J5D01*
G01X2858900D01*
G03X2877960Y3358080I-5J19065D01*
G01Y3508100D01*
G03X2870680Y3523090I-19069J2D01*
G02X2867860Y3535580I6284J7982D01*
G03X2872480Y3555320I-39862J19740D01*
G01Y3559930D01*
X2874650Y3561450D01*
G03X2891020Y3579960I-29950J42981D01*
G02X2908990I8985J-4741D01*
G03X2955320Y3552030I46330J24461D01*
G01X2988680D01*
G03X3035010Y3579970I0J52382D01*
G02X3052990I8990J-4742D01*
G03X3099320Y3552030I46330J24442D01*
G01X3132680D01*
G03X3179010Y3579960I0J52391D01*
G02X3196980I8985J-4741D01*
G03X3243310Y3552030I46330J24461D01*
G01X3276670D01*
G03X3323010Y3579990I0J52381D01*
G02X3340990I8990J-4743D01*
G03X3387330Y3552030I46340J24421D01*
G01X3420690D01*
G03X3467020Y3579960I0J52391D01*
G02X3484990I8985J-4741D01*
G03X3501360Y3561450I46320J24471D01*
G01X3503530Y3559930D01*
Y3553670D01*
G03X3507340Y3535670I44472J10D01*
G02X3504110Y3523400I-9288J-4115D01*
G03X3496420Y3508100I11378J-15301D01*
G01Y3358080D01*
G03X3515480Y3339020I19065J5D01*
G01X3595500D01*
G03X3614560Y3358080I-5J19065D01*
G01Y3508100D01*
G03X3603030Y3525610I-19067J-4D01*
G01X3599960Y3526930D01*
Y3546200D01*
G03X3596690Y3562940I-44483J0D01*
G03X3611010Y3579960I-32016J41471D01*
G02X3628980I8985J-4741D01*
G03X3675310Y3552030I46330J24461D01*
G01X3708670D01*
G03X3755010Y3579990I0J52381D01*
G02X3772990I8990J-4743D01*
G03X3819330Y3552030I46340J24421D01*
G01X3852690D01*
G03X3905080Y3604420I0J52390D01*
G01Y3837780D01*
G03X3876510Y3884440I-52387J0D01*
G02X3872730Y3899220I4614J9053D01*
G03X3880480Y3924300I-36706J25080D01*
G03X3791540I-44470J0D01*
G03X3799290Y3899220I44456J0D01*
G02X3795510Y3884440I-8394J-5727D01*
G03X3772990Y3862210I23824J-46657D01*
G02X3755010I-8990J4743D01*
G03X3727060Y3886840I-46349J-24423D01*
G01X3723760Y3888070D01*
Y3896500D01*
G03X3718480Y3914040I-31774J0D01*
G01Y3969380D01*
G03X3731180Y4000500I-31778J31120D01*
G03X3642240I-44470J0D01*
G03X3654940Y3969380I44478J0D01*
G01Y3901770D01*
G03X3656550Y3891790I31771J5D01*
G01X3656810Y3890190D01*
X3653810Y3885560D01*
G03X3628980Y3862240I21504J-47775D01*
G02X3611010I-8985J4741D01*
G03X3592470Y3882190I-46327J-24463D01*
G01Y4127520D01*
X4120290D01*
G03X4125040Y4121780I36516J25383D01*
G01Y3911820D01*
X4124500Y3910740D01*
G03X4121130Y3896500I28401J-14240D01*
G01Y3888070D01*
X4117830Y3886840D01*
G03X4083830Y3837780I18395J-49060D01*
G01Y3604420D01*
G03X4136220Y3552030I52390J0D01*
G01X4169580D01*
G03X4215910Y3579960I0J52391D01*
G02X4233880I8985J-4741D01*
G03X4280210Y3552030I46330J24461D01*
G01X4313570D01*
G03X4359910Y3579990I0J52381D01*
G02X4377890I8990J-4743D01*
G03X4391000Y3563920I46345J24426D01*
G03X4387320Y3546210I40791J-17713D01*
G01Y3526930D01*
X4384250Y3525610D01*
G03X4372720Y3508100I7537J-17514D01*
G01Y3358080D01*
G03X4391780Y3339020I19065J5D01*
G01X4471800D01*
G03X4490860Y3358080I-5J19065D01*
G01Y3508100D01*
G03X4483580Y3523090I-19069J2D01*
G02X4480760Y3535580I6284J7982D01*
G03X4485380Y3555320I-39862J19740D01*
G01Y3559930D01*
X4487550Y3561450D01*
G03X4503920Y3579960I-29950J42981D01*
G02X4521890I8985J-4741D01*
G03X4568220Y3552030I46330J24461D01*
G01X4601580D01*
G03X4647910Y3579970I0J52382D01*
G02X4665890I8990J-4742D01*
G03X4712220Y3552030I46330J24442D01*
G01X4745580D01*
G03X4791910Y3579960I0J52391D01*
G02X4809880I8985J-4741D01*
G03X4856210Y3552030I46330J24461D01*
G01X4889570D01*
G03X4935910Y3579990I0J52381D01*
G02X4953890I8990J-4743D01*
G03X5000230Y3552030I46340J24421D01*
G01X5033590D01*
G03X5079920Y3579960I0J52391D01*
G02X5097890I8985J-4741D01*
G03X5114260Y3561450I46320J24471D01*
G01X5116430Y3559930D01*
Y3553670D01*
G03X5120240Y3535670I44472J10D01*
G02X5117010Y3523400I-9288J-4115D01*
G03X5109320Y3508100I11378J-15301D01*
G01Y3358080D01*
G03X5128380Y3339020I19065J5D01*
G01X5208400D01*
G03X5227460Y3358080I-5J19065D01*
G01Y3508100D01*
G03X5215930Y3525610I-19067J-4D01*
G01X5212860Y3526930D01*
Y3546200D01*
G03X5209590Y3562940I-44483J0D01*
G03X5223910Y3579960I-32016J41471D01*
G02X5241880I8985J-4741D01*
G03X5288210Y3552030I46330J24461D01*
G01X5321570D01*
G03X5367910Y3579990I0J52381D01*
G02X5385890I8990J-4743D01*
G03X5432230Y3552030I46340J24421D01*
G01X5465590D01*
G03X5517980Y3604420I0J52390D01*
G01Y3837780D01*
G03X5488640Y3884830I-52395J0D01*
G02X5484670Y3899590I4475J9118D01*
G03X5492160Y3924280I-36983J24700D01*
G01Y3924300D01*
G03X5403220I-44470J0D01*
G03X5414620Y3894570I44466J0D01*
G01X5415920Y3893120D01*
Y3887680D01*
X5412730Y3886410D01*
G03X5385890Y3862210I19509J-48622D01*
G02X5367910I-8990J4743D01*
G03X5339960Y3886840I-46349J-24423D01*
G01X5336660Y3888070D01*
Y3922060D01*
X5337170Y3923110D01*
G03X5340370Y3937000I-28569J13895D01*
G01Y3969380D01*
G03X5353070Y4000500I-31778J31120D01*
G03X5264130I-44470J0D01*
G03X5276830Y3969380I44478J0D01*
G01Y3948230D01*
X5276320Y3947180D01*
G03X5273120Y3933290I28569J-13895D01*
G01Y3888070D01*
X5269820Y3886840D01*
G03X5241880Y3862240I18393J-49057D01*
G02X5223910I-8985J4741D01*
G03X5205370Y3882190I-46327J-24463D01*
G01Y4560010D01*
G03X5223910Y4579960I-27787J44413D01*
G02X5241880I8985J-4741D01*
G03X5269820Y4555360I46333J24457D01*
G01X5273120Y4554130D01*
Y4545700D01*
G03X5276320Y4531810I31769J5D01*
G01X5276830Y4530760D01*
Y4399920D01*
G03X5264130Y4368800I31778J-31120D01*
G03X5353070I44470J0D01*
G03X5340370Y4399920I-44478J0D01*
G01Y4541990D01*
G03X5339270Y4550260I-31768J-17D01*
G02X5342180Y4556250I4906J1318D01*
G03X5367910Y4579990I-20620J48161D01*
G02X5385890I8990J-4743D01*
G03X5413840Y4555360I46349J24423D01*
G01X5417140Y4554130D01*
Y4545680D01*
G03X5420490Y4531490I31772J10D01*
G01X5421030Y4530420D01*
Y4323720D01*
G03X5408330Y4292600I31778J-31120D01*
G03X5497270I44470J0D01*
G03X5484570Y4323720I-44478J0D01*
G01Y4541810D01*
G03X5483420Y4550280I-31767J0D01*
G01X5483240Y4551630D01*
X5486310Y4556300D01*
G03X5517980Y4604420I-20722J48120D01*
G01Y4837780D01*
G03X5465590Y4890170I-52390J0D01*
G01X5432230D01*
G03X5385890Y4862210I0J-52381D01*
G02X5367910I-8990J4743D01*
G03X5321570Y4890170I-46340J-24421D01*
G01X5288210D01*
G03X5241880Y4862240I0J-52391D01*
G02X5223910I-8985J4741D01*
G03X5177580Y4890170I-46330J-24461D01*
G01X5144220D01*
G03X5097890Y4862240I0J-52391D01*
G02X5079920I-8985J4741D01*
G03X5033590Y4890170I-46330J-24461D01*
G01X5000230D01*
G03X4953890Y4862210I0J-52381D01*
G02X4935910I-8990J4743D01*
G03X4889570Y4890170I-46340J-24421D01*
G01X4856210D01*
G03X4809880Y4862240I0J-52391D01*
G02X4791910I-8985J4741D01*
G03X4745580Y4890170I-46330J-24461D01*
G01X4712220D01*
G03X4665890Y4862230I0J-52382D01*
G02X4647910I-8990J4742D01*
G03X4601580Y4890170I-46330J-24442D01*
G01X4568220D01*
G03X4521890Y4862240I0J-52391D01*
G02X4503920I-8985J4741D01*
G03X4457590Y4890170I-46330J-24461D01*
G01X4424230D01*
G03X4377890Y4862210I0J-52381D01*
G02X4359910I-8990J4743D01*
G03X4313570Y4890170I-46340J-24421D01*
G01X4280210D01*
G03X4233880Y4862240I0J-52391D01*
G02X4215910I-8985J4741D01*
G03X4169580Y4890170I-46330J-24461D01*
G01X4136220D01*
G03X4083830Y4837780I0J-52390D01*
G01Y4604420D01*
G03X4111080Y4558460I52383J0D01*
G02X4114880Y4544270I-4881J-8911D01*
G03X4108430Y4521200I38033J-23070D01*
G03X4197370I44470J0D01*
G03X4190920Y4544270I-44483J0D01*
G02X4194720Y4558460I8681J5279D01*
G03X4215910Y4579960I-25136J45965D01*
G02X4233880I8985J-4741D01*
G03X4259260Y4556400I46330J24459D01*
G02X4262110Y4550320I-2028J-4659D01*
G03X4260830Y4541410I30488J-8927D01*
G01Y4476120D01*
G03X4248130Y4445000I31778J-31120D01*
G03X4337070I44470J0D01*
G03X4324370Y4476120I-44478J0D01*
G01Y4529710D01*
X4324960Y4530820D01*
G03X4328660Y4545700I-28071J14880D01*
G01Y4554130D01*
X4331960Y4555360D01*
G03X4359910Y4579990I-18399J49053D01*
G02X4377890I8990J-4743D01*
G03X4396440Y4560010I46345J24427D01*
G01Y4148970D01*
X4323960D01*
G03X4317360Y4131090I0J-10158D01*
G02X4321010Y4127520I-24772J-28978D01*
G01X4396440D01*
Y3882190D01*
G03X4377890Y3862210I27795J-44407D01*
G02X4359910I-8990J4743D01*
G03X4331960Y3886840I-46349J-24423D01*
G01X4328660Y3888070D01*
Y3896500D01*
G03X4324960Y3911380I-31771J0D01*
G01X4324370Y3912490D01*
Y4045580D01*
G03X4337070Y4076700I-31778J31120D01*
G03X4248130I-44470J0D01*
G03X4260830Y4045580I44478J0D01*
G01Y3900790D01*
G03X4262110Y3891880I31768J17D01*
G02X4259260Y3885800I-4878J-1421D01*
G03X4233880Y3862240I20950J-48019D01*
G02X4215910I-8985J4741D01*
G03X4190310Y3885890I-46326J-24465D01*
G02X4187420Y3891920I2007J4670D01*
G03X4188580Y3900410I-30608J8506D01*
G01Y4121780D01*
G03X4201280Y4152900I-31778J31120D01*
G03X4156810Y4197370I-44470J0D01*
G03X4112350Y4153930I0J-44472D01*
G01X4112240Y4148970D01*
X3592470D01*
Y4560010D01*
G03X3611010Y4579960I-27787J44413D01*
G02X3628980I8985J-4741D01*
G03X3656920Y4555360I46333J24457D01*
G01X3660220Y4554130D01*
Y4545700D01*
G03X3663420Y4531810I31769J5D01*
G01X3663930Y4530760D01*
Y4399920D01*
G03X3651230Y4368800I31778J-31120D01*
G03X3740170I44470J0D01*
G03X3727470Y4399920I-44478J0D01*
G01Y4541990D01*
G03X3726370Y4550260I-31768J-17D01*
G02X3729280Y4556250I4906J1318D01*
G03X3755010Y4579990I-20620J48161D01*
G02X3772990I8990J-4743D01*
G03X3800940Y4555360I46349J24423D01*
G01X3804240Y4554130D01*
Y4545700D01*
G03X3811830Y4525090I31777J0D01*
G01Y4323720D01*
G03X3799130Y4292600I31778J-31120D01*
G03X3888070I44470J0D01*
G03X3875370Y4323720I-44478J0D01*
G01Y4538110D01*
G03X3872820Y4550580I-31765J0D01*
G01X3872410Y4552580D01*
X3875300Y4557160D01*
G03X3905080Y4604420I-22610J47260D01*
G01Y4837780D01*
G03X3852690Y4890170I-52390J0D01*
G01X3819330D01*
G03X3772990Y4862210I0J-52381D01*
G02X3755010I-8990J4743D01*
G03X3708670Y4890170I-46340J-24421D01*
G01X3675310D01*
G03X3628980Y4862240I0J-52391D01*
G02X3611010I-8985J4741D01*
G03X3564680Y4890170I-46330J-24461D01*
G01X3531320D01*
G03X3484990Y4862240I0J-52391D01*
G02X3467020I-8985J4741D01*
G03X3420690Y4890170I-46330J-24461D01*
G01X3387330D01*
G03X3340990Y4862210I0J-52381D01*
G02X3323010I-8990J4743D01*
G03X3276670Y4890170I-46340J-24421D01*
G01X3243310D01*
G03X3196980Y4862240I0J-52391D01*
G02X3179010I-8985J4741D01*
G03X3132680Y4890170I-46330J-24461D01*
G01X3099320D01*
G03X3052990Y4862230I0J-52382D01*
G02X3035010I-8990J4742D01*
G03X2988680Y4890170I-46330J-24442D01*
G01X2955320D01*
G03X2908990Y4862240I0J-52391D01*
G02X2891020I-8985J4741D01*
G03X2844690Y4890170I-46330J-24461D01*
G01X2811330D01*
G03X2764990Y4862210I0J-52381D01*
G02X2747010I-8990J4743D01*
G03X2700670Y4890170I-46340J-24421D01*
G01X2667310D01*
G03X2620980Y4862240I0J-52391D01*
G02X2603010I-8985J4741D01*
G03X2556680Y4890170I-46330J-24461D01*
G01X2523320D01*
G03X2470930Y4837780I0J-52390D01*
G01Y4604420D01*
G03X2483970Y4569840I52388J6D01*
G02X2476340Y4552970I-7632J-6709D01*
G01X2349500D01*
G03X2327040Y4543660I8J-31767D01*
G01X2034940Y4251560D01*
G03X2025630Y4229100I22457J-22468D01*
G01Y3559100D01*
G02X2013820Y3549080I-10160J5D01*
G03X2006600Y3549670I-7220J-43882D01*
G03X1962130Y3505200I0J-44470D01*
G03X1974830Y3474080I44478J0D01*
G01Y2400300D01*
G03X1984140Y2377840I31767J8D01*
G01X3000140Y1361840D01*
G03X3022600Y1352530I22468J22457D01*
G01X3201760D01*
G03X3222310Y1343730I20550J19594D01*
G01X3278670D01*
G03X3300270Y1353690I0J28402D01*
G02X3315720I7725J-6592D01*
G03X3337320Y1343730I21600J18442D01*
G01X3393680D01*
G03X3414230Y1352530I0J28394D01*
G01X3797300D01*
G03X3819760Y1361840I-8J31767D01*
G01X3910950Y1453020D01*
X4244620D01*
X4246140Y1450960D01*
G03X4261480Y1443220I15339J11329D01*
G01X4436500D01*
G03X4455560Y1462280I-5J19065D01*
G01Y1507300D01*
G03X4449220Y1521500I-19069J2D01*
G01Y1572300D01*
G03X4448210Y1577240I-12720J-27D01*
G03X4451840Y1580960I-11706J15054D01*
G01X4453360Y1583020D01*
X4467690D01*
G03X4490150Y1592330I-8J31767D01*
G01X4491660Y1593830D01*
X4538860D01*
G03X4551270Y1580640I27840J13760D01*
G02X4552190Y1563600I-5048J-8817D01*
G03X4541990Y1543610I14504J-19998D01*
G01Y1507590D01*
G03X4566690Y1482890I24705J5D01*
G01X4602710D01*
G03X4627410Y1507590I-5J24705D01*
G01Y1543610D01*
G03X4617210Y1563600I-24704J-8D01*
G02X4618130Y1580640I5968J8223D01*
G03X4630540Y1593830I-15430J26950D01*
G01X4655180D01*
G03X4686300Y1581130I31120J31778D01*
G03X4730770Y1625600I0J44470D01*
G01Y1625900D01*
G02X4748110Y1633160I10159J74D01*
G01X4756130Y1625140D01*
Y1333960D01*
X4611240Y1189070D01*
X2467210D01*
G02X2459670Y1206040I1J10161D01*
G03X2466810Y1224610I-20579J18570D01*
G01Y1264590D01*
G03X2439080Y1292320I-27730J0D01*
G01X2409120D01*
G03X2386210Y1280220I0J-27739D01*
G02X2368930Y1281040I-8388J5729D01*
G03X2339080Y1298670I-29850J-16455D01*
G01X2309120D01*
G03X2285410Y1289070I0J-34079D01*
G01X2234050D01*
G03X2228870Y1295990I-29653J-16798D01*
G01Y1315080D01*
X2242120Y1328320D01*
X2268610D01*
G03X2287680Y1347390I-5J19075D01*
G01Y1497410D01*
G03X2268610Y1516480I-19075J-5D01*
G01X2188590D01*
G03X2169520Y1497410I5J-19075D01*
G01Y1381520D01*
X2152950Y1364950D01*
G03X2139930Y1333520I31454J-31442D01*
G01Y1295990D01*
G03X2130330Y1272280I24479J-23710D01*
G01Y1242320D01*
G03X2143590Y1215340I34078J0D01*
G02Y1199260I-6212J-8040D01*
G03X2130330Y1172280I20818J-26980D01*
G01Y1142320D01*
G03X2164410Y1108240I34080J0D01*
G01X2204390D01*
G03X2234050Y1125530I0J34085D01*
G01X4624400D01*
G03X4646860Y1134840I-8J31767D01*
G01X4810360Y1298340D01*
G03X4819670Y1320800I-22457J22468D01*
G01Y1638300D01*
G03X4810360Y1660760I-31767J-8D01*
G01X4708760Y1762360D01*
G03X4686300Y1771670I-22468J-22457D01*
G01X4546600D01*
G03X4524140Y1762360I8J-31767D01*
G01X4469940Y1708170D01*
X4465450D01*
G02X4455390Y1719710I5J10159D01*
G03X4455560Y1722300I-18899J2541D01*
G01Y1767340D01*
G03X4452740Y1777310I-19069J-10D01*
G03X4455560Y1787280I-16249J9980D01*
G01Y1832340D01*
G03X4452740Y1842310I-19069J-10D01*
G03X4455560Y1852280I-16249J9980D01*
G01Y1897340D01*
G03X4452740Y1907310I-19069J-10D01*
G03X4455560Y1917280I-16249J9980D01*
G01Y1937130D01*
X4464370D01*
X4465490Y1933580D01*
G03X4473340Y1920640I30304J9533D01*
G01X4498740Y1895240D01*
G03X4521200Y1885930I22468J22457D01*
G01X4550280D01*
X4551660Y1883040D01*
G03X4582420Y1863630I30760J14668D01*
G01X4612380D01*
G03X4642230Y1881260I0J34085D01*
G02X4659510Y1882080I8892J-4909D01*
G03X4682420Y1869980I22910J15639D01*
G01X4712380D01*
G03X4740110Y1897710I0J27730D01*
G01Y1937690D01*
G03X4731850Y1957440I-27742J0D01*
G02X4738980Y1974830I7135J7231D01*
G01X4787440D01*
X4832330Y1929940D01*
Y1384300D01*
G03X4841640Y1361840I31767J8D01*
G01X4981340Y1222140D01*
G03X5003800Y1212830I22468J22457D01*
G01X5074870D01*
X5075610Y1208630D01*
G03X5126880Y1165540I51277J8964D01*
G01X5210920D01*
G03X5262970Y1217590I-5J52055D01*
G01Y1271610D01*
G03X5210920Y1323660I-52055J-5D01*
G01X5200670D01*
Y1365880D01*
G03X5213370Y1397000I-31778J31120D01*
G03X5124430I-44470J0D01*
G03X5137130Y1365880I44478J0D01*
G01Y1323660D01*
X5126880D01*
G03X5075610Y1280570I7J-52054D01*
G01X5074870Y1276370D01*
X5016960D01*
X4895870Y1397460D01*
Y1625980D01*
G02X4913210Y1633160I10160J-7D01*
G01X5006740Y1539640D01*
G03X5029200Y1530330I22468J22457D01*
G01X5074870D01*
X5075610Y1526130D01*
G03X5126880Y1483040I51277J8964D01*
G01X5210920D01*
G03X5262970Y1535090I-5J52055D01*
G01Y1589110D01*
G03X5210920Y1641160I-52055J-5D01*
G01X5200670D01*
Y1683380D01*
G03X5213370Y1714500I-31778J31120D01*
G03X5124430I-44470J0D01*
G03X5137130Y1683380I44478J0D01*
G01Y1641160D01*
X5126880D01*
G03X5075610Y1598070I7J-52054D01*
G01X5074870Y1593870D01*
X5042360D01*
X4946670Y1689560D01*
Y1892680D01*
G02X4964010Y1899860I10160J-7D01*
G01X5019440Y1844440D01*
G03X5041900Y1835130I22468J22457D01*
G01X5074870D01*
X5075610Y1830930D01*
G03X5126880Y1787840I51277J8964D01*
G01X5210920D01*
G03X5262970Y1839890I-5J52055D01*
G01Y1893910D01*
G03X5210920Y1945960I-52055J-5D01*
G01X5200670D01*
Y1988180D01*
G03X5213370Y2019300I-31778J31120D01*
G03X5124430I-44470J0D01*
G03X5137130Y1988180I44478J0D01*
G01Y1945960D01*
X5126880D01*
G03X5075610Y1902870I7J-52054D01*
G01X5074870Y1898670D01*
X5055060D01*
X4997470Y1956260D01*
Y2019300D01*
G03X4988160Y2041760I-31767J-8D01*
G01X4899260Y2130660D01*
G03X4876800Y2139970I-22468J-22457D01*
G01X4838090D01*
G02X4828760Y2154140I3J10159D01*
G03X4831620Y2163570I-40865J17543D01*
G02X4847060Y2170290I9990J-1856D01*
G03X4864100Y2165330I17045J26808D01*
G01X5270040D01*
X5362340Y2073040D01*
G03X5384800Y2063730I22468J22457D01*
G01X5727700D01*
G03X5750160Y2073040I-8J31767D01*
G01X5889860Y2212740D01*
G03X5899170Y2235200I-22457J22468D01*
G01Y2446280D01*
G03X5911810Y2475040I-31769J31120D01*
G01X5911910Y2476980D01*
X6023160Y2588230D01*
X6043930D01*
G03X6072990Y2570930I29065J15765D01*
G01X6087020D01*
G03X6102780Y2574930I-5J33067D01*
G02X6116680Y2570610I4846J-8929D01*
G03X6122540Y2562540I28316J14399D01*
G01X6192460Y2492610D01*
G02X6189440Y2476160I-7181J-7184D01*
G03X6179680Y2469440I13569J-30155D01*
G02X6166860Y2468200I-7167J7201D01*
G03X6152010Y2472710I-14854J-22205D01*
G01X6137980D01*
G03X6119520Y2465300I7J-26717D01*
G02X6105480I-7020J7336D01*
G03X6087020Y2472710I-18467J-19307D01*
G01X6072990D01*
G03X6046280Y2446000I5J-26715D01*
G01Y2414000D01*
G03X6072990Y2387290I26715J5D01*
G01X6087020D01*
G03X6105480Y2394700I-7J26717D01*
G02X6119520I7020J-7336D01*
G03X6137980Y2387290I18467J19307D01*
G01X6152010D01*
G03X6166860Y2391800I-4J26715D01*
G02X6179680Y2390560I5653J-8441D01*
G03X6202990Y2380940I23316J23445D01*
G01X6217010D01*
G03X6246060Y2398230I-9J33064D01*
G01X6284160D01*
G03X6290210Y2389860I27843J13754D01*
G03X6285530Y2370000I39799J-19860D01*
G03X6374470I44470J0D01*
G03X6369790Y2389860I-44479J0D01*
G03X6374960Y2396570I-21786J22133D01*
G02X6392000Y2397490I8817J-5048D01*
G03X6411990Y2387290I19998J14504D01*
G01X6448010D01*
G03X6472710Y2411990I-5J24705D01*
G01Y2448020D01*
G03X6472290Y2452550I-24706J-6D01*
G02X6482270Y2464580I9985J1871D01*
G01X6514490D01*
X6536140Y2442940D01*
G03X6558600Y2433630I22468J22457D01*
G01X6568160D01*
G03X6582230Y2419560I27835J13765D01*
G01Y2361050D01*
G03X6564940Y2331390I16795J-29660D01*
G01Y2325230D01*
X6519380Y2279670D01*
X6501970D01*
X6500650Y2282750D01*
G03X6452820Y2314260I-47830J-20547D01*
G01X6368780D01*
G03X6316730Y2262210I5J-52055D01*
G01Y2208190D01*
G03X6368780Y2156140I52055J5D01*
G01X6452820D01*
G03X6500650Y2187650I0J52057D01*
G01X6501970Y2190730D01*
X6537820D01*
G03X6569250Y2203750I-12J44474D01*
G01X6622820Y2257330D01*
X6628980D01*
G03X6655960Y2270590I0J34078D01*
G02X6672040I8040J-6212D01*
G03X6699020Y2257330I26980J20818D01*
G01X6728980D01*
G03X6752690Y2266930I0J34079D01*
G01X6795500D01*
G03X6806000Y2268190I-11J44469D01*
G01X6806590Y2268330D01*
X6815940D01*
Y2167800D01*
G03X6819070Y2157340I19066J7D01*
G01X6819900Y2156070D01*
Y1905000D01*
X6464300Y1549400D01*
Y25400D01*
X25400D01*
Y5054600D01*
X6464300D01*
Y5010170D01*
X6337300D01*
G03X6314170Y5006860I14J-82568D01*
G01X6313470Y5006660D01*
X6295280D01*
G03X6243230Y4954610I5J-52055D01*
G01Y4900590D01*
G03X6295280Y4848540I52055J5D01*
G01X6313470D01*
X6314170Y4848340D01*
G03X6337300Y4845030I23144J79258D01*
G01X6464300D01*
Y3530600D01*
X6819900Y3175000D01*
Y2901330D01*
X6819070Y2900060D01*
G03X6815940Y2889600I15936J-10467D01*
G01Y2789070D01*
X6796900D01*
G03X6786400Y2787810I11J-44469D01*
G01X6785810Y2787670D01*
X6752690D01*
G03X6728980Y2797270I-23710J-24479D01*
G01X6699020D01*
G03X6672040Y2784010I0J-34078D01*
G02X6655960I-8040J6212D01*
G03X6628980Y2797270I-26980J-20818D01*
G01X6622820D01*
X6569250Y2850850D01*
G03X6537820Y2863870I-31442J-31454D01*
G01X6501970D01*
X6500650Y2866950D01*
G03X6452820Y2898460I-47830J-20547D01*
G01X6368780D01*
G03X6316730Y2846410I5J-52055D01*
G01Y2792390D01*
G03X6368780Y2740340I52055J5D01*
G01X6452820D01*
G03X6500650Y2771850I0J52057D01*
G01X6501970Y2774930D01*
X6519380D01*
X6564940Y2729370D01*
Y2723210D01*
G03X6582230Y2693550I34085J0D01*
G01Y2611240D01*
G03X6568160Y2597170I13765J-27835D01*
G01X6558600D01*
G03X6536140Y2587860I8J-31767D01*
G01X6514490Y2566220D01*
X6262600D01*
X6244120Y2584700D01*
X6245970Y2588040D01*
G03X6250070Y2603990I-28966J15948D01*
G01Y2635990D01*
G03X6217010Y2669050I-33065J-5D01*
G37*
G36*
G01X3432930Y2123830D02*
X3482130D01*
X3493630Y2112340D01*
G03X3516090Y2103030I22468J22457D01*
G01X3524630D01*
X3526150Y2100970D01*
G03X3529770Y2097250I15351J11317D01*
G03X3528780Y2092320I11729J-4920D01*
G01Y2047300D01*
G03X3529780Y2042360I12717J3D01*
G03X3526150Y2038640I11706J-15054D01*
G01X3524630Y2036580D01*
X3491180D01*
X3422780Y2104980D01*
Y2112790D01*
G03X3422770Y2113440I-28388J-112D01*
G02X3432930Y2123830I10158J229D01*
G37*
G36*
G01X5091550Y3016230D02*
X5148780D01*
X5150160Y3013340D01*
G03X5180920Y2993930I30760J14668D01*
G01X5210880D01*
G03X5237860Y3007190I0J34078D01*
G02X5253940I8040J-6212D01*
G03X5280920Y2993930I26980J20818D01*
G01X5310880D01*
G03X5334590Y3003530I0J34079D01*
G01X5397500D01*
G03X5415060Y3007140I9J44472D01*
G02X5429230Y2997810I4011J-9333D01*
G01Y2946020D01*
X5369420Y2886210D01*
X5367390Y2886160D01*
G03X5338370Y2868540I828J-34071D01*
G02X5321090Y2867720I-8892J4909D01*
G03X5298180Y2879820I-22910J-15639D01*
G01X5268220D01*
G03X5240490Y2852090I0J-27730D01*
G01Y2812110D01*
G03X5268220Y2784380I27730J0D01*
G01X5298180D01*
G03X5321090Y2796480I0J27739D01*
G02X5338370Y2795660I8388J-5729D01*
G03X5340330Y2792520I29849J16450D01*
G01Y2726710D01*
X5339680Y2725550D01*
G03X5336490Y2717180I27121J-15129D01*
G02X5326630Y2716940I-4960J1101D01*
G03X5302810Y2735110I-23825J-6535D01*
G01X5266790D01*
G03X5242090Y2710410I5J-24705D01*
G01Y2674390D01*
G03X5266790Y2649690I24705J5D01*
G01X5302810D01*
G03X5326630Y2667860I-5J24705D01*
G02X5336490Y2667620I4900J-1341D01*
G03X5338180Y2662340I30302J6788D01*
G01X5339500Y2659190D01*
X5315250Y2634950D01*
G03X5302230Y2603500I31454J-31442D01*
G01Y2576180D01*
X5297830Y2575590D01*
G03X5272630Y2546780I3875J-28815D01*
G01Y2506800D01*
G03X5284540Y2483330I29077J-2D01*
G02X5285700Y2467920I-5994J-8200D01*
G03X5278980Y2451790I16006J-16133D01*
G01Y2411810D01*
G03X5285710Y2395680I22723J12D01*
G02X5284550Y2380260I-7155J-7215D01*
G03X5276420Y2371140I17154J-23476D01*
G01X5274960Y2368570D01*
X5245560D01*
X5226070Y2388060D01*
Y2489200D01*
G03X5216760Y2511660I-31767J-8D01*
G01X5178660Y2549760D01*
G03X5156200Y2559070I-22468J-22457D01*
G01X5133210D01*
X5131740Y2561570D01*
G03X5106710Y2575850I-25030J-14797D01*
G01X5016710D01*
G03X4991430Y2561130I4J-29075D01*
G01X4989970Y2558560D01*
X4982370D01*
X4953060Y2587860D01*
G03X4930600Y2597170I-22468J-22457D01*
G01X4922320D01*
X4920940Y2600060D01*
G03X4890180Y2619470I-30760J-14668D01*
G01X4860220D01*
G03X4833240Y2606210I0J-34078D01*
G02X4817160I-8040J6212D01*
G03X4790180Y2619470I-26980J-20818D01*
G01X4760220D01*
G03X4729460Y2600060I0J-34078D01*
G01X4728080Y2597170D01*
X4694040D01*
G03X4666210Y2614460I-27837J-13764D01*
G01X4630190D01*
G03X4602360Y2597170I7J-31054D01*
G01X4514220D01*
G03X4483100Y2609870I-31120J-31778D01*
G03X4438690Y2567760I0J-44473D01*
G01X4438590Y2565820D01*
X4326530Y2453750D01*
G03X4317220Y2431290I22457J-22468D01*
G01Y2371380D01*
X4261480D01*
G03X4242420Y2352300I10J-19070D01*
G01Y2307300D01*
G03X4245240Y2297300I19069J-20D01*
G03X4242420Y2287300I16249J-9980D01*
G01Y2242300D01*
G03X4245240Y2232300I19069J-20D01*
G03X4242420Y2222300I16249J-9980D01*
G01Y2177300D01*
G03X4245240Y2167300I19069J-20D01*
G03X4242420Y2157300I16249J-9980D01*
G01Y2112300D01*
G03X4245240Y2102300I19069J-20D01*
G03X4242420Y2092320I16248J-9979D01*
G01Y1999240D01*
G02X4222770Y1995600I-10162J-3D01*
G01Y2476040D01*
X4407360Y2660630D01*
X4902200D01*
G03X4924660Y2669940I-8J31767D01*
G01X5064360Y2809640D01*
G03X5073670Y2832100I-22457J22468D01*
G01Y2900880D01*
X5076560Y2902260D01*
G03X5095970Y2933020I-14668J30760D01*
G01Y2962980D01*
G03X5082710Y2989960I-34078J0D01*
G02Y3006040I6212J8040D01*
G03X5091550Y3016230I-20814J26986D01*
G37*
G36*
G01X5685570Y3568700D02*
X5791190D01*
G02X5798170Y3551160I-1J-10159D01*
G03X5771280Y3488670I59166J-62490D01*
G01Y3415350D01*
G03X5857330Y3329300I86050J0D01*
G01X6080670D01*
G03X6130730Y3345360I0J86050D01*
G02X6146800Y3337100I5910J-8264D01*
G01Y3162920D01*
G02X6133750Y3153190I-10158J7D01*
G03X6126710Y3154210I-7026J-23687D01*
G01X6090690D01*
G03X6065990Y3129510I5J-24705D01*
G01Y3093490D01*
G03X6071900Y3077460I24705J4D01*
G02X6064180Y3060700I-7723J-6601D01*
G01X6045200D01*
X6007100Y3022600D01*
X5707900D01*
G02X5700250Y3039440I3J10159D01*
G03X5711510Y3069480I-34446J30042D01*
G01Y3153520D01*
G03X5665810Y3199220I-45705J-5D01*
G01X5611790D01*
G03X5566090Y3153520I5J-45705D01*
G01Y3069480D01*
G03X5577350Y3039440I45706J2D01*
G02X5569700Y3022600I-7653J-6681D01*
G01X5562600D01*
X5537200Y3048000D01*
Y3411720D01*
X5673790Y3548300D01*
G03X5684390Y3565270I-31453J31442D01*
G01X5685570Y3568700D01*
G37*
G36*
G01X6960000Y2510000D02*
X7610000D01*
X8026400Y2093600D01*
Y25400D01*
X6530000D01*
Y1520000D01*
X6960000Y1950000D01*
Y2510000D01*
G37*
G36*
G01X6645770Y2693550D02*
G03X6655960Y2702390I-16796J29654D01*
G02X6672040I8040J-6212D01*
G03X6699020Y2689130I26980J20818D01*
G01X6728980D01*
G03X6752690Y2698730I0J34079D01*
G01X6795500D01*
G03X6806000Y2699990I-11J44469D01*
G01X6806590Y2700130D01*
X6815940D01*
Y2599600D01*
G03X6819070Y2589140I19066J7D01*
G01X6819900Y2587870D01*
Y2469530D01*
X6819070Y2468260D01*
G03X6815940Y2457800I15936J-10467D01*
G01Y2357270D01*
X6796900D01*
G03X6786400Y2356010I11J-44469D01*
G01X6785810Y2355870D01*
X6752690D01*
G03X6728980Y2365470I-23710J-24479D01*
G01X6699020D01*
G03X6672040Y2352210I0J-34078D01*
G02X6655960I-8040J6212D01*
G03X6645770Y2361050I-26986J-20814D01*
G01Y2419560D01*
G03X6663060Y2447390I-13764J27837D01*
G01Y2483410D01*
G03X6651580Y2507510I-31054J-8D01*
G02Y2523290I6405J7890D01*
G03X6663060Y2547390I-19574J24108D01*
G01Y2583410D01*
G03X6645770Y2611240I-31054J-7D01*
G01Y2693550D01*
G37*
G36*
G01X6960000Y2552700D02*
Y3130000D01*
X6530000Y3560000D01*
Y5054600D01*
X8026400D01*
Y2971800D01*
X7607300Y2552700D01*
X6960000D01*
G37*
%LPC*%
G75*
G36*
G01X3531810Y323810D02*
X3516800D01*
G02X3492910Y327340I-2J82590D01*
G01X3474780D01*
G02X3422730Y379390I5J52055D01*
G01Y433410D01*
G02X3474780Y485460I52055J-5D01*
G01X3492910D01*
G02X3494590Y485950I23964J-79038D01*
G01X3662830Y654190D01*
Y762000D01*
G02X3675550Y806030I82564J0D01*
G01X3676330Y807270D01*
Y832000D01*
G02X3695400Y851070I19070J0D01*
G01X3697730D01*
G03X3706590Y866190I-7J10160D01*
G02X3700930Y887900I38806J21710D01*
G02X3789870I44470J0D01*
G02X3784210Y866190I-44466J0D01*
G03X3793070Y851070I8867J-4960D01*
G01X3795400D01*
G02X3814470Y832000I0J-19070D01*
G01Y807270D01*
X3815250Y806030D01*
G02X3827970Y762000I-69844J-44030D01*
G01Y619980D01*
G02X3803790Y561600I-82573J3D01*
G01X3609460Y367280D01*
X3609110Y365960D01*
G02X3558820Y327340I-50292J13436D01*
G01X3555700D01*
G02X3531810Y323810I-23888J79060D01*
G37*
G36*
G01X4768610D02*
X4753600D01*
G02X4729710Y327340I-2J82590D01*
G01X4711580D01*
G02X4659530Y379390I5J52055D01*
G01Y433410D01*
G02X4711580Y485460I52055J-5D01*
G01X4729710D01*
G02X4731390Y485950I23964J-79038D01*
G01X4899630Y654190D01*
Y762000D01*
G02X4912350Y806030I82564J0D01*
G01X4913130Y807270D01*
Y832000D01*
G02X4932200Y851070I19070J0D01*
G01X4950430D01*
Y861620D01*
X4949130Y863070D01*
G02X4937730Y892800I33066J29730D01*
G02X5026670I44470J0D01*
G02X5015270Y863070I-44466J0D01*
G01X5013970Y861620D01*
Y851070D01*
X5032200D01*
G02X5051270Y832000I0J-19070D01*
G01Y807270D01*
X5052050Y806030D01*
G02X5064770Y762000I-69844J-44030D01*
G01Y619980D01*
G02X5040590Y561600I-82573J3D01*
G01X4846260Y367280D01*
X4845910Y365960D01*
G02X4795620Y327340I-50292J13436D01*
G01X4792500D01*
G02X4768610Y323810I-23888J79060D01*
G37*
G36*
G01X2295010D02*
X2280000D01*
G02X2256110Y327340I-2J82590D01*
G01X2237980D01*
G02X2185930Y379390I5J52055D01*
G01Y433410D01*
G02X2237980Y485460I52055J-5D01*
G01X2256110D01*
G02X2257790Y485950I23964J-79038D01*
G01X2426030Y654190D01*
Y762000D01*
G02X2438750Y806030I82564J0D01*
G01X2439530Y807270D01*
Y832000D01*
G02X2458600Y851070I19070J0D01*
G01X2476830D01*
Y877280D01*
G02X2464130Y908400I31778J31120D01*
G02X2553070I44470J0D01*
G02X2540370Y877280I-44478J0D01*
G01Y851070D01*
X2558600D01*
G02X2577670Y832000I0J-19070D01*
G01Y807270D01*
X2578450Y806030D01*
G02X2591170Y762000I-69844J-44030D01*
G01Y619980D01*
G02X2566990Y561600I-82573J3D01*
G01X2372660Y367280D01*
X2372310Y365960D01*
G02X2322020Y327340I-50292J13436D01*
G01X2318900D01*
G02X2295010Y323810I-23888J79060D01*
G37*
G36*
G01X6005410D02*
X5990400D01*
G02X5966510Y327340I-2J82590D01*
G01X5948380D01*
G02X5896330Y379390I5J52055D01*
G01Y433410D01*
G02X5948380Y485460I52055J-5D01*
G01X5966510D01*
G02X5968190Y485950I23964J-79038D01*
G01X6136430Y654190D01*
Y762000D01*
G02X6149150Y806030I82564J0D01*
G01X6149930Y807270D01*
Y832000D01*
G02X6169000Y851070I19070J0D01*
G01X6187230D01*
Y879280D01*
G02X6174530Y910400I31778J31120D01*
G02X6263470I44470J0D01*
G02X6250770Y879280I-44478J0D01*
G01Y851070D01*
X6269000D01*
G02X6288070Y832000I0J-19070D01*
G01Y807270D01*
X6288850Y806030D01*
G02X6301570Y762000I-69844J-44030D01*
G01Y619980D01*
G02X6277390Y561600I-82573J3D01*
G01X6083060Y367280D01*
X6082710Y365960D01*
G02X6032420Y327340I-50292J13436D01*
G01X6029300D01*
G02X6005410Y323810I-23888J79060D01*
G37*
G36*
G01X6295280Y3933510D02*
X6379320D01*
G02X6425020Y3887810I-5J-45705D01*
G01Y3833790D01*
G02X6379320Y3788090I-45705J5D01*
G01X6295280D01*
G02X6249580Y3833790I5J45705D01*
G01Y3887810D01*
G02X6295280Y3933510I45705J-5D01*
G37*
G36*
G01X6553470Y3013600D02*
Y3158600D01*
G02X6566190Y3171320I12720J0D01*
G01X6666190D01*
G02X6678910Y3158600I0J-12720D01*
G01Y3013600D01*
G02X6666190Y3000880I-12720J0D01*
G01X6566190D01*
G02X6553470Y3013600I0J12720D01*
G37*
G36*
G01X6198820Y2746690D02*
X6114780D01*
G02X6069080Y2792390I5J45705D01*
G01Y2846410D01*
G02X6114780Y2892110I45705J-5D01*
G01X6198820D01*
G02X6244520Y2846410I-5J-45705D01*
G01Y2792390D01*
G02X6198820Y2746690I-45705J5D01*
G37*
G36*
G01X5611790Y2945220D02*
X5665810D01*
G02X5711510Y2899520I-5J-45705D01*
G01Y2815480D01*
G02X5665810Y2769780I-45705J5D01*
G01X5611790D01*
G02X5566090Y2815480I5J45705D01*
G01Y2899520D01*
G02X5611790Y2945220I45705J-5D01*
G37*
G36*
G01X5794880Y2846110D02*
Y2946110D01*
G02X5807600Y2958830I12720J0D01*
G01X5952600D01*
G02X5965320Y2946110I0J-12720D01*
G01Y2846110D01*
G02X5952600Y2833390I-12720J0D01*
G01X5807600D01*
G02X5794880Y2846110I0J12720D01*
G37*
G36*
G01X5573690Y2348320D02*
X5627710D01*
G02X5673410Y2302620I-5J-45705D01*
G01Y2218580D01*
G02X5627710Y2172880I-45705J5D01*
G01X5573690D01*
G02X5527990Y2218580I5J45705D01*
G01Y2302620D01*
G02X5573690Y2348320I45705J-5D01*
G37*
G36*
G01X6198820Y2162490D02*
X6114780D01*
G02X6069080Y2208190I5J45705D01*
G01Y2262210D01*
G02X6114780Y2307910I45705J-5D01*
G01X6198820D01*
G02X6244520Y2262210I-5J-45705D01*
G01Y2208190D01*
G02X6198820Y2162490I-45705J5D01*
G37*
G36*
G01X5380880Y1939610D02*
X5464920D01*
G02X5510620Y1893910I-5J-45705D01*
G01Y1839890D01*
G02X5464920Y1794190I-45705J5D01*
G01X5380880D01*
G02X5335180Y1839890I5J45705D01*
G01Y1893910D01*
G02X5380880Y1939610I45705J-5D01*
G37*
G36*
G01Y1634810D02*
X5464920D01*
G02X5510620Y1589110I-5J-45705D01*
G01Y1535090D01*
G02X5464920Y1489390I-45705J5D01*
G01X5380880D01*
G02X5335180Y1535090I5J45705D01*
G01Y1589110D01*
G02X5380880Y1634810I45705J-5D01*
G37*
G36*
G01Y1317310D02*
X5464920D01*
G02X5510620Y1271610I-5J-45705D01*
G01Y1217590D01*
G02X5464920Y1171890I-45705J5D01*
G01X5380880D01*
G02X5335180Y1217590I5J45705D01*
G01Y1271610D01*
G02X5380880Y1317310I45705J-5D01*
G37*
G36*
G01X2365860Y1347400D02*
Y1497400D01*
G02X2378580Y1510120I12720J0D01*
G01X2458600D01*
G02X2471320Y1497400I0J-12720D01*
G01Y1347400D01*
G02X2458600Y1334680I-12720J0D01*
G01X2378580D01*
G02X2365860Y1347400I0J12720D01*
G37*
G36*
G01X5456280Y692000D02*
Y832000D01*
G02X5469000Y844720I12720J0D01*
G01X5569000D01*
G02X5581720Y832000I0J-12720D01*
G01Y692000D01*
G02X5569000Y679280I-12720J0D01*
G01X5469000D01*
G02X5456280Y692000I0J12720D01*
G37*
G36*
G01X4219480D02*
Y832000D01*
G02X4232200Y844720I12720J0D01*
G01X4332200D01*
G02X4344920Y832000I0J-12720D01*
G01Y692000D01*
G02X4332200Y679280I-12720J0D01*
G01X4232200D01*
G02X4219480Y692000I0J12720D01*
G37*
G36*
G01X2982680D02*
Y832000D01*
G02X2995400Y844720I12720J0D01*
G01X3095400D01*
G02X3108120Y832000I0J-12720D01*
G01Y692000D01*
G02X3095400Y679280I-12720J0D01*
G01X2995400D01*
G02X2982680Y692000I0J12720D01*
G37*
G36*
G01X1745880D02*
Y832000D01*
G02X1758600Y844720I12720J0D01*
G01X1858600D01*
G02X1871320Y832000I0J-12720D01*
G01Y692000D01*
G02X1858600Y679280I-12720J0D01*
G01X1758600D01*
G02X1745880Y692000I0J12720D01*
G37*
G36*
G01X5778420Y333690D02*
X5694380D01*
G02X5648680Y379390I5J45705D01*
G01Y433410D01*
G02X5694380Y479110I45705J-5D01*
G01X5778420D01*
G02X5824120Y433410I-5J-45705D01*
G01Y379390D01*
G02X5778420Y333690I-45705J5D01*
G37*
G36*
G01X4541620D02*
X4457580D01*
G02X4411880Y379390I5J45705D01*
G01Y433410D01*
G02X4457580Y479110I45705J-5D01*
G01X4541620D01*
G02X4587320Y433410I-5J-45705D01*
G01Y379390D01*
G02X4541620Y333690I-45705J5D01*
G37*
G36*
G01X3304820D02*
X3220780D01*
G02X3175080Y379390I5J45705D01*
G01Y433410D01*
G02X3220780Y479110I45705J-5D01*
G01X3304820D01*
G02X3350520Y433410I-5J-45705D01*
G01Y379390D01*
G02X3304820Y333690I-45705J5D01*
G37*
G36*
G01X2068020D02*
X1983980D01*
G02X1938280Y379390I5J45705D01*
G01Y433410D01*
G02X1983980Y479110I45705J-5D01*
G01X2068020D01*
G02X2113720Y433410I-5J-45705D01*
G01Y379390D01*
G02X2068020Y333690I-45705J5D01*
G37*
G36*
G01X1148380Y1724270D02*
X1841610D01*
G02X1864370Y1721070I-4J-82571D01*
G01X1865060Y1720870D01*
X1921560D01*
G02X1954190Y1732370I32635J-40555D01*
G01X2008210D01*
G02X2040840Y1720870I-5J-52055D01*
G01X2181700D01*
X2182450Y1721110D01*
G02X2207360Y1724960I24919J-78722D01*
G01X2265850D01*
X2267340Y1727380D01*
G02X2283580Y1736460I16243J-9988D01*
G01X2363600D01*
G02X2382660Y1717400I-5J-19065D01*
G01Y1700110D01*
X2384030Y1698650D01*
G02Y1586130I-60449J-56260D01*
G01X2382660Y1584670D01*
Y1567380D01*
G02X2363600Y1548320I-19065J5D01*
G01X2283580D01*
G02X2267340Y1557400I3J19068D01*
G01X2265850Y1559820D01*
X2228970D01*
X2228220Y1559580D01*
G02X2203310Y1555730I-24919J78722D01*
G01X2040840D01*
G02X2008210Y1544230I-32635J40555D01*
G01X1954190D01*
G02X1921560Y1555730I5J52055D01*
G01X1844990D01*
G02X1822230Y1558930I4J82571D01*
G01X1821540Y1559130D01*
X1148380D01*
X1147500Y1555140D01*
G02X1057270Y1482630I-90230J19885D01*
G01X923930D01*
G02X831530Y1575030I0J92400D01*
G01Y1708370D01*
G02X923930Y1800770I92400J0D01*
G01X1057270D01*
G02X1147500Y1728260I0J-92395D01*
G01X1148380Y1724270D01*
G37*
G36*
G01X908030Y3283920D02*
X904040Y3284800D01*
G02X831530Y3375030I19885J90230D01*
G01Y3508370D01*
G02X923930Y3600770I92400J0D01*
G01X1057270D01*
G02X1149670Y3508370I0J-92400D01*
G01Y3375030D01*
G02X1077160Y3284800I-92395J0D01*
G01X1073170Y3283920D01*
Y2612300D01*
X1710600Y1974870D01*
X1921560D01*
G02X1954190Y1986370I32635J-40555D01*
G01X2008210D01*
G02X2040840Y1974870I-5J-52055D01*
G01X2159000D01*
G02Y1809730I0J-82570D01*
G01X2040840D01*
G02X2008210Y1798230I-32635J40555D01*
G01X1954190D01*
G02X1921560Y1809730I5J52055D01*
G01X1676390D01*
G02X1618010Y1833910I3J82573D01*
G01X932210Y2519710D01*
G02X908030Y2578090I58393J58383D01*
G01Y3283920D01*
G37*
G36*
G01X6019790Y5010170D02*
X6083300D01*
G02X6106430Y5006860I-14J-82568D01*
G01X6107130Y5006660D01*
X6125320D01*
G02X6177370Y4954610I-5J-52055D01*
G01Y4900590D01*
G02X6125320Y4848540I-52055J5D01*
G01X6107130D01*
X6106430Y4848340D01*
G02X6083300Y4845030I-23144J79258D01*
G01X6054000D01*
X6013470Y4804500D01*
Y4768970D01*
X6029070D01*
G02X6107470Y4690570I0J-78400D01*
G01Y4631230D01*
G02X6029070Y4552830I-78400J0D01*
G01X5832730D01*
G02X5754330Y4631230I0J78400D01*
G01Y4690570D01*
G02X5832730Y4768970I78400J0D01*
G01X5848330D01*
Y4838710D01*
G02X5872510Y4897090I82573J-3D01*
G01X5961410Y4985990D01*
G02X6019790Y5010170I58383J-58393D01*
G37*
G36*
G01X5794880Y3046110D02*
Y3146110D01*
G02X5807600Y3158830I12720J0D01*
G01X5952600D01*
G02X5965320Y3146110I0J-12720D01*
G01Y3046110D01*
G02X5952600Y3033390I-12720J0D01*
G01X5807600D01*
G02X5794880Y3046110I0J12720D01*
G37*
G36*
G01X6993680Y2167800D02*
Y2457800D01*
G02X7006400Y2470520I12725J-5D01*
G01X7566400D01*
G02X7579120Y2457800I-5J-12725D01*
G01Y2167800D01*
G02X7566400Y2155080I-12725J5D01*
G01X7006400D01*
G02X6993680Y2167800I5J12725D01*
G37*
G36*
G01Y2599600D02*
Y2889600D01*
G02X7006400Y2902320I12725J-5D01*
G01X7566400D01*
G02X7579120Y2889600I-5J-12725D01*
G01Y2599600D01*
G02X7566400Y2586880I-12725J5D01*
G01X7006400D01*
G02X6993680Y2599600I5J12725D01*
G37*
G54D49*
X762000Y762000D03*
Y4318000D03*
X7289800Y762000D03*
Y4318000D03*
G54D51*
X6362700Y1638300D03*
G54D50*
X1485900Y152400D03*
X6337300D03*
X1498600Y4902200D03*
%LPD*%
G75*
G54D10*
X762000Y762000D03*
Y4318000D03*
X7289800Y762000D03*
Y4318000D03*
G54D20*
X2424100Y1244600D03*
X2324100D03*
X4697400Y1917700D03*
X4597400D03*
X4775200Y2565400D03*
X5383200Y2832100D03*
X5283200D03*
X4875200Y2565400D03*
X6714000Y2311400D03*
X6614000D03*
X6714000Y2743200D03*
X6614000D03*
G54D11*
G01X2418590Y1422400D02*
Y1250110D01*
X2424100Y1244600D01*
G01D02*
X2527300D01*
G01X2184400Y1257300D02*
Y1333500D01*
X2228600Y1377700D01*
Y1422400D01*
G01X2324100Y1244600D02*
X2197100D01*
X2184400Y1257300D01*
G01X2959100Y3048000D02*
Y3121100D01*
X2913890Y3166310D01*
Y3213100D01*
G01X2959100Y3048000D02*
X3048000D01*
G01X2828010Y3721100D02*
Y4721100D01*
G01X2818890Y3433090D02*
Y3546200D01*
X2828010Y3555320D01*
Y3721100D01*
G01X3695700Y3048000D02*
Y3121100D01*
X3650490Y3166310D01*
Y3213100D01*
G01X3695700Y3048000D02*
X3784600D01*
G01X3548000Y3721100D02*
Y4721100D01*
G01X3555490Y3433090D02*
Y3546200D01*
X3548000Y3553690D01*
Y3721100D01*
G01X4697400Y1917700D02*
Y1830400D01*
G01X4724400Y2171700D02*
X4787900D01*
G01X4572000Y3048000D02*
Y3121100D01*
X4526790Y3166310D01*
Y3213100D01*
G01X4572000Y3048000D02*
X4660900D01*
G01X4440910Y3721100D02*
Y4721100D01*
G01X4431790Y3433090D02*
Y3546200D01*
X4440910Y3555320D01*
Y3721100D01*
G01X5422900Y1866900D02*
Y1721650D01*
G01Y1562100D02*
Y1412620D01*
G01Y1721650D02*
Y1562100D01*
G01Y1244600D02*
Y1412620D01*
G01X5346700Y2431800D02*
X5461000D01*
G01X5600700Y2514600D02*
X5452000D01*
X5439810Y2526790D01*
X5346700D01*
G01X5284800Y2692400D02*
Y2830500D01*
X5283200Y2832100D01*
G01D02*
Y2933700D01*
G01X5346700Y2526790D02*
Y2603500D01*
X5384800Y2641600D01*
Y2692400D01*
G01D02*
Y2830500D01*
X5383200Y2832100D01*
G01X5638800Y3657600D02*
X5642340Y3654060D01*
Y3579750D01*
X5473700Y3411110D01*
Y2927600D01*
X5383200Y2837100D01*
Y2832100D01*
G01X5295900Y3048000D02*
Y3121100D01*
X5263390Y3153610D01*
Y3213100D01*
G01X5295900Y3048000D02*
X5397500D01*
G01X5160900Y3721100D02*
Y4721100D01*
G01X5168390Y3433090D02*
Y3546200D01*
X5160900Y3553690D01*
Y3721100D01*
G01X6156800Y2235200D02*
Y2090000D01*
G01X5600700Y2260600D02*
X5753100D01*
G01X6145000Y2430000D02*
X6080000D01*
G01D02*
X5977400D01*
G01X6108700Y3011500D02*
X6208700D01*
G01X5792800Y3860800D02*
X5702300D01*
G01X5892800D02*
X6083300D01*
G01X5709510Y3728310D02*
X5713050Y3724770D01*
X5824870D01*
X5892800Y3792700D01*
Y3860800D01*
G01X6410800Y2235200D02*
X6537800D01*
X6614000Y2311400D01*
G01X6714000D02*
X6795500D01*
X6796900Y2312800D01*
X6880000D01*
G01X6616190Y3086100D02*
X6743700D01*
G01X6616190D02*
Y3196710D01*
G01D02*
X6616700Y3197220D01*
G01D02*
Y3276600D01*
G01X6410800Y2819400D02*
X6537800D01*
X6614000Y2743200D01*
G01X6416190Y3086100D02*
Y3223110D01*
X6400800Y3238500D01*
Y3314700D01*
G01X6714000Y2743200D02*
X6795500D01*
X6796900Y2744600D01*
X6880000D01*
G01X6337300Y3860800D02*
Y3746500D01*
G01X6248400Y3302000D02*
X6388100D01*
X6400800Y3314700D01*
G01D02*
X6513380D01*
X6545990Y3347310D01*
G01X6248400Y3452010D02*
X6363490D01*
X6400800Y3414700D01*
X50800Y203200D03*
X304800Y50800D03*
X50800Y457200D03*
Y965200D03*
Y711200D03*
Y1219200D03*
Y1727200D03*
Y1473200D03*
Y2489200D03*
Y1981200D03*
Y2235200D03*
Y2743200D03*
Y2997200D03*
Y3505200D03*
Y3251200D03*
Y3759200D03*
Y4267200D03*
Y4013200D03*
Y4521200D03*
X304800Y5029200D03*
X50800D03*
Y4775200D03*
X1066800Y50800D03*
X812800D03*
X558800D03*
X1066800Y5029200D03*
X812800D03*
X558800D03*
X1828800Y50800D03*
X1574800D03*
X1320800D03*
X1828800Y5029200D03*
X1574800D03*
X1320800D03*
X2026000Y235300D03*
X2590800Y50800D03*
X2336800D03*
X2082800D03*
X2508600Y908400D03*
X2527300Y1244600D03*
X2159000Y1892300D03*
X2362200Y3708400D03*
X2006600Y3505200D03*
X2311400Y3848100D03*
X2413000Y3975100D03*
X2540000Y4521200D03*
X2413000Y4076700D03*
X2540000Y4152900D03*
X2590800Y5029200D03*
X2336800D03*
X2082800D03*
X3262800Y241300D03*
X3352800Y50800D03*
X3098800D03*
X2844800D03*
X3162300Y2400300D03*
Y1968500D03*
Y2057400D03*
X3048000Y3048000D03*
X3112110Y3924300D03*
X2971800Y4000500D03*
X2972000Y4368800D03*
X3263900Y4521200D03*
X2679700Y4076700D03*
X2683990Y4445000D03*
X3116000Y4292600D03*
X3255110Y4152900D03*
X3352800Y5029200D03*
X3098800D03*
X2844800D03*
X3860800Y50800D03*
X3606800D03*
X3745400Y887900D03*
X3886200Y1574800D03*
X3987800D03*
X3784600D03*
X3492500Y2069810D03*
X3784600Y3048000D03*
X3836010Y3924300D03*
X3686710Y4000500D03*
X3695700Y4368800D03*
X3403600Y4076700D03*
Y4445000D03*
X3843600Y4292600D03*
X3860800Y5029200D03*
X3606800D03*
X4114800Y50800D03*
X4622800D03*
X4368800D03*
X4508500Y241300D03*
X4684700Y1525600D03*
X4686300Y1625600D03*
X4089400Y1574800D03*
X4648200Y2374900D03*
X4697400Y1830400D03*
X4483100Y2565400D03*
X4660900Y3048000D03*
X4723790Y3924300D03*
X4584700Y4000500D03*
Y4368800D03*
X4152900Y4521200D03*
X4292600Y4076700D03*
Y4445000D03*
X4724400Y4292600D03*
X4156810Y4152900D03*
X4114800Y5029200D03*
X4622800D03*
X4368800D03*
X4876800Y50800D03*
X5384800D03*
X5130800D03*
X4982200Y892800D03*
X5422900Y1412620D03*
Y1721650D03*
X5168900Y1397000D03*
Y1714500D03*
Y2019300D03*
X4800600Y2436800D03*
X5461000Y2431800D03*
X4787900Y2171700D03*
Y2336800D03*
X5283200Y2933700D03*
X5397500Y3048000D03*
X5447690Y3924300D03*
X5308600Y4000500D03*
Y4368800D03*
X4876800Y4521200D03*
X5016910Y4076700D03*
X5016500Y4445000D03*
X5452800Y4292600D03*
X4872890Y4152900D03*
X5384800Y5029200D03*
X5130800D03*
X4876800D03*
X5638800Y50800D03*
X5892800D03*
X6146800D03*
X5727700Y241300D03*
X6156800Y2090000D03*
X5753100Y2260600D03*
X5977400Y2430000D03*
X5867400Y2477400D03*
X6018280Y2819400D03*
X5753100Y2857500D03*
X5702300Y3860800D03*
X5651500Y3479800D03*
X5588000Y3378200D03*
X5651500Y3276600D03*
X5715000Y3378200D03*
X5778500Y3276600D03*
X5892800Y5029200D03*
X5638800D03*
X6858000Y76200D03*
X6604000D03*
Y279400D03*
X6426200D03*
X6604000Y533400D03*
Y1041400D03*
Y787400D03*
X6426200Y533400D03*
Y1041400D03*
X6219000Y910400D03*
X6604000Y1295400D03*
Y1549400D03*
X6858000Y1803400D03*
X6426200Y1295400D03*
Y1524000D03*
X6604000Y1752600D03*
X6362700Y1638300D03*
X6520000Y2430000D03*
X6781800Y1930400D03*
Y2209800D03*
Y2413000D03*
X6330000Y2370000D03*
X6743700Y3086100D03*
X6208700Y3011500D03*
X6781800Y2641600D03*
Y2844800D03*
Y3149600D03*
X6858000Y3302000D03*
X6604000Y3556000D03*
Y3810000D03*
X6337300Y3746500D03*
X6502400Y3429000D03*
X6426200Y3556000D03*
X6604000Y4318000D03*
Y4064000D03*
Y4572000D03*
X6426200Y4064000D03*
Y4318000D03*
Y4572000D03*
X6604000Y5029200D03*
X6858000D03*
X6604000Y4826000D03*
X7112000Y76200D03*
X7366000D03*
X7112000Y2006600D03*
X7366000D03*
X7112000Y3098800D03*
X7366000D03*
X7112000Y5029200D03*
X7366000D03*
X7874000Y76200D03*
X7620000D03*
X7975600Y279400D03*
Y533400D03*
Y1041400D03*
Y787400D03*
Y1295400D03*
Y1803400D03*
Y1549400D03*
X7874000Y2006600D03*
X7620000D03*
Y3098800D03*
X7874000D03*
X7975600Y3556000D03*
Y3302000D03*
Y3810000D03*
Y4318000D03*
Y4064000D03*
Y4572000D03*
Y4826000D03*
X7620000Y5029200D03*
X7874000D03*
G54D21*
X2540000Y3721100D03*
Y4721100D03*
X3259990Y3721100D03*
X3116000D03*
X2972000D03*
X2828010D03*
X2683990D03*
Y4721100D03*
X2828010D03*
X2972000D03*
X3116000D03*
X3259990D03*
X3836010Y3721100D03*
X3691990D03*
X3548000D03*
X3404010D03*
Y4721100D03*
X3548000D03*
X3691990D03*
X3836010D03*
X4728900Y3721100D03*
X4584900D03*
X4440910D03*
X4296890D03*
X4152900D03*
Y4721100D03*
X4296890D03*
X4440910D03*
X4584900D03*
X4728900D03*
X5448910Y3721100D03*
X5304890D03*
X5160900D03*
X5016910D03*
X4872890D03*
Y4721100D03*
X5016910D03*
X5160900D03*
X5304890D03*
X5448910D03*
G54D30*
X4889500Y2436800D03*
Y2336800D03*
G54D12*
G01X6060900Y3111500D02*
X6108700D01*
G01D02*
Y3159300D01*
G01X5880100Y3096110D02*
Y3163910D01*
G01X5789790Y3096110D02*
X5880100D01*
G01D02*
X5970410D01*
G01X5561000Y3111500D02*
X5638800D01*
G01D02*
X5716600D01*
G01X5638800D02*
Y3204310D01*
G01X5766200Y3452010D02*
X5969000D01*
G01Y3324210D02*
Y3452010D01*
X762000Y-254000D03*
Y5334000D03*
X7289800Y-254000D03*
Y5334000D03*
G54D22*
X3247290Y1669400D03*
X3362300D03*
X3250490Y1384300D03*
Y1544290D03*
X3365500D03*
Y1384300D03*
X3247290Y1829390D03*
X3362300D03*
G54D31*
X5061710Y2336800D03*
Y2526790D03*
X5346700D03*
Y2431800D03*
Y2336800D03*
G54D13*
X990600Y1641700D03*
Y3441700D03*
G54D40*
X6616190Y3086100D03*
X6416190D03*
G54D23*
X3247290Y1724390D03*
Y1774400D03*
X3362300D03*
Y1724390D03*
X3250490Y1439290D03*
Y1489300D03*
X3365500D03*
Y1439290D03*
G54D14*
X1485900Y152400D03*
X1498600Y4902200D03*
X6337300Y152400D03*
G54D41*
X6400800Y3414700D03*
Y3314700D03*
G54D32*
X5284800Y2692400D03*
X5384800D03*
X5792800Y3860800D03*
X5892800D03*
G54D24*
X3252800Y2400300D03*
X3352800D03*
X3252800Y1968500D03*
X3352800D03*
X2859100Y3048000D03*
X2959100D03*
X3595700D03*
X3695700D03*
X4624400Y2171700D03*
X4724400D03*
X4472000Y3048000D03*
X4572000D03*
X5195900D03*
X5295900D03*
G54D42*
X6545990Y3347310D03*
X6616700Y3276600D03*
G54D15*
X1808600Y762000D03*
X2508600D03*
X3045400D03*
X3745400D03*
X4282200D03*
X4982200D03*
X5519000D03*
X6219000D03*
G54D33*
X6145000Y2430000D03*
X6080000D03*
Y2619990D03*
X6145000D03*
X6210000Y2430000D03*
Y2619990D03*
G54D34*
X5880100Y2896110D03*
Y3096110D03*
G54D16*
X1981200Y1638300D03*
Y1892300D03*
X5600700Y2514600D03*
Y2260600D03*
X5638800Y3111500D03*
Y2857500D03*
G54D25*
X3366210Y2260600D03*
Y2100610D03*
X3251200D03*
Y2260600D03*
G54D43*
X6248400Y3602000D03*
Y3452010D03*
Y3302000D03*
G54D17*
X2280000Y406400D03*
X2026000D03*
X3262800D03*
X3516800D03*
X4753600D03*
X4499600D03*
X5990400D03*
X5736400D03*
X6156800Y2235200D03*
Y2819400D03*
X6410800Y2235200D03*
Y2819400D03*
G54D26*
X3366210Y2205610D03*
Y2155600D03*
X3251200D03*
Y2205610D03*
G54D35*
X5709510Y3728310D03*
X5638800Y3657600D03*
G54D44*
X7286400Y2312800D03*
Y2744600D03*
G54D45*
G01X244200Y762000D02*
X762000D01*
G01X244200Y4318000D02*
X762000D01*
G01Y244200D02*
Y762000D01*
G01D02*
Y1279800D01*
G01Y762000D02*
X1279800D01*
G01X762000Y3800200D02*
Y4318000D01*
G01D02*
Y4835800D01*
G01Y4318000D02*
X1279800D01*
G01X1808600Y762000D02*
Y849800D01*
G01X1740800Y762000D02*
X1808600D01*
G01D02*
X1876400D01*
G01X2026000Y406400D02*
Y484200D01*
G01Y406400D02*
X2118810D01*
G01X2418590Y1422400D02*
Y1515210D01*
G01X2360780Y1422400D02*
X2418590D01*
G01D02*
X2476400D01*
G01X3262800Y406400D02*
Y484200D01*
G01Y406400D02*
X3355610D01*
G01X3045400Y762000D02*
Y849800D01*
G01X2977600Y762000D02*
X3045400D01*
G01D02*
X3113200D01*
G01X3252800Y2347500D02*
Y2400300D01*
G01D02*
Y2453100D01*
G01Y1915700D02*
Y1968500D01*
G01D02*
Y2021300D01*
G01X4507400Y406400D02*
X4592410D01*
G01X4499600Y328600D02*
Y406400D01*
G01D02*
Y484200D01*
G01X4282200Y762000D02*
Y849800D01*
G01X4214400Y762000D02*
X4282200D01*
G01D02*
X4350000D01*
G01X4536900Y1525600D02*
X4584700D01*
G01Y1477800D02*
Y1525600D01*
G01X4600400Y2465400D02*
X4648200D01*
G01D02*
X4696000D01*
G01X5451200Y762000D02*
X5519000D01*
G01X5422900Y1166800D02*
Y1244600D01*
G01X5330090D02*
X5422900D01*
G01D02*
X5515710D01*
G01X5330090Y1562100D02*
X5422900D01*
G01D02*
X5515710D01*
G01X4889500Y2436800D02*
X4937300D01*
G01X4889500D02*
Y2484600D01*
G01X5422900Y1866900D02*
Y1944700D01*
G01X5330090Y1866900D02*
X5422900D01*
G01D02*
X5515710D01*
G01X5283200Y2779300D02*
Y2832100D01*
G01X5235400D02*
X5283200D01*
G01X5284800Y2644600D02*
Y2692400D01*
G01X5237000D02*
X5284800D01*
G01X5736400Y328600D02*
Y406400D01*
G01D02*
Y484200D01*
G01Y406400D02*
X5829210D01*
G01X5519000Y762000D02*
Y849800D01*
G01Y762000D02*
X5586800D01*
G01X6156800Y2235200D02*
Y2313000D01*
G01X6063990Y2235200D02*
X6156800D01*
G01D02*
X6249610D01*
G01X5522900Y2260600D02*
X5600700D01*
G01Y2167790D02*
Y2260600D01*
G01D02*
Y2353410D01*
G01X6145000Y2382200D02*
Y2430000D01*
G01D02*
Y2477800D01*
G01X6080000Y2382200D02*
Y2430000D01*
G01D02*
Y2477800D01*
G01X5561000Y2857500D02*
X5638800D01*
G01Y2764690D02*
Y2857500D01*
G01D02*
Y2950310D01*
G01X6060900Y3011500D02*
X6108700D01*
G01Y2963700D02*
Y3011500D01*
G01X5880100Y2828310D02*
Y2896110D01*
G01D02*
Y2963910D01*
G01X5789790Y2896110D02*
X5880100D01*
G01X6156800Y2741600D02*
Y2819400D01*
G01D02*
Y2897200D01*
G01Y2819400D02*
X6249610D01*
G01X5792800Y3813000D02*
Y3860800D01*
G01D02*
Y3908600D01*
G01X6616190Y2995790D02*
Y3086100D01*
G01X6548390D02*
X6616190D01*
G01X6337300Y3860800D02*
Y3938600D01*
G01X6244490Y3860800D02*
X6337300D01*
G01D02*
X6430110D01*
G01X6579360Y3239260D02*
X6616700Y3276600D01*
G01D02*
X6654040Y3313940D01*
G01X6616700Y3276600D02*
X6650500Y3242800D01*
G54D36*
X5969000Y3452010D03*
G54D27*
X3629000Y1484790D03*
Y1549790D03*
Y1614790D03*
Y1679790D03*
Y1744810D03*
Y1809810D03*
Y1874810D03*
Y1939810D03*
Y2004810D03*
Y2069810D03*
Y2134800D03*
Y2199800D03*
Y2264800D03*
Y2329800D03*
X4348990Y1809810D03*
Y1744810D03*
Y1679790D03*
Y1614790D03*
Y1549790D03*
Y1484790D03*
Y2329800D03*
Y2264800D03*
Y2199800D03*
Y2134800D03*
Y2069810D03*
Y2004810D03*
Y1939810D03*
Y1874810D03*
G54D18*
X2323590Y1642390D03*
X2418590Y1422400D03*
X2228600D03*
X2913890Y3213100D03*
X2723900D03*
X2818890Y3433090D03*
X3650490Y3213100D03*
X3460500D03*
X3555490Y3433090D03*
X4526790Y3213100D03*
X4336800D03*
X4431790Y3433090D03*
X5263390Y3213100D03*
X5073400D03*
X5168390Y3433090D03*
G54D46*
G01X2508600Y762000D02*
Y908400D01*
G01X4348990Y1679790D02*
X4352380Y1676400D01*
X4483100D01*
X4546600Y1739900D01*
X4686300D01*
X4787900Y1638300D01*
Y1320800D01*
X4624400Y1157300D01*
X2184400D01*
G01X2006600Y3505200D02*
Y2400300D01*
X3022600Y1384300D01*
X3250490D01*
G01X3247290Y1724390D02*
X3063510D01*
X2260600Y2527300D01*
Y3924300D01*
X2311400Y3975100D01*
X2413000D01*
G01X2362200Y3708400D02*
Y2578100D01*
X3110910Y1829390D01*
X3247290D01*
G01X3250490Y1439290D02*
X3043810D01*
X2057400Y2425700D01*
Y4229100D01*
X2349500Y4521200D01*
X2540000D01*
G01X3247290Y1669400D02*
X3042300D01*
X2209800Y2501900D01*
Y4000500D01*
X2286000Y4076700D01*
X2413000D01*
G01X3250490Y1489300D02*
X3070000D01*
X2108200Y2451100D01*
Y4191000D01*
X2362200Y4445000D01*
X2683990D01*
G01X2311400Y3848100D02*
Y2552700D01*
X3089700Y1774400D01*
X3247290D01*
G01X3250490Y1544290D02*
X3091210D01*
X2159000Y2476500D01*
Y4064000D01*
X2247900Y4152900D01*
X2540000D01*
G01D02*
Y3721100D01*
G01Y4721100D02*
Y4521200D01*
G01X3252800Y2400300D02*
X3162300D01*
G01X3252800Y1968500D02*
X3162300D01*
G01X3251200Y2155600D02*
Y2100610D01*
G01Y2205610D02*
Y2155600D01*
G01Y2260600D02*
Y2205610D01*
G01Y2100610D02*
X3188290D01*
X3162300Y2074620D01*
Y2057400D01*
G01X2692400Y3048000D02*
Y3103400D01*
X2723900Y3134900D01*
Y3213100D01*
G01X2692400Y3048000D02*
X2859100D01*
G01X4348990Y1744810D02*
X4186090D01*
X4025900Y1905000D01*
Y2463800D01*
X3873500Y2616200D01*
X2921000D01*
X2692400Y2844800D01*
Y2948000D01*
G01X2971800Y4000500D02*
Y3896700D01*
X2972000Y3896500D01*
Y3721100D01*
G01X2679700Y4076700D02*
Y3900790D01*
X2683990Y3896500D01*
Y3721100D01*
G01X3112110Y3924300D02*
Y3724990D01*
X3116000Y3721100D01*
G01X3255110Y4152900D02*
Y3901380D01*
X3259990Y3896500D01*
Y3721100D01*
G01X2972000Y4721100D02*
Y4368800D01*
G01X3263900Y4521200D02*
Y4717190D01*
X3259990Y4721100D01*
G01X2683990D02*
Y4445000D01*
G01X3116000Y4721100D02*
Y4292600D01*
G01X3745400Y762000D02*
Y887900D01*
G01X3629000Y1614790D02*
X3498910D01*
X3428410Y1544290D01*
X3365500D01*
G01X3886200Y1574800D02*
Y1752600D01*
X3835400Y1803400D01*
Y2070100D01*
X3770700Y2134800D01*
X3629000D01*
G01X3987800Y1574800D02*
Y1727200D01*
X3886200Y1828800D01*
Y2120900D01*
X3807300Y2199800D01*
X3629000D01*
G01X3784600Y1574800D02*
Y1962120D01*
X3741910Y2004810D01*
X3629000D01*
G01X4348990Y1484790D02*
X3897790D01*
X3797300Y1384300D01*
X3365500D01*
G01X3362300Y1669400D02*
X3505700D01*
X3516090Y1679790D01*
X3629000D01*
G01X3365500Y1439290D02*
X3470590D01*
X3516090Y1484790D01*
X3629000D01*
G01X3362300Y1724390D02*
X3495670D01*
X3516090Y1744810D01*
X3629000D01*
G01X3362300Y1774400D02*
X3480680D01*
X3516090Y1809810D01*
X3629000D01*
G01X3365500Y1489300D02*
X3445110D01*
X3505600Y1549790D01*
X3629000D01*
G01X4089400Y1574800D02*
Y1701800D01*
X3937000Y1854200D01*
Y2159000D01*
X3831200Y2264800D01*
X3629000D01*
G01X3366210Y2155600D02*
X3495290D01*
X3516090Y2134800D01*
X3629000D01*
G01X3366210Y2205610D02*
X3510280D01*
X3516090Y2199800D01*
X3629000D01*
G01Y2069810D02*
X3492500D01*
G01X3366210Y2100610D02*
X3382220D01*
X3478020Y2004810D01*
X3629000D01*
G01X3352800Y2400300D02*
X3416300D01*
X3486800Y2329800D01*
X3629000D01*
G01Y1874810D02*
X3624210Y1879600D01*
X3492500D01*
X3442290Y1829390D01*
X3362300D01*
G01X3629000Y2264800D02*
X3471300D01*
X3467100Y2260600D01*
X3366210D01*
G01X3352800Y1968500D02*
X3416300D01*
X3444990Y1939810D01*
X3629000D01*
G01X4348990Y1809810D02*
X4197290D01*
X4076700Y1930400D01*
Y2565400D01*
X3924300Y2717800D01*
X3594100D01*
X3429000Y2882900D01*
Y2948000D01*
G01Y3048000D02*
Y3103400D01*
X3460500Y3134900D01*
Y3213100D01*
G01X3429000Y3048000D02*
X3595700D01*
G01X3686710Y4000500D02*
Y3901780D01*
X3691990Y3896500D01*
Y3721100D01*
G01X3403600Y4076700D02*
Y3896910D01*
X3404010Y3896500D01*
Y3721100D01*
G01X3836010D02*
Y3924300D01*
G01X3695700Y4368800D02*
Y4541990D01*
X3691990Y4545700D01*
Y4721100D01*
G01X3403600Y4445000D02*
Y4545290D01*
X3404010Y4545700D01*
Y4721100D01*
G01X3843600Y4292600D02*
Y4538110D01*
X3836010Y4545700D01*
Y4721100D01*
G01X4584700Y1525600D02*
X4684700D01*
G01X4348990Y1549790D02*
X4444610D01*
X4470400Y1524000D01*
G01D02*
X4583100D01*
X4584700Y1525600D01*
G01Y1625600D02*
X4686300D01*
G01X4584700D02*
X4478500D01*
X4467690Y1614790D01*
X4348990D01*
G01X4624400Y2171700D02*
X4559300D01*
X4531200Y2199800D01*
X4348990D01*
G01X4624400Y2171700D02*
Y2166700D01*
X4682900Y2108200D01*
X4876800D01*
X4965700Y2019300D01*
Y1943100D01*
X5041900Y1866900D01*
X5168900D01*
G01X4648200Y2465400D02*
Y2374900D01*
G01X5168900Y1244600D02*
X5003800D01*
X4864100Y1384300D01*
Y1943100D01*
X4800600Y2006600D01*
X4546600D01*
X4483390Y2069810D01*
X4348990D01*
G01X4483100Y2565400D02*
X4348990Y2431290D01*
Y2329800D01*
G01X5168900Y1562100D02*
X5029200D01*
X4914900Y1676400D01*
Y1993900D01*
X4851400Y2057400D01*
X4584700D01*
X4507300Y2134800D01*
X4348990D01*
G01X4597400Y1917700D02*
X4521200D01*
X4495800Y1943100D01*
Y1981200D01*
X4472190Y2004810D01*
X4348990D01*
G01X4305300Y2948000D02*
Y2743200D01*
X4127500Y2565400D01*
Y1955800D01*
X4208490Y1874810D01*
X4348990D01*
G01X5867400Y2477400D02*
Y2235200D01*
X5727700Y2095500D01*
X5384800D01*
X5283200Y2197100D01*
X4864100D01*
X4796400Y2264800D01*
X4348990D01*
G01X5041900Y2948000D02*
Y2832100D01*
X4902200Y2692400D01*
X4394200D01*
X4191000Y2489200D01*
Y1981200D01*
X4232390Y1939810D01*
X4348990D01*
G01X4648200Y2565400D02*
X4483100D01*
G01X4648200D02*
X4775200D01*
G01X4305300Y3048000D02*
Y3103400D01*
X4336800Y3134900D01*
Y3213100D01*
G01X4305300Y3048000D02*
X4472000D01*
G01X4584700Y4000500D02*
Y3937200D01*
X4584900Y3937000D01*
Y3721100D01*
G01X4292600Y4076700D02*
Y3900790D01*
X4296890Y3896500D01*
Y3721100D01*
G01X4723790Y3924300D02*
Y3726210D01*
X4728900Y3721100D01*
G01X4156810Y4152900D02*
Y3900410D01*
X4152900Y3896500D01*
Y3721100D01*
G01X4584700Y4368800D02*
Y4545500D01*
X4584900Y4545700D01*
Y4721100D01*
G01X4152900Y4521200D02*
Y4721100D01*
G01X4292600Y4445000D02*
Y4541410D01*
X4296890Y4545700D01*
Y4721100D01*
G01X4724400Y4292600D02*
Y4541200D01*
X4728900Y4545700D01*
Y4721100D01*
G01X4982200Y762000D02*
Y892800D01*
G01X5168900Y1244600D02*
Y1397000D01*
G01Y1562100D02*
Y1714500D01*
G01Y1866900D02*
Y2019300D01*
G01X4889500Y2436800D02*
X4800600D01*
G01X5061710Y2336800D02*
X4889500D01*
G01D02*
X4787900D01*
G01X5061710Y2526790D02*
X5062220Y2527300D01*
X5156200D01*
X5194300Y2489200D01*
Y2374900D01*
X5232400Y2336800D01*
X5346700D01*
G01X5041900Y3048000D02*
Y3103400D01*
X5073400Y3134900D01*
Y3213100D01*
G01X5041900Y3048000D02*
X5195900D01*
G01X5061710Y2526790D02*
X4969210D01*
X4930600Y2565400D01*
X4875200D01*
G01X5308600Y4000500D02*
Y3937000D01*
X5304890Y3933290D01*
Y3721100D01*
G01X5016910D02*
Y4076700D01*
G01X5447690Y3924300D02*
Y3722320D01*
X5448910Y3721100D01*
G01X4872890D02*
Y4152900D01*
G01X5308600Y4368800D02*
Y4541990D01*
X5304890Y4545700D01*
Y4721100D01*
G01X4876800Y4521200D02*
Y4717190D01*
X4872890Y4721100D01*
G01X5016500Y4445000D02*
Y4545290D01*
X5016910Y4545700D01*
Y4721100D01*
G01X5452800Y4292600D02*
Y4541810D01*
X5448910Y4545700D01*
Y4721100D01*
G01X6080000Y2619990D02*
X6079990Y2620000D01*
X6010000D01*
X5867400Y2477400D01*
G01X6145000Y2619990D02*
Y2585000D01*
X6233650Y2496350D01*
X6527650D01*
X6558600Y2465400D01*
X6614000D01*
G01X5993400Y3111500D02*
X5978010Y3096110D01*
X5970410D01*
G01X6219000Y762000D02*
Y910400D01*
G01X6614000Y2311400D02*
Y2465400D01*
G01X6430000Y2430000D02*
X6520000D01*
G01X6210000D02*
X6330000D01*
G01D02*
Y2370000D01*
G01X6614000Y2743200D02*
Y2565400D01*
G01X6210000Y2619990D02*
Y2573890D01*
X6249440Y2534450D01*
X6527650D01*
X6558600Y2565400D01*
X6614000D01*
G54D19*
X2184400Y1157300D03*
Y1257300D03*
X2692400Y2948000D03*
Y3048000D03*
X3429000Y2948000D03*
Y3048000D03*
X4305300Y2948000D03*
Y3048000D03*
X5041900Y2948000D03*
Y3048000D03*
G54D37*
X5930900Y4137890D03*
Y4660900D03*
G54D28*
X4584700Y1525600D03*
Y1625600D03*
X4648200Y2465400D03*
Y2565400D03*
X6108700Y3011500D03*
Y3111500D03*
X6614000Y2465400D03*
Y2565400D03*
G54D47*
G01X990600Y1641700D02*
X1841600D01*
X1845000Y1638300D01*
X1981200D01*
G01Y1892300D02*
X1676400D01*
X990600Y2578100D01*
Y3441700D01*
G01X1808600Y608790D02*
Y762000D01*
G01X2026000Y406400D02*
X2010990D01*
X1808600Y608790D01*
G01X1981200Y1638300D02*
X2203290D01*
X2207380Y1642390D01*
X2323590D01*
G01X1981200Y1892300D02*
X2159000D01*
G01X2026000Y406400D02*
Y235300D01*
G01X2508600Y762000D02*
Y619990D01*
X2295010Y406400D01*
X2280000D01*
G01X3262800D02*
Y241300D01*
G01Y406400D02*
X3247790D01*
X3045400Y608790D01*
G01D02*
Y762000D01*
G01X3745400D02*
Y619990D01*
X3531810Y406400D01*
X3516800D01*
G01X4982200Y762000D02*
Y619990D01*
X4768610Y406400D01*
X4753600D01*
G01X4499600D02*
X4484590D01*
X4282200Y608790D01*
G01X4507400Y241300D02*
Y406400D01*
G01X4282200Y608790D02*
Y762000D01*
G01X5726600Y406400D02*
X5721390D01*
X5519000Y608790D01*
G01X5726600Y406400D02*
Y241300D01*
G01X5736400Y406400D02*
X5726600D01*
G01X6219000Y762000D02*
Y619990D01*
X6005410Y406400D01*
X5990400D01*
G01X5519000Y608790D02*
Y762000D01*
G01X5638800Y2857500D02*
X5753100D01*
G01X6156800Y2819400D02*
X6018280D01*
G01D02*
X5941570Y2896110D01*
X5880100D01*
G01X5753100Y2857500D02*
X5841490D01*
X5880100Y2896110D01*
G01X5969000Y3452010D02*
X6248400D01*
G01X5930900Y4137890D02*
X6083300Y3985490D01*
Y3860800D01*
G01D02*
Y3775390D01*
X6248400Y3610290D01*
Y3602000D01*
G01X5930900Y4660900D02*
Y4838700D01*
X6019800Y4927600D01*
X6083300D01*
G01X6337300D02*
X6629400D01*
G54D29*
X5168900Y1244600D03*
X5422900D03*
X5168900Y1562100D03*
X5422900D03*
X5168900Y1866900D03*
X5422900D03*
X6083300Y3860800D03*
Y4927600D03*
X6337300Y3860800D03*
Y4927600D03*
G54D38*
X6430000Y2430000D03*
X6330000D03*
G54D48*
G01X6772000Y762000D02*
X7289800D01*
G01X6772000Y4318000D02*
X7289800D01*
G01Y244200D02*
Y762000D01*
G01D02*
Y1279800D01*
G01Y762000D02*
X7807600D01*
G01X7286400Y2150000D02*
Y2312800D01*
G01D02*
X7584200D01*
G01X7286400Y2744600D02*
Y2907400D01*
G01Y2744600D02*
X7584200D01*
G01X7289800Y3800200D02*
Y4318000D01*
G01D02*
Y4835800D01*
G01Y4318000D02*
X7807600D01*
G54D39*
X6880000Y2312800D03*
Y2744600D03*
M02*
