G04 ================== begin FILE IDENTIFICATION RECORD ==================*
G04 Layout Name:  fishingbatterymonitor-v1_00-0a.brd*
G04 Film Name:    FishingBatteryMonitor-SilkscreenTop-v1_00-0a*
G04 File Format:  Gerber RS274X*
G04 File Origin:  Cadence Allegro 22.1-P001*
G04 Origin Date:  Sat Oct 29 18:15:58 2022*
G04 *
G04 Layer:  REF DES/SILKSCREEN_TOP*
G04 Layer:  PACKAGE GEOMETRY/SILKSCREEN_TOP*
G04 Layer:  BOARD GEOMETRY/SILKSCREEN_TOP*
G04 *
G04 Offset:    (0.0000 0.0000)*
G04 Mirror:    No*
G04 Mode:      Positive*
G04 Rotation:  0*
G04 FullContactRelief:  No*
G04 UndefLineWidth:     0.1270*
G04 ================== end FILE IDENTIFICATION RECORD ====================*
%FSLAX25Y25*MOMM*%
%IR0*IPPOS*OFA0.00000B0.00000*MIA0B0*SFA1.00000B1.00000*%
%ADD10C,.1*%
%ADD11C,.1001*%
%ADD12C,.2032*%
%ADD13C,.127*%
%ADD14C,.254*%
%ADD15C,.1524*%
%ADD16C,.508*%
%ADD17C,.1905*%
G75*
%LPD*%
G75*
G36*
G01X1651000Y4851400D02*
Y4749800D01*
X1574800D01*
Y3581400D01*
X2374900D01*
Y4851400D01*
X1651000D01*
G37*
G36*
G01X1943100Y2832100D02*
Y2082800D01*
X2921000D01*
Y2832100D01*
X1943100D01*
G37*
G36*
G01Y2870200D02*
Y3543300D01*
X2374900D01*
Y2870200D01*
X1943100D01*
G37*
G54D10*
G01X762000Y-1003300D02*
X787400Y-1028700D01*
G54D11*
G01X2134390Y1302310D02*
X2234410D01*
G01X2134390Y1112290D02*
Y1302310D01*
G01X2234410Y1112290D02*
X2134390D01*
G01X2234410Y1302310D02*
Y1112290D01*
G01X2279090Y1194590D02*
Y1294610D01*
G01X2469110Y1194590D02*
X2279090D01*
G01X2469110Y1294610D02*
Y1194590D01*
G01X2279090Y1294610D02*
X2469110D01*
G01X3207790Y2450310D02*
X3397810D01*
G01X3207790Y2350290D02*
Y2450310D01*
G01X3397810Y2350290D02*
X3207790D01*
G01Y2018510D02*
X3397810D01*
G01X3207790Y1918490D02*
Y2018510D01*
G01X3397810Y1918490D02*
X3207790D01*
G01X3004110Y3098010D02*
Y2997990D01*
G01X2814090Y3098010D02*
X3004110D01*
G01X2814090Y2997990D02*
Y3098010D01*
G01X3004110Y2997990D02*
X2814090D01*
G01X2642390Y3093010D02*
X2742410D01*
G01X2642390Y2902990D02*
Y3093010D01*
G01X2742410Y2902990D02*
X2642390D01*
G01X2742410Y3093010D02*
Y2902990D01*
G01X3397810Y2450310D02*
Y2350290D01*
G01Y2018510D02*
Y1918490D01*
G01X3740710Y3098010D02*
Y2997990D01*
G01X3550690Y3098010D02*
X3740710D01*
G01X3550690Y2997990D02*
Y3098010D01*
G01X3740710Y2997990D02*
X3550690D01*
G01X3378990Y3093010D02*
X3479010D01*
G01X3378990Y2902990D02*
Y3093010D01*
G01X3479010Y2902990D02*
X3378990D01*
G01X3479010Y3093010D02*
Y2902990D01*
G01X4552390Y1867690D02*
Y1967710D01*
G01X4742410Y1867690D02*
X4552390D01*
G01X4742410Y1967710D02*
Y1867690D01*
G01X4552390Y1967710D02*
X4742410D01*
G01X4579390Y2221710D02*
X4769410D01*
G01X4579390Y2121690D02*
Y2221710D01*
G01X4769410Y2121690D02*
X4579390D01*
G01X4617010Y3098010D02*
Y2997990D01*
G01X4426990Y3098010D02*
X4617010D01*
G01X4426990Y2997990D02*
Y3098010D01*
G01X4617010Y2997990D02*
X4426990D01*
G01X4255290Y3093010D02*
X4355310D01*
G01X4255290Y2902990D02*
Y3093010D01*
G01X4355310Y2902990D02*
X4255290D01*
G01X4355310Y3093010D02*
Y2902990D01*
G01X4730190Y2515390D02*
Y2615410D01*
G01X4920210Y2515390D02*
X4730190D01*
G01Y2615410D02*
X4920210D01*
G01X4769410Y2221710D02*
Y2121690D01*
G01X5238190Y2782090D02*
Y2882110D01*
G01X5428210Y2782090D02*
X5238190D01*
G01X5428210Y2882110D02*
Y2782090D01*
G01X5238190Y2882110D02*
X5428210D01*
G01X5340910Y3098010D02*
Y2997990D01*
G01X5150890Y3098010D02*
X5340910D01*
G01X5150890Y2997990D02*
Y3098010D01*
G01X5340910Y2997990D02*
X5150890D01*
G01X4991890Y3093010D02*
X5091910D01*
G01X4991890Y2902990D02*
Y3093010D01*
G01X5091910Y2902990D02*
X4991890D01*
G01X5091910Y3093010D02*
Y2902990D01*
G01X4920210Y2615410D02*
Y2515390D01*
G01X5642340Y3590410D02*
X5571610Y3661140D01*
G01X5776700Y3724780D02*
X5642340Y3590410D01*
G01X5705980Y3795500D02*
X5776700Y3724780D01*
G01X5571610Y3661140D02*
X5705980Y3795500D01*
G01X6568990Y2261390D02*
Y2361410D01*
G01X6759010Y2261390D02*
X6568990D01*
G01X6759010Y2361410D02*
Y2261390D01*
G01X6568990Y2361410D02*
X6759010D01*
G01X6568990Y2693190D02*
Y2793210D01*
G01X6759010Y2693190D02*
X6568990D01*
G01X6759010Y2793210D02*
Y2693190D01*
G01X6568990Y2793210D02*
X6759010D01*
G01X6450810Y3269690D02*
X6350790D01*
G01X6450810Y3459710D02*
Y3269690D01*
G01X6350790Y3459710D02*
X6450810D01*
G01X6350790Y3269690D02*
Y3459710D01*
G01X6683890Y3280140D02*
X6613160Y3209410D01*
G01X6549520Y3414500D02*
X6683890Y3280140D01*
G01X6478800Y3343780D02*
X6549520Y3414500D01*
G01X6613160Y3209410D02*
X6478800Y3343780D01*
G54D12*
G01X1925490Y1422400D02*
Y1501140D01*
X1944960D01*
X1952750Y1497200D01*
X1958590Y1491950D01*
X1963460Y1484080D01*
X1967360Y1474890D01*
X1968330Y1461770D01*
X1967360Y1448650D01*
X1963460Y1439460D01*
X1958590Y1431580D01*
X1952750Y1426340D01*
X1944960Y1422400D01*
X1925490D01*
G01X2023700D02*
X2025650Y1439460D01*
X2028570Y1453890D01*
X2032470Y1467020D01*
X2037330Y1481450D01*
X2045120Y1501140D01*
X2006180D01*
G01X1981200Y1790700D02*
X1930400Y1739900D01*
X2032000D01*
X1981200Y1790700D01*
G01X1930400D02*
X2032000D01*
G01X2420790Y368300D02*
Y447040D01*
X2440260D01*
X2448050Y443100D01*
X2453890Y437850D01*
X2458760Y429980D01*
X2462660Y420790D01*
X2463630Y407670D01*
X2462660Y394550D01*
X2458760Y385360D01*
X2453890Y377480D01*
X2448050Y372240D01*
X2440260Y368300D01*
X2420790D01*
G01X2520950D02*
Y447040D01*
X2509270Y431290D01*
G01Y368300D02*
X2532630D01*
G01X2599690D02*
Y447040D01*
X2588010Y431290D01*
G01Y368300D02*
X2611370D01*
G01X2178400Y406400D02*
X2127600Y457200D01*
Y355600D01*
X2178400Y406400D01*
G01Y457200D02*
Y355600D01*
G01X3415200Y406400D02*
X3364400Y457200D01*
Y355600D01*
X3415200Y406400D01*
G01Y457200D02*
Y355600D01*
G01X4652000Y406400D02*
X4601200Y457200D01*
Y355600D01*
X4652000Y406400D01*
G01Y457200D02*
Y355600D01*
G01X4897290Y368300D02*
Y447040D01*
X4916760D01*
X4924550Y443100D01*
X4930390Y437850D01*
X4935260Y429980D01*
X4939160Y420790D01*
X4940130Y407670D01*
X4939160Y394550D01*
X4935260Y385360D01*
X4930390Y377480D01*
X4924550Y372240D01*
X4916760Y368300D01*
X4897290D01*
G01X4997450D02*
Y447040D01*
X4985770Y431290D01*
G01Y368300D02*
X5009130D01*
G01X5087870D02*
Y447040D01*
X5051850Y390610D01*
X5100530D01*
G01X5270500Y1244600D02*
X5321300Y1193800D01*
Y1295400D01*
X5270500Y1244600D01*
G01Y1193800D02*
Y1295400D01*
G01Y1562100D02*
X5321300Y1511300D01*
Y1612900D01*
X5270500Y1562100D01*
G01Y1511300D02*
Y1612900D01*
G01Y1866900D02*
X5321300Y1816100D01*
Y1917700D01*
X5270500Y1866900D01*
G01Y1816100D02*
Y1917700D01*
G01X6129190Y368300D02*
Y447040D01*
X6148660D01*
X6156450Y443100D01*
X6162290Y437850D01*
X6167160Y429980D01*
X6171060Y420790D01*
X6172030Y407670D01*
X6171060Y394550D01*
X6167160Y385360D01*
X6162290Y377480D01*
X6156450Y372240D01*
X6148660Y368300D01*
X6129190D01*
G01X6229350D02*
Y447040D01*
X6217670Y431290D01*
G01Y368300D02*
X6241030D01*
G01X6286670Y384050D02*
X6292510Y374860D01*
X6300300Y369610D01*
X6309060Y368300D01*
X6316850Y369610D01*
X6324640Y376170D01*
X6329510Y384050D01*
X6330480Y391920D01*
X6328540Y401110D01*
X6321720Y407670D01*
X6314910Y410300D01*
X6306140D01*
G01X6314910D02*
X6320750Y414230D01*
X6325620Y420790D01*
X6327560Y428670D01*
X6325620Y436540D01*
X6320750Y443100D01*
X6311980Y447040D01*
X6303220Y445730D01*
X6294460Y440480D01*
G01X5888800Y406400D02*
X5838000Y457200D01*
Y355600D01*
X5888800Y406400D01*
G01Y457200D02*
Y355600D01*
G01X5570390Y1206500D02*
Y1285240D01*
X5589860D01*
X5597650Y1281300D01*
X5603490Y1276050D01*
X5608360Y1268180D01*
X5612260Y1258990D01*
X5613230Y1245870D01*
X5612260Y1232750D01*
X5608360Y1223560D01*
X5603490Y1215680D01*
X5597650Y1210440D01*
X5589860Y1206500D01*
X5570390D01*
G01X5670550D02*
Y1285240D01*
X5658870Y1269490D01*
G01Y1206500D02*
X5682230D01*
G01X5727870Y1218310D02*
X5733710Y1211750D01*
X5740530Y1207810D01*
X5749290Y1206500D01*
X5758050Y1209120D01*
X5764870Y1214370D01*
X5769740Y1223560D01*
X5770710Y1234060D01*
X5768760Y1244560D01*
X5763890Y1251120D01*
X5757080Y1256370D01*
X5750260Y1257680D01*
X5743450Y1256370D01*
X5734690Y1251120D01*
X5737610Y1285240D01*
X5763890D01*
G01X5570390Y1524000D02*
Y1602740D01*
X5589860D01*
X5597650Y1598800D01*
X5603490Y1593550D01*
X5608360Y1585680D01*
X5612260Y1576490D01*
X5613230Y1563370D01*
X5612260Y1550250D01*
X5608360Y1541060D01*
X5603490Y1533180D01*
X5597650Y1527940D01*
X5589860Y1524000D01*
X5570390D01*
G01X5670550D02*
Y1602740D01*
X5658870Y1586990D01*
G01Y1524000D02*
X5682230D01*
G01X5730790Y1556810D02*
X5737610Y1566000D01*
X5743450Y1571240D01*
X5751240Y1573870D01*
X5758050Y1571240D01*
X5762920Y1566000D01*
X5766820Y1558120D01*
X5767790Y1548930D01*
X5766820Y1541060D01*
X5762920Y1533180D01*
X5757080Y1526620D01*
X5750260Y1524000D01*
X5742470Y1526620D01*
X5735660Y1534500D01*
X5731760Y1546310D01*
X5730790Y1559430D01*
X5732740Y1576490D01*
X5735660Y1585680D01*
X5740530Y1594870D01*
X5747340Y1601430D01*
X5754160Y1602740D01*
X5760970Y1600120D01*
X5765840Y1593550D01*
G01X6004400Y2192190D02*
X5925660D01*
Y2211660D01*
X5929600Y2219450D01*
X5934850Y2225290D01*
X5942720Y2230160D01*
X5951910Y2234060D01*
X5965030Y2235030D01*
X5978150Y2234060D01*
X5987340Y2230160D01*
X5995220Y2225290D01*
X6000460Y2219450D01*
X6004400Y2211660D01*
Y2192190D01*
G01X5992590Y2270930D02*
X5999150Y2276770D01*
X6003090Y2283590D01*
X6004400Y2292350D01*
X6001780Y2301110D01*
X5996530Y2307930D01*
X5987340Y2312800D01*
X5976840Y2313770D01*
X5966340Y2311820D01*
X5959780Y2306950D01*
X5954530Y2300140D01*
X5953220Y2293320D01*
X5954530Y2286510D01*
X5959780Y2277750D01*
X5925660Y2280670D01*
Y2306950D01*
G01X5600700Y2413000D02*
X5549900Y2362200D01*
X5651500D01*
X5600700Y2413000D01*
G01X5549900D02*
X5651500D01*
G01X5570390Y1828800D02*
Y1907540D01*
X5589860D01*
X5597650Y1903600D01*
X5603490Y1898350D01*
X5608360Y1890480D01*
X5612260Y1881290D01*
X5613230Y1868170D01*
X5612260Y1855050D01*
X5608360Y1845860D01*
X5603490Y1837980D01*
X5597650Y1832740D01*
X5589860Y1828800D01*
X5570390D01*
G01X5670550D02*
Y1907540D01*
X5658870Y1891790D01*
G01Y1828800D02*
X5682230D01*
G01X5747340D02*
X5749290Y1845860D01*
X5752210Y1860290D01*
X5756110Y1873420D01*
X5760970Y1887850D01*
X5768760Y1907540D01*
X5729820D01*
G01X5638800Y3009900D02*
X5588000Y2959100D01*
X5689600D01*
X5638800Y3009900D01*
G01X5588000D02*
X5689600D01*
G01X6309200Y2235200D02*
X6258400Y2286000D01*
Y2184400D01*
X6309200Y2235200D01*
G01Y2286000D02*
Y2184400D01*
G01Y2819400D02*
X6258400Y2870200D01*
Y2768600D01*
X6309200Y2819400D01*
G01Y2870200D02*
Y2768600D01*
G01X6184900Y3860800D02*
X6235700Y3810000D01*
Y3911600D01*
X6184900Y3860800D01*
G01Y3810000D02*
Y3911600D01*
G01Y4927600D02*
X6235700Y4876800D01*
Y4978400D01*
X6184900Y4927600D01*
G01Y4876800D02*
Y4978400D01*
G54D13*
G01X1175850Y4953000D02*
Y5016500D01*
X1201590D01*
G01X1192110Y4985810D02*
X1175850D01*
G01X1236470Y5016500D02*
X1252730D01*
G01X1244600D02*
Y4953000D01*
G01X1236470D02*
X1252730D01*
G01X1285580D02*
Y5016500D01*
X1299130D01*
X1304540Y5013320D01*
X1308610Y5009090D01*
X1312000Y5002740D01*
X1314700Y4995330D01*
X1315380Y4984750D01*
X1314700Y4974170D01*
X1312000Y4966760D01*
X1308610Y4960410D01*
X1304540Y4956170D01*
X1299130Y4953000D01*
X1285580D01*
G01X1356360D02*
Y5016500D01*
X1348230Y5003800D01*
G01Y4953000D02*
X1364490D01*
G01X1620350Y114300D02*
Y177800D01*
X1646090D01*
G01X1636610Y147110D02*
X1620350D01*
G01X1680970Y177800D02*
X1697230D01*
G01X1689100D02*
Y114300D01*
G01X1680970D02*
X1697230D01*
G01X1730080D02*
Y177800D01*
X1743630D01*
X1749040Y174620D01*
X1753110Y170390D01*
X1756500Y164040D01*
X1759200Y156630D01*
X1759880Y146050D01*
X1759200Y135470D01*
X1756500Y128060D01*
X1753110Y121710D01*
X1749040Y117470D01*
X1743630Y114300D01*
X1730080D01*
G01X1787990Y167220D02*
X1792050Y173570D01*
X1796800Y176740D01*
X1802210Y177800D01*
X1808990Y175680D01*
X1813730Y170390D01*
X1815080Y164040D01*
X1814410Y157690D01*
X1811700Y152400D01*
X1798150Y141820D01*
X1792050Y134410D01*
X1787990Y123820D01*
X1786640Y114300D01*
X1815080D01*
G01X2454100Y3721100D02*
G03I-28400J0D01*
G01X3262300Y1634400D02*
X3352290D01*
G01X3265500Y1349300D02*
X3355490D01*
G01X3265500Y1579300D02*
X3355490D01*
G01X3262300Y1864400D02*
X3352290D01*
G01X3351200Y2295600D02*
X3261210D01*
G01X3351200Y2065600D02*
X3261210D01*
G01X4067000Y3721100D02*
G03I-28400J0D01*
G01X6001850Y127000D02*
Y190500D01*
X6027590D01*
G01X6018110Y159810D02*
X6001850D01*
G01X6062470Y190500D02*
X6078730D01*
G01X6070600D02*
Y127000D01*
G01X6062470D02*
X6078730D01*
G01X6111580D02*
Y190500D01*
X6125130D01*
X6130540Y187320D01*
X6134610Y183090D01*
X6138000Y176740D01*
X6140700Y169330D01*
X6141380Y158750D01*
X6140700Y148170D01*
X6138000Y140760D01*
X6134610Y134410D01*
X6130540Y130170D01*
X6125130Y127000D01*
X6111580D01*
G01X6167460Y139700D02*
X6171520Y132290D01*
X6176940Y128060D01*
X6183040Y127000D01*
X6188460Y128060D01*
X6193880Y133350D01*
X6197260Y139700D01*
X6197940Y146050D01*
X6196580Y153460D01*
X6191840Y158750D01*
X6187100Y160870D01*
X6181010D01*
G01X6187100D02*
X6191170Y164040D01*
X6194550Y169330D01*
X6195910Y175680D01*
X6194550Y182030D01*
X6191170Y187320D01*
X6185070Y190500D01*
X6178970Y189440D01*
X6172880Y185210D01*
G01X6044140Y2430000D02*
G03I-14140J0D01*
G01X5898390Y3691990D02*
Y3582010D01*
G01X6172200Y3691990D02*
X5898390D01*
G01X6172200Y3212010D02*
X5898390D01*
Y3321990D01*
G01X6266360Y3213100D02*
G03I-17960J0D01*
G01X6172200Y3661990D02*
Y3691990D01*
G01Y3242010D02*
Y3212010D01*
G54D14*
G01X177800Y1739900D02*
Y3340100D01*
G01X812800Y1739900D02*
X177800D01*
G01Y3340100D02*
X812800D01*
G01X1168400Y1739900D02*
X1803400D01*
Y3340100D01*
X1168400D01*
G01X2381600Y304800D02*
X1924400D01*
Y508000D01*
G01X1384300Y473290D02*
X1511300D01*
Y537630D01*
G01Y635000D02*
X1509180Y622130D01*
X1500720Y610870D01*
X1488020Y601220D01*
X1473200Y594780D01*
X1456270Y591560D01*
X1439330D01*
X1422400Y594780D01*
X1407580Y601220D01*
X1394880Y610870D01*
X1386420Y622130D01*
X1384300Y635000D01*
X1386420Y647870D01*
X1394880Y659130D01*
X1407580Y668780D01*
X1422400Y675220D01*
X1439330Y678440D01*
X1456270D01*
X1473200Y675220D01*
X1488020Y668780D01*
X1500720Y659130D01*
X1509180Y647870D01*
X1511300Y635000D01*
G01Y724320D02*
X1384300Y764540D01*
X1511300Y804760D01*
G01X1466850Y790280D02*
Y738800D01*
G01X1511300Y858690D02*
X1384300D01*
Y890860D01*
X1390650Y903730D01*
X1399120Y913380D01*
X1411810Y921430D01*
X1426640Y927860D01*
X1447800Y929470D01*
X1468970Y927860D01*
X1483790Y921430D01*
X1496490Y913380D01*
X1504950Y903730D01*
X1511300Y890860D01*
Y858690D01*
G01X1468970Y1002710D02*
Y1044530D01*
G01X1924400Y508000D02*
X2381600D01*
G01X2428590Y562000D02*
X2468600D01*
X1848610D01*
G01D02*
Y662000D01*
G01X2428590Y962000D02*
X2468600D01*
X1848610D01*
G01Y862000D02*
Y962000D01*
G01X2082800Y1993900D02*
Y1536700D01*
X1879600D01*
G01D02*
Y1993900D01*
G01D02*
X2082800D01*
G01X1447800Y4198110D02*
Y4230290D01*
X1485900D01*
X1498600Y4220630D01*
X1507070Y4209370D01*
X1511300Y4193290D01*
X1507070Y4177200D01*
X1498600Y4165940D01*
X1485900Y4156290D01*
X1471080Y4149850D01*
X1454150Y4146630D01*
X1439330D01*
X1426640Y4149850D01*
X1411810Y4156290D01*
X1399120Y4165940D01*
X1390650Y4175590D01*
X1384300Y4188460D01*
Y4199720D01*
X1388530Y4212590D01*
X1397000Y4222240D01*
G01X1511300Y4281000D02*
X1384300D01*
X1511300Y4355000D01*
X1384300D01*
G01X1511300Y4412150D02*
X1384300D01*
Y4444320D01*
X1390650Y4457190D01*
X1399120Y4466840D01*
X1411810Y4474890D01*
X1426640Y4481320D01*
X1447800Y4482930D01*
X1468970Y4481320D01*
X1483790Y4474890D01*
X1496490Y4466840D01*
X1504950Y4457190D01*
X1511300Y4444320D01*
Y4412150D01*
G01X2381600Y508000D02*
Y304800D01*
G01X2468600Y862000D02*
Y962000D01*
G01Y662000D02*
Y562000D01*
G01X2495550Y1631950D02*
Y1454150D01*
G01D02*
X2476500D01*
G01X2495550Y1632050D02*
X2381250Y1631750D01*
G01X2266950Y1631950D02*
X2152650D01*
Y1454150D01*
X2171700D01*
G01X2463800Y4559300D02*
Y3873500D01*
G01X3618400Y304800D02*
X3161200D01*
Y508000D01*
G01D02*
X3618400D01*
G01X3665390Y562000D02*
X3705400D01*
X3085410D01*
G01D02*
Y662000D01*
G01X3665390Y962000D02*
X3705400D01*
X3085410D01*
G01Y862000D02*
Y962000D01*
G01X3187700Y4584700D02*
Y3873500D01*
G01X2990850Y3422650D02*
Y3244840D01*
G01D02*
X2971800D01*
G01X2990850Y3422750D02*
X2876550Y3422450D01*
G01X2762250Y3422640D02*
X2647950D01*
Y3244850D01*
X2667000D01*
G01X3122020Y3975100D02*
G03I-35920J0D01*
G01X3618400Y508000D02*
Y304800D01*
G01X3705400Y862000D02*
Y962000D01*
G01Y662000D02*
Y562000D01*
G01X3753990Y1384790D02*
X4224000D01*
G01X3753990Y2434800D02*
Y1384790D01*
G01X3929000Y2384790D02*
Y2434800D01*
G01X4029000Y2384790D02*
X3929000D01*
G01Y2434800D02*
X3753990D01*
G01X4029000D02*
Y2384790D01*
G01X4224000Y2434800D02*
X4029000D01*
G01X3911600Y4559300D02*
Y3873500D01*
G01X3727450Y3422650D02*
Y3244850D01*
G01D02*
X3708400D01*
G01X3727450Y3422750D02*
X3613150Y3422450D01*
G01X3498850Y3422650D02*
X3384550D01*
Y3244850D01*
X3403600D01*
G01X3845920Y3975100D02*
G03I-35920J0D01*
G01X4855200Y304800D02*
X4398000D01*
Y508000D01*
G01D02*
X4855200D01*
G01X4902190Y562000D02*
X4942200D01*
X4322210D01*
G01D02*
Y662000D01*
G01X4902190Y962000D02*
X4942200D01*
X4322210D01*
G01Y862000D02*
Y962000D01*
G01X4224000Y1384790D02*
Y2434800D01*
G01X4076700Y4559300D02*
Y3873500D01*
G01X4603750Y3422650D02*
Y3244850D01*
G01D02*
X4584700D01*
G01X4603750Y3422750D02*
X4489450Y3422450D01*
G01X4375150Y3422650D02*
X4260850D01*
Y3244850D01*
X4279900D01*
G01X4734920Y3975100D02*
G03I-35920J0D01*
G01X4855200Y508000D02*
Y304800D01*
G01X4942200Y862000D02*
Y962000D01*
G01Y662000D02*
Y562000D01*
G01X5067300Y1346200D02*
X5524500D01*
Y1143000D01*
G01X5067300D02*
Y1346200D01*
G01X5524500Y1143000D02*
X5067300D01*
G01Y1663700D02*
X5524500D01*
Y1460500D01*
G01X5067300D02*
Y1663700D01*
G01X5524500Y1460500D02*
X5067300D01*
G01Y1765300D02*
Y1968500D01*
G01X5524500Y1765300D02*
X5067300D01*
G01Y1968500D02*
X5524500D01*
Y1765300D01*
G01X5369560Y2196800D02*
G03I-22860J0D01*
G01X5436690Y2266800D02*
X4966690D01*
G01X5436690Y2596790D02*
Y2266800D01*
G01X4966690D02*
Y2596790D01*
G01D02*
X5436690D01*
G01X4800600Y4584700D02*
Y3873500D01*
G01X5340350Y3422650D02*
Y3244850D01*
G01D02*
X5321300D01*
G01X5340350Y3422750D02*
X5226050Y3422450D01*
G01X5111750Y3422650D02*
X4997450D01*
Y3244850D01*
X5016500D01*
G01X5458820Y3975100D02*
G03I-35920J0D01*
G01X6092000Y304800D02*
X5634800D01*
Y508000D01*
G01X6092000D02*
Y304800D01*
G01X5634800Y508000D02*
X6092000D01*
G01X6138990Y562000D02*
X6179000D01*
X5559010D01*
G01D02*
Y662000D01*
G01X6138990Y962000D02*
X6179000D01*
X5559010D01*
G01Y862000D02*
Y962000D01*
G01X6512400Y2133600D02*
X6055200D01*
Y2336800D01*
G01D02*
X6512400D01*
G01X5702300Y2616200D02*
Y2159000D01*
X5499100D01*
G01D02*
Y2616200D01*
G01X6050000Y2489990D02*
Y2570000D01*
X6250000D01*
Y2480010D01*
X6050000D01*
Y2489990D01*
G01X5980100Y3156100D02*
Y2826110D01*
X5780100D01*
Y3166110D01*
X5980100D01*
Y3156100D01*
G01X5740400Y3213100D02*
Y2755900D01*
X5537200D01*
G01Y3213100D02*
X5740400D01*
G01X5537200Y2755900D02*
Y3213100D01*
G01X6512400Y2717800D02*
X6055200D01*
Y2921000D01*
G01D02*
X6512400D01*
G01X5499100Y2616200D02*
X5702300D01*
G01X5981700Y3759200D02*
Y3962400D01*
G01X6438900Y3759200D02*
X5981700D01*
G01X5524500Y4559300D02*
Y3873500D01*
G01X5981700Y3962400D02*
X6438900D01*
Y3759200D01*
G01X6134100Y4762500D02*
Y4000500D01*
X5727700D01*
Y4787900D01*
X6134100D01*
Y4762500D01*
G01X5981700Y5029200D02*
X6438900D01*
Y4826000D01*
G01X5981700D02*
Y5029200D01*
G01X6438900Y4826000D02*
X5981700D01*
G01X6540500Y460590D02*
X6667500D01*
Y524930D01*
G01Y622300D02*
X6665380Y609430D01*
X6656920Y598170D01*
X6644220Y588520D01*
X6629400Y582080D01*
X6612470Y578860D01*
X6595530D01*
X6578600Y582080D01*
X6563780Y588520D01*
X6551080Y598170D01*
X6542620Y609430D01*
X6540500Y622300D01*
X6542620Y635170D01*
X6551080Y646430D01*
X6563780Y656080D01*
X6578600Y662520D01*
X6595530Y665740D01*
X6612470D01*
X6629400Y662520D01*
X6644220Y656080D01*
X6656920Y646430D01*
X6665380Y635170D01*
X6667500Y622300D01*
G01Y711620D02*
X6540500Y751840D01*
X6667500Y792060D01*
G01X6623050Y777580D02*
Y726100D01*
G01X6667500Y845990D02*
X6540500D01*
Y878160D01*
X6546850Y891030D01*
X6555320Y900680D01*
X6568010Y908730D01*
X6582840Y915160D01*
X6604000Y916770D01*
X6625170Y915160D01*
X6639990Y908730D01*
X6652690Y900680D01*
X6661150Y891030D01*
X6667500Y878160D01*
Y845990D01*
G01X6625170Y993220D02*
Y1031830D01*
G01X6597650Y1010920D02*
X6652690D01*
G01X6179000Y862000D02*
Y962000D01*
G01Y662000D02*
Y562000D01*
G01X6512400Y2336800D02*
Y2133600D01*
G01X6803800Y2135000D02*
Y2922400D01*
G01X7591200Y2135000D02*
X6803800D01*
G01X6356200Y3186100D02*
X6686190D01*
Y2986100D01*
X6346190D01*
Y3186100D01*
X6356200D01*
G01X6512400Y2921000D02*
Y2717800D01*
G01X6803800Y2922400D02*
X7591200D01*
G01X6540500Y4084740D02*
X6667500Y4124960D01*
X6540500Y4165180D01*
G01X6599770Y4267370D02*
X6593420Y4273800D01*
X6582840Y4278630D01*
X6568010Y4281850D01*
X6555320Y4278630D01*
X6546850Y4272200D01*
X6540500Y4260930D01*
Y4217500D01*
X6667500D01*
Y4270590D01*
X6659040Y4281850D01*
X6646330Y4288280D01*
X6631520Y4291500D01*
X6616700Y4288280D01*
X6604000Y4278630D01*
X6599770Y4267370D01*
Y4217500D01*
G01X6667500Y4343820D02*
X6540500Y4384040D01*
X6667500Y4424260D01*
G01X6623050Y4409780D02*
Y4358300D01*
G01X6540500Y4513580D02*
X6667500D01*
G01X6540500Y4476580D02*
Y4550580D01*
G01X7785100Y2870200D02*
Y2184400D01*
G01D02*
X7683500Y2286000D01*
G01X7785100Y2184400D02*
X7886700Y2286000D01*
G01X7591200Y2922400D02*
Y2135000D01*
G54D15*
G01X1600200Y38100D02*
X1371600D01*
G01D02*
Y266700D01*
G01X1600200D02*
Y38100D01*
G01X1371600Y266700D02*
X1600200D01*
G01X1612900Y4787900D02*
X1384300D01*
G01D02*
Y5016500D01*
G01X1612900D02*
Y4787900D01*
G01X1384300Y5016500D02*
X1612900D01*
G01X4539690Y1480590D02*
Y1670610D01*
G01X4629710Y1480590D02*
X4539690D01*
G01Y1670610D02*
X4629710D01*
G01D02*
Y1480590D01*
G01X4603190Y2420390D02*
Y2610410D01*
G01X4693210Y2420390D02*
X4603190D01*
G01X4693210Y2610410D02*
Y2420390D01*
G01X4603190Y2610410D02*
X4693210D01*
G01X4934510Y2481810D02*
Y2291790D01*
G01X4844490Y2481810D02*
X4934510D01*
G01Y2291790D02*
X4844490D01*
G01D02*
Y2481810D01*
G01X5239790Y2737410D02*
X5429810D01*
G01X5239790Y2647390D02*
Y2737410D01*
G01X5429810D02*
Y2647390D01*
G01D02*
X5239790D01*
G01X6063690Y2966490D02*
Y3156510D01*
G01X6153710Y2966490D02*
X6063690D01*
G01Y3156510D02*
X6153710D01*
G01D02*
Y2966490D01*
G01X5747790Y3905810D02*
X5937810D01*
G01X5747790Y3815790D02*
Y3905810D01*
G01X5937810D02*
Y3815790D01*
G01D02*
X5747790D01*
G01X6451600Y38100D02*
X6223000D01*
G01D02*
Y266700D01*
G01X6451600D02*
Y38100D01*
G01X6223000Y266700D02*
X6451600D01*
G01X6568990Y2420390D02*
Y2610410D01*
G01X6659010Y2420390D02*
X6568990D01*
G01X6659010Y2610410D02*
Y2420390D01*
G01X6475010Y2384990D02*
X6284990D01*
G01X6475010Y2475010D02*
Y2384990D01*
G01X6284990D02*
Y2475010D01*
G01D02*
X6475010D01*
G01X6568990Y2610410D02*
X6659010D01*
G54D16*
G01X1332090Y762000D02*
G03I-570090J0D01*
G01Y4318000D02*
G03I-570090J0D01*
G01X2743200Y3949700D02*
X2908300D01*
G01X2743200Y4508500D02*
X2908300D01*
G01X2971800Y4178300D02*
Y4000500D01*
G01Y4457700D02*
Y4279900D01*
G01X2743200Y4229100D02*
X2908300D01*
G01X2679700Y4178300D02*
Y4000500D01*
G01Y4457700D02*
Y4279900D01*
G01X3403600Y4457700D02*
Y4279900D01*
G01X3467100Y4508500D02*
X3632200D01*
G01X3467100Y4229100D02*
X3632200D01*
G01X3695700Y4457700D02*
Y4279900D01*
G01X3403600Y4178300D02*
Y4000500D01*
G01X3467100Y3949700D02*
X3632200D01*
G01X3695700Y4178300D02*
Y4000500D01*
G01X4356100Y3949700D02*
X4521200D01*
G01X4356100Y4508500D02*
X4521200D01*
G01X4584700Y4178300D02*
Y4000500D01*
G01Y4457700D02*
Y4279900D01*
G01X4356100Y4229100D02*
X4521200D01*
G01X4292600Y4178300D02*
Y4000500D01*
G01Y4457700D02*
Y4279900D01*
G01X5016500Y4457700D02*
Y4279900D01*
G01X5080000Y4508500D02*
X5245100D01*
G01X5080000Y4229100D02*
X5245100D01*
G01X5308600Y4457700D02*
Y4279900D01*
G01X5016500Y4178300D02*
Y4000500D01*
G01X5080000Y3949700D02*
X5245100D01*
G01X5308600Y4178300D02*
Y4000500D01*
G01X7859890Y762000D02*
G03I-570090J0D01*
G01Y4318000D02*
G03I-570090J0D01*
G54D17*
G01X620310Y63500D02*
Y142240D01*
X657310D01*
G01X643680Y104180D02*
X620310D01*
G01X705870Y142240D02*
X729230D01*
G01X717550D02*
Y63500D01*
G01X705870D02*
X729230D01*
G01X775840D02*
X816740Y142240D01*
G01X775840D02*
X816740Y63500D01*
G01X886710D02*
Y142240D01*
X850690Y85810D01*
X899370D01*
G01X644740Y3012950D02*
X649610Y3005070D01*
X655450Y2999820D01*
X662260Y2997200D01*
X670050Y2999820D01*
X675890Y3005070D01*
X681740Y3012950D01*
X683680Y3023450D01*
Y3075940D01*
G01X723480D02*
Y2997200D01*
X762420D01*
G01X843110Y3069380D02*
X837270Y3073320D01*
X830450Y3075940D01*
X822660D01*
X813900Y3072000D01*
X807090Y3065440D01*
X802220Y3057570D01*
X798320Y3044440D01*
X797350Y3032630D01*
X799300Y3020820D01*
X802220Y3012950D01*
X808060Y3005070D01*
X814870Y2999820D01*
X821690Y2997200D01*
X828510D01*
X835320Y2999820D01*
X841160Y3003760D01*
X846030Y3009010D01*
G01X880960Y3012950D02*
X885830Y3005070D01*
X891670Y2999820D01*
X898480Y2997200D01*
X906270Y2999820D01*
X912110Y3005070D01*
X917960Y3012950D01*
X919900Y3023450D01*
Y3075940D01*
G01X959700D02*
Y2997200D01*
X998640D01*
G01X1079330Y3069380D02*
X1073490Y3073320D01*
X1066670Y3075940D01*
X1058880D01*
X1050120Y3072000D01*
X1043310Y3065440D01*
X1038440Y3057570D01*
X1034540Y3044440D01*
X1033570Y3032630D01*
X1035520Y3020820D01*
X1038440Y3012950D01*
X1044280Y3005070D01*
X1051090Y2999820D01*
X1057910Y2997200D01*
X1064730D01*
X1071540Y2999820D01*
X1077380Y3003760D01*
X1082250Y3009010D01*
G01X1117180Y3012950D02*
X1122050Y3005070D01*
X1127890Y2999820D01*
X1134700Y2997200D01*
X1142490Y2999820D01*
X1148330Y3005070D01*
X1154180Y3012950D01*
X1156120Y3023450D01*
Y3075940D01*
G01X1195920D02*
Y2997200D01*
X1234860D01*
G01X1315550Y3069380D02*
X1309710Y3073320D01*
X1302890Y3075940D01*
X1295100D01*
X1286340Y3072000D01*
X1279530Y3065440D01*
X1274660Y3057570D01*
X1270760Y3044440D01*
X1269790Y3032630D01*
X1271740Y3020820D01*
X1274660Y3012950D01*
X1280500Y3005070D01*
X1287310Y2999820D01*
X1294130Y2997200D01*
X1300950D01*
X1307760Y2999820D01*
X1313600Y3003760D01*
X1318470Y3009010D01*
G01X633010Y4940300D02*
Y5019040D01*
X670010D01*
G01X656380Y4980980D02*
X633010D01*
G01X718570Y5019040D02*
X741930D01*
G01X730250D02*
Y4940300D01*
G01X718570D02*
X741930D01*
G01X788540D02*
X829440Y5019040D01*
G01X788540D02*
X829440Y4940300D01*
G01X869230Y5005920D02*
X875070Y5013790D01*
X881890Y5017730D01*
X889680Y5019040D01*
X899410Y5016420D01*
X906230Y5009850D01*
X908180Y5001980D01*
X907200Y4994100D01*
X903310Y4987540D01*
X883840Y4974420D01*
X875070Y4965230D01*
X869230Y4952110D01*
X867280Y4940300D01*
X908180D01*
G01X1850260Y1001100D02*
X1858050Y994540D01*
X1866820Y990600D01*
X1874600D01*
X1882390Y994540D01*
X1888240Y1001100D01*
X1891160Y1010290D01*
X1889210Y1019470D01*
X1884340Y1027340D01*
X1875580Y1032600D01*
X1863890Y1035220D01*
X1857080Y1040470D01*
X1854160Y1049650D01*
X1856110Y1058840D01*
X1860970Y1065400D01*
X1867790Y1069340D01*
X1874600D01*
X1881420Y1066720D01*
X1887260Y1060150D01*
G01X1920240Y1069340D02*
X1933870Y990600D01*
X1949450Y1069340D01*
X1965030Y990600D01*
X1978660Y1069340D01*
G01X2028190Y990600D02*
Y1069340D01*
X2016510Y1053590D01*
G01Y990600D02*
X2039870D01*
G01X1405760Y1623400D02*
X1413550Y1616840D01*
X1422320Y1612900D01*
X1430100D01*
X1437890Y1616840D01*
X1443740Y1623400D01*
X1446660Y1632590D01*
X1444710Y1641770D01*
X1439840Y1649640D01*
X1431080Y1654900D01*
X1419390Y1657520D01*
X1412580Y1662770D01*
X1409660Y1671950D01*
X1411610Y1681140D01*
X1416470Y1687700D01*
X1423290Y1691640D01*
X1430100D01*
X1436920Y1689020D01*
X1442760Y1682450D01*
G01X1485480Y1612900D02*
Y1691640D01*
X1508840D01*
X1516630Y1687700D01*
X1522480Y1678520D01*
X1524420Y1668020D01*
X1522480Y1657520D01*
X1517610Y1649640D01*
X1508840Y1645710D01*
X1485480D01*
G01X1583690Y1612900D02*
Y1691640D01*
X1572010Y1675890D01*
G01Y1612900D02*
X1595370D01*
G01X1667510Y3416300D02*
X1659720Y3417610D01*
X1652910Y3422860D01*
X1647060Y3430730D01*
X1643170Y3439920D01*
X1641220Y3450420D01*
Y3460920D01*
X1643170Y3471420D01*
X1647060Y3480610D01*
X1652910Y3488480D01*
X1659720Y3493730D01*
X1667510Y3495040D01*
X1675300Y3493730D01*
X1682110Y3488480D01*
X1687960Y3480610D01*
X1691850Y3471420D01*
X1693800Y3460920D01*
Y3450420D01*
X1691850Y3439920D01*
X1687960Y3430730D01*
X1682110Y3422860D01*
X1675300Y3417610D01*
X1667510Y3416300D01*
G01X1675300Y3437300D02*
X1686980Y3416300D01*
G01X1746250Y3413680D02*
X1744300Y3414990D01*
Y3417610D01*
X1746250Y3418920D01*
X1748200Y3417610D01*
Y3414990D01*
X1746250Y3413680D01*
G01X1846410Y3488480D02*
X1840570Y3492420D01*
X1833750Y3495040D01*
X1825960D01*
X1817200Y3491100D01*
X1810390Y3484540D01*
X1805520Y3476670D01*
X1801620Y3463540D01*
X1800650Y3451730D01*
X1802600Y3439920D01*
X1805520Y3432050D01*
X1811360Y3424170D01*
X1818170Y3418920D01*
X1824990Y3416300D01*
X1831810D01*
X1838620Y3418920D01*
X1844460Y3422860D01*
X1849330Y3428110D01*
G01X1903730Y3413680D02*
X1901780Y3414990D01*
Y3417610D01*
X1903730Y3418920D01*
X1905680Y3417610D01*
Y3414990D01*
X1903730Y3413680D01*
G01X1673440Y4889500D02*
Y4968240D01*
X1696800D01*
X1704590Y4964300D01*
X1710440Y4955120D01*
X1712380Y4944620D01*
X1710440Y4934120D01*
X1705570Y4926240D01*
X1696800Y4922310D01*
X1673440D01*
G01X1758020Y4889500D02*
Y4941990D01*
G01Y4931500D02*
X1762890Y4936740D01*
X1767760Y4940680D01*
X1774570Y4941990D01*
X1779440Y4940680D01*
X1785280Y4936740D01*
G01X1850390Y4889500D02*
X1844550Y4890810D01*
X1838710Y4896060D01*
X1834810Y4905250D01*
X1832860Y4915750D01*
X1834810Y4926240D01*
X1838710Y4935430D01*
X1844550Y4940680D01*
X1850390Y4941990D01*
X1856230Y4940680D01*
X1862070Y4935430D01*
X1865970Y4926240D01*
X1866940Y4915750D01*
X1865970Y4905250D01*
X1862070Y4896060D01*
X1856230Y4890810D01*
X1850390Y4889500D01*
G01X1946660Y4968240D02*
Y4889500D01*
G01Y4901310D02*
X1942760Y4894750D01*
X1936920Y4890810D01*
X1930100Y4889500D01*
X1922310Y4892120D01*
X1916470Y4898680D01*
X1912580Y4906560D01*
X1911600Y4915750D01*
X1912580Y4924930D01*
X1916470Y4932810D01*
X1922310Y4939370D01*
X1930100Y4941990D01*
X1936920Y4940680D01*
X1941790Y4938060D01*
X1946660Y4932810D01*
G01X2065190Y4889500D02*
Y4968240D01*
X2084660D01*
X2092450Y4964300D01*
X2098290Y4959050D01*
X2103160Y4951180D01*
X2107060Y4941990D01*
X2108030Y4928870D01*
X2107060Y4915750D01*
X2103160Y4906560D01*
X2098290Y4898680D01*
X2092450Y4893440D01*
X2084660Y4889500D01*
X2065190D01*
G01X2182880D02*
Y4941990D01*
G01Y4932810D02*
X2178980Y4938060D01*
X2173140Y4940680D01*
X2166320Y4941990D01*
X2159510Y4939370D01*
X2153670Y4934120D01*
X2149770Y4926240D01*
X2147820Y4915750D01*
X2149770Y4905250D01*
X2153670Y4897370D01*
X2159510Y4892120D01*
X2166320Y4889500D01*
X2173140Y4890810D01*
X2178980Y4894750D01*
X2182880Y4900000D01*
G01X2244090Y4968240D02*
Y4889500D01*
G01X2230460Y4941990D02*
X2257720D01*
G01X2308230Y4924930D02*
X2339380D01*
X2336460Y4934120D01*
X2331590Y4939370D01*
X2324780Y4941990D01*
X2317960Y4940680D01*
X2312120Y4936740D01*
X2308230Y4927560D01*
X2306280Y4919680D01*
Y4911810D01*
X2308230Y4903930D01*
X2313090Y4896060D01*
X2318940Y4890810D01*
X2325750Y4889500D01*
X2332570Y4892120D01*
X2339380Y4900000D01*
G01X2308440Y1092200D02*
Y1170940D01*
X2332780D01*
X2340570Y1167000D01*
X2345440Y1161750D01*
X2347380Y1151250D01*
X2345440Y1140760D01*
X2339590Y1134200D01*
X2332780Y1130260D01*
X2308440D01*
G01X2332780D02*
X2347380Y1092200D01*
G01X2390100Y1101380D02*
X2396910Y1094820D01*
X2404700Y1092200D01*
X2412490Y1094820D01*
X2419310Y1102700D01*
X2424180Y1114510D01*
X2426120Y1126320D01*
Y1140760D01*
X2424180Y1152570D01*
X2419310Y1163070D01*
X2413470Y1168320D01*
X2406650Y1170940D01*
X2398860Y1168320D01*
X2393020Y1163070D01*
X2389120Y1155190D01*
X2387180Y1144690D01*
X2389120Y1135510D01*
X2393990Y1126320D01*
X2399830Y1121070D01*
X2406650Y1119760D01*
X2414440Y1122380D01*
X2420280Y1128940D01*
X2426120Y1140760D01*
G01X2563130Y1493030D02*
X2555340Y1494340D01*
X2548530Y1499590D01*
X2542680Y1507460D01*
X2538790Y1516650D01*
X2536840Y1527150D01*
Y1537650D01*
X2538790Y1548150D01*
X2542680Y1557340D01*
X2548530Y1565210D01*
X2555340Y1570460D01*
X2563130Y1571770D01*
X2570920Y1570460D01*
X2577730Y1565210D01*
X2583580Y1557340D01*
X2587470Y1548150D01*
X2589420Y1537650D01*
Y1527150D01*
X2587470Y1516650D01*
X2583580Y1507460D01*
X2577730Y1499590D01*
X2570920Y1494340D01*
X2563130Y1493030D01*
G01X2570920Y1514030D02*
X2582600Y1493030D01*
G01X2641870D02*
Y1571770D01*
X2630190Y1556020D01*
G01Y1493030D02*
X2653550D01*
G01X2108200Y1152740D02*
X2029460D01*
Y1177080D01*
X2033400Y1184870D01*
X2038650Y1189740D01*
X2049150Y1191680D01*
X2059640Y1189740D01*
X2066200Y1183890D01*
X2070140Y1177080D01*
Y1152740D01*
G01Y1177080D02*
X2108200Y1191680D01*
G01Y1250950D02*
X2106890Y1257770D01*
X2102950Y1265550D01*
X2096390Y1270420D01*
X2087200Y1272370D01*
X2078020Y1270420D01*
X2070140Y1264580D01*
X2066200Y1255820D01*
Y1246080D01*
X2063580Y1240240D01*
X2057020Y1235370D01*
X2047830Y1233420D01*
X2038650Y1236350D01*
X2032080Y1243160D01*
X2029460Y1250950D01*
X2032080Y1258740D01*
X2038650Y1265550D01*
X2047830Y1268480D01*
X2057020Y1266530D01*
X2063580Y1261660D01*
X2066200Y1255820D01*
Y1246080D01*
X2070140Y1237320D01*
X2078020Y1231480D01*
X2087200Y1229530D01*
X2096390Y1231480D01*
X2102950Y1236350D01*
X2106890Y1244130D01*
X2108200Y1250950D01*
G01X2333840Y1954950D02*
X2353310Y2059940D01*
G01X2372780D02*
X2353310Y1954950D01*
G01X2324100Y1994320D02*
X2382520D01*
G01Y2020570D02*
X2324100D01*
G01X2411600Y1991700D02*
X2419390Y1985140D01*
X2428160Y1981200D01*
X2435940D01*
X2443730Y1985140D01*
X2449580Y1991700D01*
X2452500Y2000890D01*
X2450550Y2010070D01*
X2445680Y2017940D01*
X2436920Y2023200D01*
X2425230Y2025820D01*
X2418420Y2031070D01*
X2415500Y2040250D01*
X2417450Y2049440D01*
X2422310Y2056000D01*
X2429130Y2059940D01*
X2435940D01*
X2442760Y2057320D01*
X2448600Y2050750D01*
G01X2488400Y1981200D02*
Y2059940D01*
X2533180Y1981200D01*
Y2059940D01*
G01X2616200Y2905340D02*
X2537460D01*
Y2929680D01*
X2541400Y2937470D01*
X2546650Y2942340D01*
X2557150Y2944280D01*
X2567640Y2942340D01*
X2574200Y2936490D01*
X2578140Y2929680D01*
Y2905340D01*
G01Y2929680D02*
X2616200Y2944280D01*
G01Y3003550D02*
X2537460D01*
X2553210Y2991870D01*
G01X2616200D02*
Y3015230D01*
G01Y3082290D02*
X2614890Y3089110D01*
X2610950Y3096890D01*
X2604390Y3101760D01*
X2595200Y3103710D01*
X2586020Y3101760D01*
X2578140Y3095920D01*
X2574200Y3087160D01*
Y3077420D01*
X2571580Y3071580D01*
X2565020Y3066710D01*
X2555830Y3064760D01*
X2546650Y3067690D01*
X2540080Y3074500D01*
X2537460Y3082290D01*
X2540080Y3090080D01*
X2546650Y3096890D01*
X2555830Y3099820D01*
X2565020Y3097870D01*
X2571580Y3093000D01*
X2574200Y3087160D01*
Y3077420D01*
X2578140Y3068660D01*
X2586020Y3062820D01*
X2595200Y3060870D01*
X2604390Y3062820D01*
X2610950Y3067690D01*
X2614890Y3075470D01*
X2616200Y3082290D01*
G01Y3293110D02*
X2614890Y3285320D01*
X2609640Y3278510D01*
X2601770Y3272660D01*
X2592580Y3268770D01*
X2582080Y3266820D01*
X2571580D01*
X2561080Y3268770D01*
X2551890Y3272660D01*
X2544020Y3278510D01*
X2538770Y3285320D01*
X2537460Y3293110D01*
X2538770Y3300900D01*
X2544020Y3307710D01*
X2551890Y3313560D01*
X2561080Y3317450D01*
X2571580Y3319400D01*
X2582080D01*
X2592580Y3317450D01*
X2601770Y3313560D01*
X2609640Y3307710D01*
X2614890Y3300900D01*
X2616200Y3293110D01*
G01X2595200Y3300900D02*
X2616200Y3312580D01*
G01X2550580Y3353350D02*
X2542710Y3359190D01*
X2538770Y3366010D01*
X2537460Y3373800D01*
X2540080Y3383530D01*
X2546650Y3390350D01*
X2554520Y3392300D01*
X2562400Y3391320D01*
X2568960Y3387430D01*
X2582080Y3367960D01*
X2591270Y3359190D01*
X2604390Y3353350D01*
X2616200Y3351400D01*
Y3392300D01*
G01X3271690Y101600D02*
Y180340D01*
X3291160D01*
X3298950Y176400D01*
X3304790Y171150D01*
X3309660Y163280D01*
X3313560Y154090D01*
X3314530Y140970D01*
X3313560Y127850D01*
X3309660Y118660D01*
X3304790Y110780D01*
X3298950Y105540D01*
X3291160Y101600D01*
X3271690D01*
G01X3357250Y137030D02*
X3388400D01*
X3385480Y146220D01*
X3380610Y151470D01*
X3373800Y154090D01*
X3366980Y152780D01*
X3361140Y148840D01*
X3357250Y139660D01*
X3355300Y131780D01*
Y123910D01*
X3357250Y116030D01*
X3362110Y108160D01*
X3367960Y102910D01*
X3374770Y101600D01*
X3381590Y104220D01*
X3388400Y112100D01*
G01X3435990Y110780D02*
X3440850Y105540D01*
X3447670Y101600D01*
X3453510D01*
X3459350Y104220D01*
X3463250Y108160D01*
X3465190Y113410D01*
X3464220Y121290D01*
X3460330Y125220D01*
X3442800Y133090D01*
X3438910Y142280D01*
X3440850Y148840D01*
X3444750Y152780D01*
X3450590Y154090D01*
X3456430Y152780D01*
X3462270Y148840D01*
G01X3529330Y154090D02*
Y101600D01*
G01Y175090D02*
X3527380Y176400D01*
Y179030D01*
X3529330Y180340D01*
X3531280Y179030D01*
Y176400D01*
X3529330Y175090D01*
G01X3594440Y81910D02*
X3601250Y76670D01*
X3609040Y75350D01*
X3615860Y76670D01*
X3621700Y83230D01*
X3625600Y92410D01*
Y154090D01*
G01Y143600D02*
X3621700Y148840D01*
X3615860Y152780D01*
X3609040Y154090D01*
X3601250Y151470D01*
X3596390Y146220D01*
X3592490Y137030D01*
X3590540Y127850D01*
X3591520Y119970D01*
X3595410Y110780D01*
X3601250Y104220D01*
X3609040Y101600D01*
X3614890Y102910D01*
X3621700Y108160D01*
X3625600Y113410D01*
G01X3670260Y101600D02*
Y154090D01*
G01Y140970D02*
X3674150Y147530D01*
X3679990Y152780D01*
X3687780Y154090D01*
X3694600Y152780D01*
X3700440Y147530D01*
X3703360Y138340D01*
Y101600D01*
G01X3844290Y98980D02*
X3842340Y100290D01*
Y102910D01*
X3844290Y104220D01*
X3846240Y102910D01*
Y100290D01*
X3844290Y98980D01*
G01Y134410D02*
X3842340Y135720D01*
Y138340D01*
X3844290Y139660D01*
X3846240Y138340D01*
Y135720D01*
X3844290Y134410D01*
G01X3982300Y117350D02*
X3987170Y109470D01*
X3993010Y104220D01*
X3999820Y101600D01*
X4007610Y104220D01*
X4013450Y109470D01*
X4019300Y117350D01*
X4021240Y127850D01*
Y180340D01*
G01X4067850Y127850D02*
X4093170D01*
G01X4140750Y101600D02*
Y180340D01*
X4177750D01*
G01X4164120Y142280D02*
X4140750D01*
G01X4237990Y98980D02*
X4236040Y100290D01*
Y102910D01*
X4237990Y104220D01*
X4239940Y102910D01*
Y100290D01*
X4237990Y98980D01*
G01X4324520Y143600D02*
X4328410Y147530D01*
X4331330Y154090D01*
X4333280Y163280D01*
X4331330Y171150D01*
X4327440Y176400D01*
X4320620Y180340D01*
X4294340D01*
Y101600D01*
X4326470D01*
X4333280Y106850D01*
X4337180Y114720D01*
X4339120Y123910D01*
X4337180Y133090D01*
X4331330Y140970D01*
X4324520Y143600D01*
X4294340D01*
G01X4393520Y87170D02*
X4397420Y104220D01*
G01X4541270Y180340D02*
X4564630D01*
G01X4552950D02*
Y101600D01*
G01X4541270D02*
X4564630D01*
G01X4615140D02*
Y154090D01*
G01Y140970D02*
X4619030Y147530D01*
X4624870Y152780D01*
X4632660Y154090D01*
X4639480Y152780D01*
X4645320Y147530D01*
X4648240Y138340D01*
Y101600D01*
G01X4696800Y81910D02*
X4703610Y76670D01*
X4711400Y75350D01*
X4718220Y76670D01*
X4724060Y83230D01*
X4727960Y92410D01*
Y154090D01*
G01Y143600D02*
X4724060Y148840D01*
X4718220Y152780D01*
X4711400Y154090D01*
X4703610Y151470D01*
X4698750Y146220D01*
X4694850Y137030D01*
X4692900Y127850D01*
X4693880Y119970D01*
X4697770Y110780D01*
X4703610Y104220D01*
X4711400Y101600D01*
X4717250Y102910D01*
X4724060Y108160D01*
X4727960Y113410D01*
G01X4789170Y98980D02*
X4787220Y100290D01*
Y102910D01*
X4789170Y104220D01*
X4791120Y102910D01*
Y100290D01*
X4789170Y98980D01*
G01X3082160Y1001100D02*
X3089950Y994540D01*
X3098720Y990600D01*
X3106500D01*
X3114290Y994540D01*
X3120140Y1001100D01*
X3123060Y1010290D01*
X3121110Y1019470D01*
X3116240Y1027340D01*
X3107480Y1032600D01*
X3095790Y1035220D01*
X3088980Y1040470D01*
X3086060Y1049650D01*
X3088010Y1058840D01*
X3092870Y1065400D01*
X3099690Y1069340D01*
X3106500D01*
X3113320Y1066720D01*
X3119160Y1060150D01*
G01X3152140Y1069340D02*
X3165770Y990600D01*
X3181350Y1069340D01*
X3196930Y990600D01*
X3210560Y1069340D01*
G01X3241590Y1056220D02*
X3247430Y1064090D01*
X3254250Y1068030D01*
X3262040Y1069340D01*
X3271770Y1066720D01*
X3278590Y1060150D01*
X3280540Y1052280D01*
X3279560Y1044400D01*
X3275670Y1037840D01*
X3256200Y1024720D01*
X3247430Y1015530D01*
X3241590Y1002410D01*
X3239640Y990600D01*
X3280540D01*
G01X3185100Y1630540D02*
X3106360D01*
Y1654880D01*
X3110300Y1662670D01*
X3115550Y1667540D01*
X3126050Y1669480D01*
X3136540Y1667540D01*
X3143100Y1661690D01*
X3147040Y1654880D01*
Y1630540D01*
G01Y1654880D02*
X3185100Y1669480D01*
G01Y1706360D02*
X3106360D01*
X3185100Y1751140D01*
X3106360D01*
G01X3185100Y1807490D02*
X3106360D01*
X3122110Y1795810D01*
G01X3185100D02*
Y1819170D01*
G01X3187700Y1368640D02*
X3108960D01*
Y1392980D01*
X3112900Y1400770D01*
X3118150Y1405640D01*
X3128650Y1407580D01*
X3139140Y1405640D01*
X3145700Y1399790D01*
X3149640Y1392980D01*
Y1368640D01*
G01Y1392980D02*
X3187700Y1407580D01*
G01Y1444460D02*
X3108960D01*
X3187700Y1489240D01*
X3108960D01*
G01X3122080Y1527090D02*
X3114210Y1532930D01*
X3110270Y1539750D01*
X3108960Y1547540D01*
X3111580Y1557270D01*
X3118150Y1564090D01*
X3126020Y1566040D01*
X3133900Y1565060D01*
X3140460Y1561170D01*
X3153580Y1541700D01*
X3162770Y1532930D01*
X3175890Y1527090D01*
X3187700Y1525140D01*
Y1566040D01*
G01X2981540Y2362200D02*
Y2440940D01*
X3005880D01*
X3013670Y2437000D01*
X3018540Y2431750D01*
X3020480Y2421250D01*
X3018540Y2410760D01*
X3012690Y2404200D01*
X3005880Y2400260D01*
X2981540D01*
G01X3005880D02*
X3020480Y2362200D01*
G01X3079750D02*
Y2440940D01*
X3068070Y2425190D01*
G01Y2362200D02*
X3091430D01*
G01X3158490Y2440940D02*
X3150700Y2438320D01*
X3144860Y2431750D01*
X3140960Y2423880D01*
X3138040Y2413380D01*
X3137070Y2401570D01*
X3138040Y2389760D01*
X3140960Y2379260D01*
X3144860Y2371380D01*
X3150700Y2364820D01*
X3158490Y2362200D01*
X3166280Y2364820D01*
X3172120Y2371380D01*
X3176020Y2379260D01*
X3178940Y2389760D01*
X3179910Y2401570D01*
X3178940Y2413380D01*
X3176020Y2423880D01*
X3172120Y2431750D01*
X3166280Y2438320D01*
X3158490Y2440940D01*
G01X2974590Y1929130D02*
Y2007870D01*
X2998930D01*
X3006720Y2003930D01*
X3011590Y1998680D01*
X3013530Y1988180D01*
X3011590Y1977690D01*
X3005740Y1971130D01*
X2998930Y1967190D01*
X2974590D01*
G01X2998930D02*
X3013530Y1929130D01*
G01X3054300Y1994750D02*
X3060140Y2002620D01*
X3066960Y2006560D01*
X3074750Y2007870D01*
X3084480Y2005250D01*
X3091300Y1998680D01*
X3093250Y1990810D01*
X3092270Y1982930D01*
X3088380Y1976370D01*
X3068910Y1963250D01*
X3060140Y1954060D01*
X3054300Y1940940D01*
X3052350Y1929130D01*
X3093250D01*
G01X3133040Y1994750D02*
X3138880Y2002620D01*
X3145700Y2006560D01*
X3153490Y2007870D01*
X3163220Y2005250D01*
X3170040Y1998680D01*
X3171990Y1990810D01*
X3171010Y1982930D01*
X3167120Y1976370D01*
X3147650Y1963250D01*
X3138880Y1954060D01*
X3133040Y1940940D01*
X3131090Y1929130D01*
X3171990D01*
G01X3187700Y2092540D02*
X3108960D01*
Y2116880D01*
X3112900Y2124670D01*
X3118150Y2129540D01*
X3128650Y2131480D01*
X3139140Y2129540D01*
X3145700Y2123690D01*
X3149640Y2116880D01*
Y2092540D01*
G01Y2116880D02*
X3187700Y2131480D01*
G01Y2168360D02*
X3108960D01*
X3187700Y2213140D01*
X3108960D01*
G01X3171950Y2248070D02*
X3181140Y2253910D01*
X3186390Y2261700D01*
X3187700Y2270460D01*
X3186390Y2278250D01*
X3179830Y2286040D01*
X3171950Y2290910D01*
X3164080Y2291880D01*
X3154890Y2289940D01*
X3148330Y2283120D01*
X3145700Y2276310D01*
Y2267540D01*
G01Y2276310D02*
X3141770Y2282150D01*
X3135210Y2287020D01*
X3127330Y2288960D01*
X3119460Y2287020D01*
X3112900Y2282150D01*
X3108960Y2273380D01*
X3110270Y2264620D01*
X3115520Y2255860D01*
G01X2816440Y2895600D02*
Y2974340D01*
X2840780D01*
X2848570Y2970400D01*
X2853440Y2965150D01*
X2855380Y2954650D01*
X2853440Y2944160D01*
X2847590Y2937600D01*
X2840780Y2933660D01*
X2816440D01*
G01X2840780D02*
X2855380Y2895600D01*
G01X2914650D02*
Y2974340D01*
X2902970Y2958590D01*
G01Y2895600D02*
X2926330D01*
G01X3005070D02*
Y2974340D01*
X2969050Y2917910D01*
X3017730D01*
G01X3352800Y2905340D02*
X3274060D01*
Y2929680D01*
X3278000Y2937470D01*
X3283250Y2942340D01*
X3293750Y2944280D01*
X3304240Y2942340D01*
X3310800Y2936490D01*
X3314740Y2929680D01*
Y2905340D01*
G01Y2929680D02*
X3352800Y2944280D01*
G01X3287180Y2985050D02*
X3279310Y2990890D01*
X3275370Y2997710D01*
X3274060Y3005500D01*
X3276680Y3015230D01*
X3283250Y3022050D01*
X3291120Y3024000D01*
X3299000Y3023020D01*
X3305560Y3019130D01*
X3318680Y2999660D01*
X3327870Y2990890D01*
X3340990Y2985050D01*
X3352800Y2983100D01*
Y3024000D01*
G01X3274060Y3082290D02*
X3276680Y3074500D01*
X3283250Y3068660D01*
X3291120Y3064760D01*
X3301620Y3061840D01*
X3313430Y3060870D01*
X3325240Y3061840D01*
X3335740Y3064760D01*
X3343620Y3068660D01*
X3350180Y3074500D01*
X3352800Y3082290D01*
X3350180Y3090080D01*
X3343620Y3095920D01*
X3335740Y3099820D01*
X3325240Y3102740D01*
X3313430Y3103710D01*
X3301620Y3102740D01*
X3291120Y3099820D01*
X3283250Y3095920D01*
X3276680Y3090080D01*
X3274060Y3082290D01*
G01X3352800Y3292310D02*
X3351490Y3284520D01*
X3346240Y3277710D01*
X3338370Y3271860D01*
X3329180Y3267970D01*
X3318680Y3266020D01*
X3308180D01*
X3297680Y3267970D01*
X3288490Y3271860D01*
X3280620Y3277710D01*
X3275370Y3284520D01*
X3274060Y3292310D01*
X3275370Y3300100D01*
X3280620Y3306910D01*
X3288490Y3312760D01*
X3297680Y3316650D01*
X3308180Y3318600D01*
X3318680D01*
X3329180Y3316650D01*
X3338370Y3312760D01*
X3346240Y3306910D01*
X3351490Y3300100D01*
X3352800Y3292310D01*
G01X3331800Y3300100D02*
X3352800Y3311780D01*
G01X3337050Y3349630D02*
X3346240Y3355470D01*
X3351490Y3363260D01*
X3352800Y3372020D01*
X3351490Y3379810D01*
X3344930Y3387600D01*
X3337050Y3392470D01*
X3329180Y3393440D01*
X3319990Y3391500D01*
X3313430Y3384680D01*
X3310800Y3377870D01*
Y3369100D01*
G01Y3377870D02*
X3306870Y3383710D01*
X3300310Y3388580D01*
X3292430Y3390520D01*
X3284560Y3388580D01*
X3278000Y3383710D01*
X3274060Y3374940D01*
X3275370Y3366180D01*
X3280620Y3357420D01*
G01X3652690Y368300D02*
Y447040D01*
X3672160D01*
X3679950Y443100D01*
X3685790Y437850D01*
X3690660Y429980D01*
X3694560Y420790D01*
X3695530Y407670D01*
X3694560Y394550D01*
X3690660Y385360D01*
X3685790Y377480D01*
X3679950Y372240D01*
X3672160Y368300D01*
X3652690D01*
G01X3752850D02*
Y447040D01*
X3741170Y431290D01*
G01Y368300D02*
X3764530D01*
G01X3831590Y447040D02*
X3823800Y444420D01*
X3817960Y437850D01*
X3814060Y429980D01*
X3811140Y419480D01*
X3810170Y407670D01*
X3811140Y395860D01*
X3814060Y385360D01*
X3817960Y377480D01*
X3823800Y370920D01*
X3831590Y368300D01*
X3839380Y370920D01*
X3845220Y377480D01*
X3849120Y385360D01*
X3852040Y395860D01*
X3853010Y407670D01*
X3852040Y419480D01*
X3849120Y429980D01*
X3845220Y437850D01*
X3839380Y444420D01*
X3831590Y447040D01*
G01X3750310Y1028700D02*
Y1107440D01*
X3738630Y1091690D01*
G01Y1028700D02*
X3761990D01*
G01X3829050Y1107440D02*
X3821260Y1104820D01*
X3815420Y1098250D01*
X3811520Y1090380D01*
X3808600Y1079880D01*
X3807630Y1068070D01*
X3808600Y1056260D01*
X3811520Y1045760D01*
X3815420Y1037880D01*
X3821260Y1031320D01*
X3829050Y1028700D01*
X3836840Y1031320D01*
X3842680Y1037880D01*
X3846580Y1045760D01*
X3849500Y1056260D01*
X3850470Y1068070D01*
X3849500Y1079880D01*
X3846580Y1090380D01*
X3842680Y1098250D01*
X3836840Y1104820D01*
X3829050Y1107440D01*
G01X3895130Y1054950D02*
X3920450D01*
G01X3968030Y1094320D02*
X3973870Y1102190D01*
X3980690Y1106130D01*
X3988480Y1107440D01*
X3998210Y1104820D01*
X4005030Y1098250D01*
X4006980Y1090380D01*
X4006000Y1082500D01*
X4002110Y1075940D01*
X3982640Y1062820D01*
X3973870Y1053630D01*
X3968030Y1040510D01*
X3966080Y1028700D01*
X4006980D01*
G01X4065270Y1107440D02*
X4057480Y1104820D01*
X4051640Y1098250D01*
X4047740Y1090380D01*
X4044820Y1079880D01*
X4043850Y1068070D01*
X4044820Y1056260D01*
X4047740Y1045760D01*
X4051640Y1037880D01*
X4057480Y1031320D01*
X4065270Y1028700D01*
X4073060Y1031320D01*
X4078900Y1037880D01*
X4082800Y1045760D01*
X4085720Y1056260D01*
X4086690Y1068070D01*
X4085720Y1079880D01*
X4082800Y1090380D01*
X4078900Y1098250D01*
X4073060Y1104820D01*
X4065270Y1107440D01*
G01X4125510Y1094320D02*
X4131350Y1102190D01*
X4138170Y1106130D01*
X4145960Y1107440D01*
X4155690Y1104820D01*
X4162510Y1098250D01*
X4164460Y1090380D01*
X4163480Y1082500D01*
X4159590Y1075940D01*
X4140120Y1062820D01*
X4131350Y1053630D01*
X4125510Y1040510D01*
X4123560Y1028700D01*
X4164460D01*
G01X4204250Y1094320D02*
X4210090Y1102190D01*
X4216910Y1106130D01*
X4224700Y1107440D01*
X4234430Y1104820D01*
X4241250Y1098250D01*
X4243200Y1090380D01*
X4242220Y1082500D01*
X4238330Y1075940D01*
X4218860Y1062820D01*
X4210090Y1053630D01*
X4204250Y1040510D01*
X4202300Y1028700D01*
X4243200D01*
G01X3514940Y1168400D02*
Y1247140D01*
X3539280D01*
X3547070Y1243200D01*
X3551940Y1237950D01*
X3553880Y1227450D01*
X3551940Y1216960D01*
X3546090Y1210400D01*
X3539280Y1206460D01*
X3514940D01*
G01X3539280D02*
X3553880Y1168400D01*
G01X3598550Y1203830D02*
X3629700D01*
X3626780Y1213020D01*
X3621910Y1218270D01*
X3615100Y1220890D01*
X3608280Y1219580D01*
X3602440Y1215640D01*
X3598550Y1206460D01*
X3596600Y1198580D01*
Y1190710D01*
X3598550Y1182830D01*
X3603410Y1174960D01*
X3609260Y1169710D01*
X3616070Y1168400D01*
X3622890Y1171020D01*
X3629700Y1178900D01*
G01X3674360Y1220890D02*
X3691890Y1168400D01*
X3709420Y1220890D01*
G01X3849370Y1165780D02*
X3847420Y1167090D01*
Y1169710D01*
X3849370Y1171020D01*
X3851320Y1169710D01*
Y1167090D01*
X3849370Y1165780D01*
G01Y1201210D02*
X3847420Y1202520D01*
Y1205140D01*
X3849370Y1206460D01*
X3851320Y1205140D01*
Y1202520D01*
X3849370Y1201210D01*
G01X4006850Y1168400D02*
Y1247140D01*
X3995170Y1231390D01*
G01Y1168400D02*
X4018530D01*
G01X4085590Y1165780D02*
X4083640Y1167090D01*
Y1169710D01*
X4085590Y1171020D01*
X4087540Y1169710D01*
Y1167090D01*
X4085590Y1165780D01*
G01X4164330Y1247140D02*
X4156540Y1244520D01*
X4150700Y1237950D01*
X4146800Y1230080D01*
X4143880Y1219580D01*
X4142910Y1207770D01*
X4143880Y1195960D01*
X4146800Y1185460D01*
X4150700Y1177580D01*
X4156540Y1171020D01*
X4164330Y1168400D01*
X4172120Y1171020D01*
X4177960Y1177580D01*
X4181860Y1185460D01*
X4184780Y1195960D01*
X4185750Y1207770D01*
X4184780Y1219580D01*
X4181860Y1230080D01*
X4177960Y1237950D01*
X4172120Y1244520D01*
X4164330Y1247140D01*
G01X4243070D02*
X4235280Y1244520D01*
X4229440Y1237950D01*
X4225540Y1230080D01*
X4222620Y1219580D01*
X4221650Y1207770D01*
X4222620Y1195960D01*
X4225540Y1185460D01*
X4229440Y1177580D01*
X4235280Y1171020D01*
X4243070Y1168400D01*
X4250860Y1171020D01*
X4256700Y1177580D01*
X4260600Y1185460D01*
X4263520Y1195960D01*
X4264490Y1207770D01*
X4263520Y1219580D01*
X4260600Y1230080D01*
X4256700Y1237950D01*
X4250860Y1244520D01*
X4243070Y1247140D01*
G01X4309150Y1194650D02*
X4334470D01*
G01X4400550Y1247140D02*
X4392760Y1244520D01*
X4386920Y1237950D01*
X4383020Y1230080D01*
X4380100Y1219580D01*
X4379130Y1207770D01*
X4380100Y1195960D01*
X4383020Y1185460D01*
X4386920Y1177580D01*
X4392760Y1171020D01*
X4400550Y1168400D01*
X4408340Y1171020D01*
X4414180Y1177580D01*
X4418080Y1185460D01*
X4421000Y1195960D01*
X4421970Y1207770D01*
X4421000Y1219580D01*
X4418080Y1230080D01*
X4414180Y1237950D01*
X4408340Y1244520D01*
X4400550Y1247140D01*
G01X4496820Y1168400D02*
Y1220890D01*
G01Y1211710D02*
X4492920Y1216960D01*
X4487080Y1219580D01*
X4480260Y1220890D01*
X4473450Y1218270D01*
X4467610Y1213020D01*
X4463710Y1205140D01*
X4461760Y1194650D01*
X4463710Y1184150D01*
X4467610Y1176270D01*
X4473450Y1171020D01*
X4480260Y1168400D01*
X4487080Y1169710D01*
X4492920Y1173650D01*
X4496820Y1178900D01*
G01X3926390Y1354940D02*
Y1298510D01*
X3930280Y1286700D01*
X3938070Y1278820D01*
X3947810Y1276200D01*
X3957550Y1278820D01*
X3965340Y1286700D01*
X3969230Y1298510D01*
Y1354940D01*
G01X4038230Y1276200D02*
Y1354940D01*
X4002210Y1298510D01*
X4050890D01*
G01X3553040Y2895600D02*
Y2974340D01*
X3577380D01*
X3585170Y2970400D01*
X3590040Y2965150D01*
X3591980Y2954650D01*
X3590040Y2944160D01*
X3584190Y2937600D01*
X3577380Y2933660D01*
X3553040D01*
G01X3577380D02*
X3591980Y2895600D01*
G01X3651250D02*
Y2974340D01*
X3639570Y2958590D01*
G01Y2895600D02*
X3662930D01*
G01X3708570Y2907410D02*
X3714410Y2900850D01*
X3721230Y2896910D01*
X3729990Y2895600D01*
X3738750Y2898220D01*
X3745570Y2903470D01*
X3750440Y2912660D01*
X3751410Y2923160D01*
X3749460Y2933660D01*
X3744590Y2940220D01*
X3737780Y2945470D01*
X3730960Y2946780D01*
X3724150Y2945470D01*
X3715390Y2940220D01*
X3718310Y2974340D01*
X3744590D01*
G01X4025900Y4173390D02*
X3947160D01*
Y4192860D01*
X3951100Y4200650D01*
X3956350Y4206490D01*
X3964220Y4211360D01*
X3973410Y4215260D01*
X3986530Y4216230D01*
X3999650Y4215260D01*
X4008840Y4211360D01*
X4016720Y4206490D01*
X4021960Y4200650D01*
X4025900Y4192860D01*
Y4173390D01*
G01Y4273550D02*
X4024590Y4280370D01*
X4020650Y4288150D01*
X4014090Y4293020D01*
X4004900Y4294970D01*
X3995720Y4293020D01*
X3987840Y4287180D01*
X3983900Y4278420D01*
Y4268680D01*
X3981280Y4262840D01*
X3974720Y4257970D01*
X3965530Y4256020D01*
X3956350Y4258950D01*
X3949780Y4265760D01*
X3947160Y4273550D01*
X3949780Y4281340D01*
X3956350Y4288150D01*
X3965530Y4291080D01*
X3974720Y4289130D01*
X3981280Y4284260D01*
X3983900Y4278420D01*
Y4268680D01*
X3987840Y4259920D01*
X3995720Y4254080D01*
X4004900Y4252130D01*
X4014090Y4254080D01*
X4020650Y4258950D01*
X4024590Y4266730D01*
X4025900Y4273550D01*
G01X4326760Y1001100D02*
X4334550Y994540D01*
X4343320Y990600D01*
X4351100D01*
X4358890Y994540D01*
X4364740Y1001100D01*
X4367660Y1010290D01*
X4365710Y1019470D01*
X4360840Y1027340D01*
X4352080Y1032600D01*
X4340390Y1035220D01*
X4333580Y1040470D01*
X4330660Y1049650D01*
X4332610Y1058840D01*
X4337470Y1065400D01*
X4344290Y1069340D01*
X4351100D01*
X4357920Y1066720D01*
X4363760Y1060150D01*
G01X4396740Y1069340D02*
X4410370Y990600D01*
X4425950Y1069340D01*
X4441530Y990600D01*
X4455160Y1069340D01*
G01X4483270Y1006350D02*
X4489110Y997160D01*
X4496900Y991910D01*
X4505660Y990600D01*
X4513450Y991910D01*
X4521240Y998470D01*
X4526110Y1006350D01*
X4527080Y1014220D01*
X4525140Y1023410D01*
X4518320Y1029970D01*
X4511510Y1032600D01*
X4502740D01*
G01X4511510D02*
X4517350Y1036530D01*
X4522220Y1043090D01*
X4524160Y1050970D01*
X4522220Y1058840D01*
X4517350Y1065400D01*
X4508580Y1069340D01*
X4499820Y1068030D01*
X4491060Y1062780D01*
G01X4550620Y1739730D02*
X4546680Y1733890D01*
X4544060Y1727070D01*
Y1719280D01*
X4548000Y1710520D01*
X4554560Y1703710D01*
X4562430Y1698840D01*
X4575560Y1694940D01*
X4587370Y1693970D01*
X4599180Y1695920D01*
X4607050Y1698840D01*
X4614930Y1704680D01*
X4620180Y1711490D01*
X4622800Y1718310D01*
Y1725130D01*
X4620180Y1731940D01*
X4616240Y1737780D01*
X4610990Y1742650D01*
G01X4613620Y1780500D02*
X4620180Y1787310D01*
X4622800Y1795100D01*
X4620180Y1802890D01*
X4612300Y1809710D01*
X4600490Y1814580D01*
X4588680Y1816520D01*
X4574240D01*
X4562430Y1814580D01*
X4551930Y1809710D01*
X4546680Y1803870D01*
X4544060Y1797050D01*
X4546680Y1789260D01*
X4551930Y1783420D01*
X4559810Y1779520D01*
X4570310Y1777580D01*
X4579490Y1779520D01*
X4588680Y1784390D01*
X4593930Y1790230D01*
X4595240Y1797050D01*
X4592620Y1804840D01*
X4586060Y1810680D01*
X4574240Y1816520D01*
G01X4741120Y2362030D02*
X4737180Y2356190D01*
X4734560Y2349370D01*
Y2341580D01*
X4738500Y2332820D01*
X4745060Y2326010D01*
X4752930Y2321140D01*
X4766060Y2317240D01*
X4777870Y2316270D01*
X4789680Y2318220D01*
X4797550Y2321140D01*
X4805430Y2326980D01*
X4810680Y2333790D01*
X4813300Y2340610D01*
Y2347430D01*
X4810680Y2354240D01*
X4806740Y2360080D01*
X4801490Y2364950D01*
G01X4813300Y2431030D02*
X4734560D01*
X4790990Y2395010D01*
Y2443690D01*
G01X4499820Y2450930D02*
X4495880Y2445090D01*
X4493260Y2438270D01*
Y2430480D01*
X4497200Y2421720D01*
X4503760Y2414910D01*
X4511630Y2410040D01*
X4524760Y2406140D01*
X4536570Y2405170D01*
X4548380Y2407120D01*
X4556250Y2410040D01*
X4564130Y2415880D01*
X4569380Y2422690D01*
X4572000Y2429510D01*
Y2436330D01*
X4569380Y2443140D01*
X4565440Y2448980D01*
X4560190Y2453850D01*
G01X4572000Y2508250D02*
X4493260D01*
X4509010Y2496570D01*
G01X4572000D02*
Y2519930D01*
G01X4493260Y2586990D02*
X4495880Y2579200D01*
X4502450Y2573360D01*
X4510320Y2569460D01*
X4520820Y2566540D01*
X4532630Y2565570D01*
X4544440Y2566540D01*
X4554940Y2569460D01*
X4562820Y2573360D01*
X4569380Y2579200D01*
X4572000Y2586990D01*
X4569380Y2594780D01*
X4562820Y2600620D01*
X4554940Y2604520D01*
X4544440Y2607440D01*
X4532630Y2608410D01*
X4520820Y2607440D01*
X4510320Y2604520D01*
X4502450Y2600620D01*
X4495880Y2594780D01*
X4493260Y2586990D01*
G01X4429340Y2895600D02*
Y2974340D01*
X4453680D01*
X4461470Y2970400D01*
X4466340Y2965150D01*
X4468280Y2954650D01*
X4466340Y2944160D01*
X4460490Y2937600D01*
X4453680Y2933660D01*
X4429340D01*
G01X4453680D02*
X4468280Y2895600D01*
G01X4527550D02*
Y2974340D01*
X4515870Y2958590D01*
G01Y2895600D02*
X4539230D01*
G01X4587790Y2928410D02*
X4594610Y2937600D01*
X4600450Y2942840D01*
X4608240Y2945470D01*
X4615050Y2942840D01*
X4619920Y2937600D01*
X4623820Y2929720D01*
X4624790Y2920530D01*
X4623820Y2912660D01*
X4619920Y2904780D01*
X4614080Y2898220D01*
X4607260Y2895600D01*
X4599470Y2898220D01*
X4592660Y2906100D01*
X4588760Y2917910D01*
X4587790Y2931030D01*
X4589740Y2948090D01*
X4592660Y2957280D01*
X4597530Y2966470D01*
X4604340Y2973030D01*
X4611160Y2974340D01*
X4617970Y2971720D01*
X4622840Y2965150D01*
G01X4229100Y2905340D02*
X4150360D01*
Y2929680D01*
X4154300Y2937470D01*
X4159550Y2942340D01*
X4170050Y2944280D01*
X4180540Y2942340D01*
X4187100Y2936490D01*
X4191040Y2929680D01*
Y2905340D01*
G01Y2929680D02*
X4229100Y2944280D01*
G01Y3003550D02*
X4150360D01*
X4166110Y2991870D01*
G01X4229100D02*
Y3015230D01*
G01X4219920Y3065740D02*
X4226480Y3072550D01*
X4229100Y3080340D01*
X4226480Y3088130D01*
X4218600Y3094950D01*
X4206790Y3099820D01*
X4194980Y3101760D01*
X4180540D01*
X4168730Y3099820D01*
X4158230Y3094950D01*
X4152980Y3089110D01*
X4150360Y3082290D01*
X4152980Y3074500D01*
X4158230Y3068660D01*
X4166110Y3064760D01*
X4176610Y3062820D01*
X4185790Y3064760D01*
X4194980Y3069630D01*
X4200230Y3075470D01*
X4201540Y3082290D01*
X4198920Y3090080D01*
X4192360Y3095920D01*
X4180540Y3101760D01*
G01X4734140Y2641600D02*
Y2720340D01*
X4758480D01*
X4766270Y2716400D01*
X4771140Y2711150D01*
X4773080Y2700650D01*
X4771140Y2690160D01*
X4765290Y2683600D01*
X4758480Y2679660D01*
X4734140D01*
G01X4758480D02*
X4773080Y2641600D01*
G01X4813850Y2707220D02*
X4819690Y2715090D01*
X4826510Y2719030D01*
X4834300Y2720340D01*
X4844030Y2717720D01*
X4850850Y2711150D01*
X4852800Y2703280D01*
X4851820Y2695400D01*
X4847930Y2688840D01*
X4828460Y2675720D01*
X4819690Y2666530D01*
X4813850Y2653410D01*
X4811900Y2641600D01*
X4852800D01*
G01X4889670Y2657350D02*
X4895510Y2648160D01*
X4903300Y2642910D01*
X4912060Y2641600D01*
X4919850Y2642910D01*
X4927640Y2649470D01*
X4932510Y2657350D01*
X4933480Y2665220D01*
X4931540Y2674410D01*
X4924720Y2680970D01*
X4917910Y2683600D01*
X4909140D01*
G01X4917910D02*
X4923750Y2687530D01*
X4928620Y2694090D01*
X4930560Y2701970D01*
X4928620Y2709840D01*
X4923750Y2716400D01*
X4914980Y2720340D01*
X4906220Y2719030D01*
X4897460Y2713780D01*
G01X4229100Y3293110D02*
X4227790Y3285320D01*
X4222540Y3278510D01*
X4214670Y3272660D01*
X4205480Y3268770D01*
X4194980Y3266820D01*
X4184480D01*
X4173980Y3268770D01*
X4164790Y3272660D01*
X4156920Y3278510D01*
X4151670Y3285320D01*
X4150360Y3293110D01*
X4151670Y3300900D01*
X4156920Y3307710D01*
X4164790Y3313560D01*
X4173980Y3317450D01*
X4184480Y3319400D01*
X4194980D01*
X4205480Y3317450D01*
X4214670Y3313560D01*
X4222540Y3307710D01*
X4227790Y3300900D01*
X4229100Y3293110D01*
G01X4208100Y3300900D02*
X4229100Y3312580D01*
G01Y3383530D02*
X4150360D01*
X4206790Y3347510D01*
Y3396190D01*
G01X4775440Y1873900D02*
Y1952640D01*
X4799780D01*
X4807570Y1948700D01*
X4812440Y1943450D01*
X4814380Y1932950D01*
X4812440Y1922460D01*
X4806590Y1915900D01*
X4799780Y1911960D01*
X4775440D01*
G01X4799780D02*
X4814380Y1873900D01*
G01X4873650D02*
Y1952640D01*
X4861970Y1936890D01*
G01Y1873900D02*
X4885330D01*
G01X4933890Y1939520D02*
X4939730Y1947390D01*
X4946550Y1951330D01*
X4954340Y1952640D01*
X4964070Y1950020D01*
X4970890Y1943450D01*
X4972840Y1935580D01*
X4971860Y1927700D01*
X4967970Y1921140D01*
X4948500Y1908020D01*
X4939730Y1898830D01*
X4933890Y1885710D01*
X4931940Y1873900D01*
X4972840D01*
G01X4797640Y2133600D02*
Y2212340D01*
X4821980D01*
X4829770Y2208400D01*
X4834640Y2203150D01*
X4836580Y2192650D01*
X4834640Y2182160D01*
X4828790Y2175600D01*
X4821980Y2171660D01*
X4797640D01*
G01X4821980D02*
X4836580Y2133600D01*
G01X4895850D02*
Y2212340D01*
X4884170Y2196590D01*
G01Y2133600D02*
X4907530D01*
G01X4953170Y2149350D02*
X4959010Y2140160D01*
X4966800Y2134910D01*
X4975560Y2133600D01*
X4983350Y2134910D01*
X4991140Y2141470D01*
X4996010Y2149350D01*
X4996980Y2157220D01*
X4995040Y2166410D01*
X4988220Y2172970D01*
X4981410Y2175600D01*
X4972640D01*
G01X4981410D02*
X4987250Y2179530D01*
X4992120Y2186090D01*
X4994060Y2193970D01*
X4992120Y2201840D01*
X4987250Y2208400D01*
X4978480Y2212340D01*
X4969720Y2211030D01*
X4960960Y2205780D01*
G01X5151290Y2237740D02*
Y2181310D01*
X5155180Y2169500D01*
X5162970Y2161620D01*
X5172710Y2159000D01*
X5182450Y2161620D01*
X5190240Y2169500D01*
X5194130Y2181310D01*
Y2237740D01*
G01X5232950Y2224620D02*
X5238790Y2232490D01*
X5245610Y2236430D01*
X5253400Y2237740D01*
X5263130Y2235120D01*
X5269950Y2228550D01*
X5271900Y2220680D01*
X5270920Y2212800D01*
X5267030Y2206240D01*
X5247560Y2193120D01*
X5238790Y2183930D01*
X5232950Y2170810D01*
X5231000Y2159000D01*
X5271900D01*
G01X5130630Y2726480D02*
X5124790Y2730420D01*
X5117970Y2733040D01*
X5110180D01*
X5101420Y2729100D01*
X5094610Y2722540D01*
X5089740Y2714670D01*
X5085840Y2701540D01*
X5084870Y2689730D01*
X5086820Y2677920D01*
X5089740Y2670050D01*
X5095580Y2662170D01*
X5102390Y2656920D01*
X5109210Y2654300D01*
X5116030D01*
X5122840Y2656920D01*
X5128680Y2660860D01*
X5133550Y2666110D01*
G01X5187950Y2654300D02*
X5194770Y2655610D01*
X5202550Y2659550D01*
X5207420Y2666110D01*
X5209370Y2675300D01*
X5207420Y2684480D01*
X5201580Y2692360D01*
X5192820Y2696300D01*
X5183080D01*
X5177240Y2698920D01*
X5172370Y2705480D01*
X5170420Y2714670D01*
X5173350Y2723850D01*
X5180160Y2730420D01*
X5187950Y2733040D01*
X5195740Y2730420D01*
X5202550Y2723850D01*
X5205480Y2714670D01*
X5203530Y2705480D01*
X5198660Y2698920D01*
X5192820Y2696300D01*
X5183080D01*
X5174320Y2692360D01*
X5168480Y2684480D01*
X5166530Y2675300D01*
X5168480Y2666110D01*
X5173350Y2659550D01*
X5181130Y2655610D01*
X5187950Y2654300D01*
G01X5089740Y2794000D02*
Y2872740D01*
X5114080D01*
X5121870Y2868800D01*
X5126740Y2863550D01*
X5128680Y2853050D01*
X5126740Y2842560D01*
X5120890Y2836000D01*
X5114080Y2832060D01*
X5089740D01*
G01X5114080D02*
X5128680Y2794000D01*
G01X5186000D02*
X5187950Y2811060D01*
X5190870Y2825490D01*
X5194770Y2838620D01*
X5199630Y2853050D01*
X5207420Y2872740D01*
X5168480D01*
G01X5378980Y3092980D02*
X5323310Y3148660D01*
X5340520Y3165870D01*
X5348810Y3168600D01*
X5355970Y3168330D01*
X5364770Y3162280D01*
X5370810Y3153480D01*
X5371320Y3144710D01*
X5369290Y3137110D01*
X5352070Y3119890D01*
G01X5369290Y3137110D02*
X5406520Y3120520D01*
G01X5448430Y3162430D02*
X5392760Y3218110D01*
X5395630Y3198720D01*
G01X5440170Y3154170D02*
X5456700Y3170700D01*
G01X5502740Y3216740D02*
X5492050Y3230180D01*
X5483910Y3242450D01*
X5477380Y3254480D01*
X5470620Y3268130D01*
X5462210Y3287560D01*
X5434670Y3260020D01*
G01X4965700Y2905340D02*
X4886960D01*
Y2929680D01*
X4890900Y2937470D01*
X4896150Y2942340D01*
X4906650Y2944280D01*
X4917140Y2942340D01*
X4923700Y2936490D01*
X4927640Y2929680D01*
Y2905340D01*
G01Y2929680D02*
X4965700Y2944280D01*
G01X4900080Y2985050D02*
X4892210Y2990890D01*
X4888270Y2997710D01*
X4886960Y3005500D01*
X4889580Y3015230D01*
X4896150Y3022050D01*
X4904020Y3024000D01*
X4911900Y3023020D01*
X4918460Y3019130D01*
X4931580Y2999660D01*
X4940770Y2990890D01*
X4953890Y2985050D01*
X4965700Y2983100D01*
Y3024000D01*
G01Y3082290D02*
X4886960D01*
X4902710Y3070610D01*
G01X4965700D02*
Y3093970D01*
G01Y3293110D02*
X4964390Y3285320D01*
X4959140Y3278510D01*
X4951270Y3272660D01*
X4942080Y3268770D01*
X4931580Y3266820D01*
X4921080D01*
X4910580Y3268770D01*
X4901390Y3272660D01*
X4893520Y3278510D01*
X4888270Y3285320D01*
X4886960Y3293110D01*
X4888270Y3300900D01*
X4893520Y3307710D01*
X4901390Y3313560D01*
X4910580Y3317450D01*
X4921080Y3319400D01*
X4931580D01*
X4942080Y3317450D01*
X4951270Y3313560D01*
X4959140Y3307710D01*
X4964390Y3300900D01*
X4965700Y3293110D01*
G01X4944700Y3300900D02*
X4965700Y3312580D01*
G01X4953890Y3350430D02*
X4960450Y3356270D01*
X4964390Y3363090D01*
X4965700Y3371850D01*
X4963080Y3380610D01*
X4957830Y3387430D01*
X4948640Y3392300D01*
X4938140Y3393270D01*
X4927640Y3391320D01*
X4921080Y3386450D01*
X4915830Y3379640D01*
X4914520Y3372820D01*
X4915830Y3366010D01*
X4921080Y3357250D01*
X4886960Y3360170D01*
Y3386450D01*
G01X5558660Y1001100D02*
X5566450Y994540D01*
X5575220Y990600D01*
X5583000D01*
X5590790Y994540D01*
X5596640Y1001100D01*
X5599560Y1010290D01*
X5597610Y1019470D01*
X5592740Y1027340D01*
X5583980Y1032600D01*
X5572290Y1035220D01*
X5565480Y1040470D01*
X5562560Y1049650D01*
X5564510Y1058840D01*
X5569370Y1065400D01*
X5576190Y1069340D01*
X5583000D01*
X5589820Y1066720D01*
X5595660Y1060150D01*
G01X5628640Y1069340D02*
X5642270Y990600D01*
X5657850Y1069340D01*
X5673430Y990600D01*
X5687060Y1069340D01*
G01X5748270Y990600D02*
Y1069340D01*
X5712250Y1012910D01*
X5760930D01*
G01X5532290Y2044700D02*
Y2123440D01*
X5551760D01*
X5559550Y2119500D01*
X5565390Y2114250D01*
X5570260Y2106380D01*
X5574160Y2097190D01*
X5575130Y2084070D01*
X5574160Y2070950D01*
X5570260Y2061760D01*
X5565390Y2053880D01*
X5559550Y2048640D01*
X5551760Y2044700D01*
X5532290D01*
G01X5613950Y2077510D02*
X5620770Y2086700D01*
X5626610Y2091940D01*
X5634400Y2094570D01*
X5641210Y2091940D01*
X5646080Y2086700D01*
X5649980Y2078820D01*
X5650950Y2069630D01*
X5649980Y2061760D01*
X5646080Y2053880D01*
X5640240Y2047320D01*
X5633420Y2044700D01*
X5625630Y2047320D01*
X5618820Y2055200D01*
X5614920Y2067010D01*
X5613950Y2080130D01*
X5615900Y2097190D01*
X5618820Y2106380D01*
X5623690Y2115570D01*
X5630500Y2122130D01*
X5637320Y2123440D01*
X5644130Y2120820D01*
X5649000Y2114250D01*
G01X5911260Y2467790D02*
X5967690D01*
X5979500Y2471680D01*
X5987380Y2479470D01*
X5990000Y2489210D01*
X5987380Y2498950D01*
X5979500Y2506740D01*
X5967690Y2510630D01*
X5911260D01*
G01X5974250Y2546530D02*
X5983440Y2552370D01*
X5988690Y2560160D01*
X5990000Y2568920D01*
X5988690Y2576710D01*
X5982130Y2584500D01*
X5974250Y2589370D01*
X5966380Y2590340D01*
X5957190Y2588400D01*
X5950630Y2581580D01*
X5948000Y2574770D01*
Y2566000D01*
G01Y2574770D02*
X5944070Y2580610D01*
X5937510Y2585480D01*
X5929630Y2587420D01*
X5921760Y2585480D01*
X5915200Y2580610D01*
X5911260Y2571840D01*
X5912570Y2563080D01*
X5917820Y2554320D01*
G01X5795220Y2704930D02*
X5791280Y2699090D01*
X5788660Y2692270D01*
Y2684480D01*
X5792600Y2675720D01*
X5799160Y2668910D01*
X5807030Y2664040D01*
X5820160Y2660140D01*
X5831970Y2659170D01*
X5843780Y2661120D01*
X5851650Y2664040D01*
X5859530Y2669880D01*
X5864780Y2676690D01*
X5867400Y2683510D01*
Y2690330D01*
X5864780Y2697140D01*
X5860840Y2702980D01*
X5855590Y2707850D01*
G01X5801780Y2743750D02*
X5793910Y2749590D01*
X5789970Y2756410D01*
X5788660Y2764200D01*
X5791280Y2773930D01*
X5797850Y2780750D01*
X5805720Y2782700D01*
X5813600Y2781720D01*
X5820160Y2777830D01*
X5833280Y2758360D01*
X5842470Y2749590D01*
X5855590Y2743750D01*
X5867400Y2741800D01*
Y2782700D01*
G01X5900590Y2705100D02*
Y2783840D01*
X5920060D01*
X5927850Y2779900D01*
X5933690Y2774650D01*
X5938560Y2766780D01*
X5942460Y2757590D01*
X5943430Y2744470D01*
X5942460Y2731350D01*
X5938560Y2722160D01*
X5933690Y2714280D01*
X5927850Y2709040D01*
X5920060Y2705100D01*
X5900590D01*
G01X6012430D02*
Y2783840D01*
X5976410Y2727410D01*
X6025090D01*
G01X5651330Y3971080D02*
X5645490Y3975020D01*
X5638670Y3977640D01*
X5630880D01*
X5622120Y3973700D01*
X5615310Y3967140D01*
X5610440Y3959270D01*
X5606540Y3946140D01*
X5605570Y3934330D01*
X5607520Y3922520D01*
X5610440Y3914650D01*
X5616280Y3906770D01*
X5623090Y3901520D01*
X5629910Y3898900D01*
X5636730D01*
X5643540Y3901520D01*
X5649380Y3905460D01*
X5654250Y3910710D01*
G01X5708650Y3898900D02*
Y3977640D01*
X5696970Y3961890D01*
G01Y3898900D02*
X5720330D01*
G01X5664200Y3258990D02*
X5585460D01*
Y3278460D01*
X5589400Y3286250D01*
X5594650Y3292090D01*
X5602520Y3296960D01*
X5611710Y3300860D01*
X5624830Y3301830D01*
X5637950Y3300860D01*
X5647140Y3296960D01*
X5655020Y3292090D01*
X5660260Y3286250D01*
X5664200Y3278460D01*
Y3258990D01*
G01X5598580Y3340650D02*
X5590710Y3346490D01*
X5586770Y3353310D01*
X5585460Y3361100D01*
X5588080Y3370830D01*
X5594650Y3377650D01*
X5602520Y3379600D01*
X5610400Y3378620D01*
X5616960Y3374730D01*
X5630080Y3355260D01*
X5639270Y3346490D01*
X5652390Y3340650D01*
X5664200Y3338700D01*
Y3379600D01*
G01X5594880Y3715280D02*
X5539210Y3770960D01*
X5556420Y3788170D01*
X5564710Y3790900D01*
X5571870Y3790630D01*
X5580670Y3784580D01*
X5586710Y3775780D01*
X5587220Y3767010D01*
X5585190Y3759410D01*
X5567970Y3742190D01*
G01X5585190Y3759410D02*
X5622420Y3742820D01*
G01X5640840Y3777940D02*
X5649610Y3777430D01*
X5657210Y3779470D01*
X5664330Y3784730D01*
X5668680Y3792790D01*
X5669780Y3801320D01*
X5666730Y3811260D01*
X5659990Y3819370D01*
X5651190Y3825410D01*
X5643110Y3826610D01*
X5634580Y3825500D01*
X5628830Y3821610D01*
X5624940Y3815870D01*
X5622460Y3805960D01*
X5600400Y3832150D01*
X5618980Y3850740D01*
G01X5760890Y3672840D02*
Y3616410D01*
X5764780Y3604600D01*
X5772570Y3596720D01*
X5782310Y3594100D01*
X5792050Y3596720D01*
X5799840Y3604600D01*
X5803730Y3616410D01*
Y3672840D01*
G01X5861050Y3594100D02*
Y3672840D01*
X5849370Y3657090D01*
G01Y3594100D02*
X5872730D01*
G01X5651500Y4173390D02*
X5572760D01*
Y4192860D01*
X5576700Y4200650D01*
X5581950Y4206490D01*
X5589820Y4211360D01*
X5599010Y4215260D01*
X5612130Y4216230D01*
X5625250Y4215260D01*
X5634440Y4211360D01*
X5642320Y4206490D01*
X5647560Y4200650D01*
X5651500Y4192860D01*
Y4173390D01*
G01X5642320Y4257000D02*
X5648880Y4263810D01*
X5651500Y4271600D01*
X5648880Y4279390D01*
X5641000Y4286210D01*
X5629190Y4291080D01*
X5617380Y4293020D01*
X5602940D01*
X5591130Y4291080D01*
X5580630Y4286210D01*
X5575380Y4280370D01*
X5572760Y4273550D01*
X5575380Y4265760D01*
X5580630Y4259920D01*
X5588510Y4256020D01*
X5599010Y4254080D01*
X5608190Y4256020D01*
X5617380Y4260890D01*
X5622630Y4266730D01*
X5623940Y4273550D01*
X5621320Y4281340D01*
X5614760Y4287180D01*
X5602940Y4293020D01*
G01X6694220Y2489030D02*
X6690280Y2483190D01*
X6687660Y2476370D01*
Y2468580D01*
X6691600Y2459820D01*
X6698160Y2453010D01*
X6706030Y2448140D01*
X6719160Y2444240D01*
X6730970Y2443270D01*
X6742780Y2445220D01*
X6750650Y2448140D01*
X6758530Y2453980D01*
X6763780Y2460790D01*
X6766400Y2467610D01*
Y2474430D01*
X6763780Y2481240D01*
X6759840Y2487080D01*
X6754590Y2491950D01*
G01Y2524930D02*
X6761150Y2530770D01*
X6765090Y2537590D01*
X6766400Y2546350D01*
X6763780Y2555110D01*
X6758530Y2561930D01*
X6749340Y2566800D01*
X6738840Y2567770D01*
X6728340Y2565820D01*
X6721780Y2560950D01*
X6716530Y2554140D01*
X6715220Y2547320D01*
X6716530Y2540510D01*
X6721780Y2531750D01*
X6687660Y2534670D01*
Y2560950D01*
G01X6355230Y2578380D02*
X6349390Y2582320D01*
X6342570Y2584940D01*
X6334780D01*
X6326020Y2581000D01*
X6319210Y2574440D01*
X6314340Y2566570D01*
X6310440Y2553440D01*
X6309470Y2541630D01*
X6311420Y2529820D01*
X6314340Y2521950D01*
X6320180Y2514070D01*
X6326990Y2508820D01*
X6333810Y2506200D01*
X6340630D01*
X6347440Y2508820D01*
X6353280Y2512760D01*
X6358150Y2518010D01*
G01X6410600Y2506200D02*
X6412550Y2523260D01*
X6415470Y2537690D01*
X6419370Y2550820D01*
X6424230Y2565250D01*
X6432020Y2584940D01*
X6393080D01*
G01X6598340Y2159000D02*
Y2237740D01*
X6622680D01*
X6630470Y2233800D01*
X6635340Y2228550D01*
X6637280Y2218050D01*
X6635340Y2207560D01*
X6629490Y2201000D01*
X6622680Y2197060D01*
X6598340D01*
G01X6622680D02*
X6637280Y2159000D01*
G01X6708230D02*
Y2237740D01*
X6672210Y2181310D01*
X6720890D01*
G01X6188920Y3047830D02*
X6184980Y3041990D01*
X6182360Y3035170D01*
Y3027380D01*
X6186300Y3018620D01*
X6192860Y3011810D01*
X6200730Y3006940D01*
X6213860Y3003040D01*
X6225670Y3002070D01*
X6237480Y3004020D01*
X6245350Y3006940D01*
X6253230Y3012780D01*
X6258480Y3019590D01*
X6261100Y3026410D01*
Y3033230D01*
X6258480Y3040040D01*
X6254540Y3045880D01*
X6249290Y3050750D01*
G01X6245350Y3083730D02*
X6254540Y3089570D01*
X6259790Y3097360D01*
X6261100Y3106120D01*
X6259790Y3113910D01*
X6253230Y3121700D01*
X6245350Y3126570D01*
X6237480Y3127540D01*
X6228290Y3125600D01*
X6221730Y3118780D01*
X6219100Y3111970D01*
Y3103200D01*
G01Y3111970D02*
X6215170Y3117810D01*
X6208610Y3122680D01*
X6200730Y3124620D01*
X6192860Y3122680D01*
X6186300Y3117810D01*
X6182360Y3109040D01*
X6183670Y3100280D01*
X6188920Y3091520D01*
G01X6768930Y3120180D02*
X6763090Y3124120D01*
X6756270Y3126740D01*
X6748480D01*
X6739720Y3122800D01*
X6732910Y3116240D01*
X6728040Y3108370D01*
X6724140Y3095240D01*
X6723170Y3083430D01*
X6725120Y3071620D01*
X6728040Y3063750D01*
X6733880Y3055870D01*
X6740690Y3050620D01*
X6747510Y3048000D01*
X6754330D01*
X6761140Y3050620D01*
X6766980Y3054560D01*
X6771850Y3059810D01*
G01X6807750Y3080810D02*
X6814570Y3090000D01*
X6820410Y3095240D01*
X6828200Y3097870D01*
X6835010Y3095240D01*
X6839880Y3090000D01*
X6843780Y3082120D01*
X6844750Y3072930D01*
X6843780Y3065060D01*
X6839880Y3057180D01*
X6834040Y3050620D01*
X6827220Y3048000D01*
X6819430Y3050620D01*
X6812620Y3058500D01*
X6808720Y3070310D01*
X6807750Y3083430D01*
X6809700Y3100490D01*
X6812620Y3109680D01*
X6817490Y3118870D01*
X6824300Y3125430D01*
X6831120Y3126740D01*
X6837930Y3124120D01*
X6842800Y3117550D01*
G01X6598340Y2819400D02*
Y2898140D01*
X6622680D01*
X6630470Y2894200D01*
X6635340Y2888950D01*
X6637280Y2878450D01*
X6635340Y2867960D01*
X6629490Y2861400D01*
X6622680Y2857460D01*
X6598340D01*
G01X6622680D02*
X6637280Y2819400D01*
G01X6675130Y2835150D02*
X6680970Y2825960D01*
X6688760Y2820710D01*
X6697520Y2819400D01*
X6705310Y2820710D01*
X6713100Y2827270D01*
X6717970Y2835150D01*
X6718940Y2843020D01*
X6717000Y2852210D01*
X6710180Y2858770D01*
X6703370Y2861400D01*
X6694600D01*
G01X6703370D02*
X6709210Y2865330D01*
X6714080Y2871890D01*
X6716020Y2879770D01*
X6714080Y2887640D01*
X6709210Y2894200D01*
X6700440Y2898140D01*
X6691680Y2896830D01*
X6682920Y2891580D01*
G01X6438900Y3489540D02*
X6360160D01*
Y3513880D01*
X6364100Y3521670D01*
X6369350Y3526540D01*
X6379850Y3528480D01*
X6390340Y3526540D01*
X6396900Y3520690D01*
X6400840Y3513880D01*
Y3489540D01*
G01Y3513880D02*
X6438900Y3528480D01*
G01X6373280Y3569250D02*
X6365410Y3575090D01*
X6361470Y3581910D01*
X6360160Y3589700D01*
X6362780Y3599430D01*
X6369350Y3606250D01*
X6377220Y3608200D01*
X6385100Y3607220D01*
X6391660Y3603330D01*
X6404780Y3583860D01*
X6413970Y3575090D01*
X6427090Y3569250D01*
X6438900Y3567300D01*
Y3608200D01*
G01X6598180Y3396720D02*
X6653860Y3452390D01*
X6671070Y3435180D01*
X6673800Y3426890D01*
X6673530Y3419730D01*
X6667480Y3410930D01*
X6658680Y3404890D01*
X6649910Y3404380D01*
X6642310Y3406410D01*
X6625090Y3423630D01*
G01X6642310Y3406410D02*
X6625720Y3369180D01*
G01X6677750Y3363540D02*
X6689070Y3365220D01*
X6696910Y3364800D01*
X6704270Y3361150D01*
X6707240Y3354470D01*
X6706970Y3347320D01*
X6704150Y3339000D01*
X6698350Y3331810D01*
X6692090Y3326930D01*
X6683770Y3324120D01*
X6675000Y3323610D01*
X6668320Y3326580D01*
X6664670Y3333940D01*
X6665420Y3344330D01*
X6671020Y3355430D01*
X6679610Y3365400D01*
X6693050Y3376090D01*
X6701610Y3380520D01*
X6711550Y3383570D01*
X6721010Y3383390D01*
X6726750Y3379500D01*
X6729720Y3372830D01*
X6728520Y3364740D01*
G01X6400800Y3995590D02*
X6322060D01*
Y4015060D01*
X6326000Y4022850D01*
X6331250Y4028690D01*
X6339120Y4033560D01*
X6348310Y4037460D01*
X6361430Y4038430D01*
X6374550Y4037460D01*
X6383740Y4033560D01*
X6391620Y4028690D01*
X6396860Y4022850D01*
X6400800Y4015060D01*
Y3995590D01*
G01X6385050Y4074330D02*
X6394240Y4080170D01*
X6399490Y4087960D01*
X6400800Y4096720D01*
X6399490Y4104510D01*
X6392930Y4112300D01*
X6385050Y4117170D01*
X6377180Y4118140D01*
X6367990Y4116200D01*
X6361430Y4109380D01*
X6358800Y4102570D01*
Y4093800D01*
G01Y4102570D02*
X6354870Y4108410D01*
X6348310Y4113280D01*
X6340430Y4115220D01*
X6332560Y4113280D01*
X6326000Y4108410D01*
X6322060Y4099640D01*
X6323370Y4090880D01*
X6328620Y4082120D01*
G01X6250900Y4290640D02*
X6172160D01*
Y4314980D01*
X6176100Y4322770D01*
X6181350Y4327640D01*
X6191850Y4329580D01*
X6202340Y4327640D01*
X6208900Y4321790D01*
X6212840Y4314980D01*
Y4290640D01*
G01Y4314980D02*
X6250900Y4329580D01*
G01X6172160Y4388850D02*
X6250900D01*
G01X6172160Y4366460D02*
Y4411240D01*
G01X6250900Y4467590D02*
X6172160D01*
X6187910Y4455910D01*
G01X6250900D02*
Y4479270D01*
G01X6400800Y4694090D02*
X6322060D01*
Y4713560D01*
X6326000Y4721350D01*
X6331250Y4727190D01*
X6339120Y4732060D01*
X6348310Y4735960D01*
X6361430Y4736930D01*
X6374550Y4735960D01*
X6383740Y4732060D01*
X6391620Y4727190D01*
X6396860Y4721350D01*
X6400800Y4713560D01*
Y4694090D01*
G01Y4794250D02*
X6322060D01*
X6337810Y4782570D01*
G01X6400800D02*
Y4805930D01*
G01X7148110Y63500D02*
Y142240D01*
X7185110D01*
G01X7171480Y104180D02*
X7148110D01*
G01X7233670Y142240D02*
X7257030D01*
G01X7245350D02*
Y63500D01*
G01X7233670D02*
X7257030D01*
G01X7303640D02*
X7344540Y142240D01*
G01X7303640D02*
X7344540Y63500D01*
G01X7381410Y79250D02*
X7387250Y70060D01*
X7395040Y64810D01*
X7403800Y63500D01*
X7411590Y64810D01*
X7419380Y71370D01*
X7424250Y79250D01*
X7425220Y87120D01*
X7423280Y96310D01*
X7416460Y102870D01*
X7409650Y105500D01*
X7400880D01*
G01X7409650D02*
X7415490Y109430D01*
X7420360Y115990D01*
X7422300Y123870D01*
X7420360Y131740D01*
X7415490Y138300D01*
X7406720Y142240D01*
X7397960Y140930D01*
X7389200Y135680D01*
G01X7160810Y4953000D02*
Y5031740D01*
X7197810D01*
G01X7184180Y4993680D02*
X7160810D01*
G01X7246370Y5031740D02*
X7269730D01*
G01X7258050D02*
Y4953000D01*
G01X7246370D02*
X7269730D01*
G01X7316340D02*
X7357240Y5031740D01*
G01X7316340D02*
X7357240Y4953000D01*
G01X7415530D02*
Y5031740D01*
X7403850Y5015990D01*
G01Y4953000D02*
X7427210D01*
G01X7710000Y2479740D02*
X7631260D01*
Y2504080D01*
X7635200Y2511870D01*
X7640450Y2516740D01*
X7650950Y2518680D01*
X7661440Y2516740D01*
X7668000Y2510890D01*
X7671940Y2504080D01*
Y2479740D01*
G01Y2504080D02*
X7710000Y2518680D01*
G01Y2577950D02*
X7631260D01*
X7647010Y2566270D01*
G01X7710000D02*
Y2589630D01*
M02*
