M48
METRIC,TZ
T01C.254
T02C6.1999
T03C3.175
;LEADER: 12 
;HEADER: 
;CODE  : ASCII 
;FILE  : fishingbatterymonitor-v1_00-0a-1-2-1-2-1-2.drl for  ... layers TOP and BOTTOM
;DESIGN: fishingbatterymonitor-v1_00-0a.brd
;T01 Holesize 1. = 0.254000 Tolerance = +0.100000/-0.100000 PLATED MM Quantity = 224
;T02 Holesize 2. = 6.199900 Tolerance = +0.100000/-0.100000 PLATED MM Quantity = 4
;T03 Holesize 3. = 3.175000 Tolerance = +0.100000/-0.100000 NON_PLATED MM Quantity = 4
%
G90
T01
X6219000Y910400
X4089400Y1574800
X2540000Y4152900
X3255110Y4152900
X4156810Y4152900
X4872890Y4152900
X5452800Y4292600
X4724400Y4292600
X3843600Y4292600
X3116000Y4292600
X2311400Y3848100
X5447690Y3924300
X4723790Y3924300
X3112110Y3924300
X3836010Y3924300
X2006600Y3505200
X5867400Y2477400
X3162300Y2057400
X2159000Y1892300
X3048000Y3048000
X6330000Y2370000
X4686300Y1625600
X3784600Y3048000
X4660900Y3048000
X5397500Y3048000
X5778500Y3276600
X5715000Y3378200
X5651500Y3276600
X5588000Y3378200
X5651500Y3479800
X4787900Y2336800
X4787900Y2171700
X6362700Y1638300
X5168900Y1714500
X2508600Y908400
X3784600Y1574800
X4483100Y2565400
X5016500Y4445000
X4292600Y4445000
X3403600Y4445000
X2683990Y4445000
X5168900Y1397000
X5727700Y241300
X4508500Y241300
X6426200Y4572000
R02Y-254000
X6426200Y3556000
X6502400Y3429000
X6781800Y3149600
X6781800Y2844800
X6781800Y2641600
X6781800Y2413000
X6781800Y2209800
X6781800Y1930400
X6604000Y1752600
X6426200Y1524000
X6426200Y1295400
X6426200Y1041400
X6426200Y533400
X6426200Y279400
X6146800Y50800
X5892800Y50800
X5130800Y50800
R02X254000
X4368800Y50800
R02X254000
X3606800Y50800
R02X254000
X2844800Y50800
R02X254000
X2082800Y50800
R02X254000
X1320800Y50800
R02X254000
X558800Y50800
R02X254000
X304800Y50800
X50800Y2235200
X50800Y1473200
X50800Y1727200
X50800Y1981200
X50800Y711200
R02Y254000
X50800Y203200
X50800Y457200
X50800Y4521200
X50800Y4775200
X50800Y3759200
R02Y254000
X50800Y2997200
R02Y254000
X50800Y2489200
X50800Y2743200
X558800Y5029200
X812800Y5029200
X50800Y5029200
X304800Y5029200
X2082800Y5029200
X1320800Y5029200
X1574800Y5029200
X1828800Y5029200
X1066800Y5029200
X2844800Y5029200
X3098800Y5029200
X3352800Y5029200
X2336800Y5029200
X2590800Y5029200
X4368800Y5029200
X4622800Y5029200
X3606800Y5029200
R02X254000
X4876800Y5029200
R04X254000
X4697400Y1830400
X5283200Y2933700
X5977400Y2430000
X2527300Y1244600
X3262800Y241300
X2026000Y235300
X5753100Y2260600
X5422900Y1721650
X5422900Y1412620
X3162300Y1968500
X3162300Y2400300
X5753100Y2857500
X6018280Y2819400
X6208700Y3011500
X5702300Y3860800
X6337300Y3746500
X6743700Y3086100
X5461000Y2431800
X4800600Y2436800
X4648200Y2374900
X4684700Y1525600
X3492500Y2069810
X6520000Y2430000
X6156800Y2090000
X4982200Y892800
X3987800Y1574800
X3886200Y1574800
X3745400Y887900
X2679700Y4076700
X3403600Y4076700
X4292600Y4076700
X5016910Y4076700
X2413000Y4076700
X6604000Y4572000
X6604000Y4826000
X6604000Y3810000
R02Y254000
X7874000Y5029200
R02X-254000
X7975600Y4572000
X7975600Y4826000
X7975600Y3810000
R02Y254000
X7975600Y3302000
X7975600Y3556000
X7874000Y3098800
R02X-254000
X7112000Y5029200
R02X-254000
X6604000Y3556000
X6858000Y3302000
X7112000Y3098800
X5168900Y2019300
X4876800Y4521200
X4152900Y4521200
X3263900Y4521200
X2540000Y4521200
X5308600Y4368800
X4584700Y4368800
X3695700Y4368800
X2972000Y4368800
X2362200Y3708400
X2971800Y4000500
X3686710Y4000500
X4584700Y4000500
X5308600Y4000500
X2413000Y3975100
X7366000Y2006600
R02X254000
X7975600Y1549400
X7975600Y1803400
X7975600Y1295400
X7975600Y787400
X7975600Y1041400
X7975600Y533400
X7975600Y279400
X7366000Y76200
R02X254000
X7112000Y2006600
X6858000Y1803400
X6604000Y1549400
X6604000Y1295400
X6604000Y787400
X6604000Y1041400
X6604000Y533400
X6604000Y279400
X6604000Y76200
R02X254000
T02
X7289800Y4318000
X762000Y4318000
X7289800Y762000
X762000Y762000
T03
X7289800Y-254000
X762000Y-254000
X762000Y5334000
X7289800Y5334000
M30
