G04 ================== begin FILE IDENTIFICATION RECORD ==================*
G04 Layout Name:  fishingbatterymonitor-v1_00-0a.brd*
G04 Film Name:    FishingBatteryMonitor-SoldermaskTop-v1_00-0a*
G04 File Format:  Gerber RS274X*
G04 File Origin:  Cadence Allegro 22.1-P001*
G04 Origin Date:  Sat Oct 29 18:15:58 2022*
G04 *
G04 Layer:  PIN/SOLDERMASK_TOP*
G04 Layer:  PACKAGE GEOMETRY/SOLDERMASK_TOP*
G04 Layer:  BOARD GEOMETRY/SOLDERMASK_TOP*
G04 *
G04 Offset:    (0.0000 0.0000)*
G04 Mirror:    No*
G04 Mode:      Positive*
G04 Rotation:  0*
G04 FullContactRelief:  No*
G04 UndefLineWidth:     0.1270*
G04 ================== end FILE IDENTIFICATION RECORD ====================*
%FSLAX25Y25*MOMM*%
%IR0*IPPOS*OFA0.00000B0.00000*MIA0B0*SFA1.00000B1.00000*%
%AMMACRO40*
4,1,44,-.4,.1999,
-.4,-.1999,
-.39777,-.225965,
-.390998,-.251237,
-.37994,-.27495,
-.364933,-.296382,
-.346432,-.314883,
-.325,-.32989,
-.301287,-.340948,
-.276015,-.34772,
-.24995,-.35,
-.2499,-.35,
.2499,-.35,
.275965,-.347728,
.30124,-.340965,
.324957,-.329915,
.346394,-.314915,
.364901,-.296421,
.379915,-.274993,
.390981,-.251284,
.397761,-.226014,
.40005,-.19995,
.4,-.1999,
.4,.1999,
.39777,.225965,
.390998,.251237,
.37994,.27495,
.364933,.296382,
.346432,.314883,
.325,.32989,
.301287,.340948,
.276015,.34772,
.24995,.35,
.2499,.35,
-.2499,.35,
-.275965,.347728,
-.30124,.340965,
-.324957,.329915,
-.346394,.314915,
-.364901,.296421,
-.379915,.274993,
-.390981,.251284,
-.397761,.226014,
-.40005,.19995,
-.4,.1999,
0.0*
%
%ADD40MACRO40*%
%AMMACRO34*
4,1,40,-.1415,.4242,
-.4242,.1415,
-.441046,.121485,
-.454128,.098827,
-.463077,.07424,
-.467621,.048474,
-.467621,.02231,
-.463078,-.003457,
-.454129,-.028043,
-.441047,-.050702,
-.4242,-.0707,
-.0707,-.4242,
-.050693,-.441054,
-.028033,-.454134,
-.003446,-.463081,
.022321,-.467622,
.048485,-.46762,
.074251,-.463074,
.098837,-.454124,
.121495,-.44104,
.1415,-.4242,
.4242,-.1415,
.441046,-.121485,
.454128,-.098827,
.463077,-.07424,
.467621,-.048474,
.467621,-.02231,
.463078,.003457,
.454129,.028043,
.441047,.050702,
.4242,.0707,
.0707,.4242,
.050693,.441054,
.028033,.454134,
.003446,.463081,
-.022321,.467622,
-.048485,.46762,
-.074251,.463074,
-.098837,.454124,
-.121495,.44104,
-.1415,.4242,
0.0*
%
%ADD34MACRO34*%
%AMMACRO19*
4,1,44,.1999,.4,
-.1999,.4,
-.225965,.39777,
-.251237,.390998,
-.27495,.37994,
-.296382,.364933,
-.314883,.346432,
-.32989,.325,
-.340948,.301287,
-.34772,.276015,
-.35,.24995,
-.35,.2499,
-.35,-.2499,
-.347728,-.275965,
-.340965,-.30124,
-.329915,-.324957,
-.314915,-.346394,
-.296421,-.364901,
-.274993,-.379915,
-.251284,-.390981,
-.226014,-.397761,
-.19995,-.40005,
-.1999,-.4,
.1999,-.4,
.225965,-.39777,
.251237,-.390998,
.27495,-.37994,
.296382,-.364933,
.314883,-.346432,
.32989,-.325,
.340948,-.301287,
.34772,-.276015,
.35,-.24995,
.35,-.2499,
.35,.2499,
.347728,.275965,
.340965,.30124,
.329915,.324957,
.314915,.346394,
.296421,.364901,
.274993,.379915,
.251284,.390981,
.226014,.397761,
.19995,.40005,
.1999,.4,
0.0*
%
%ADD19MACRO19*%
%ADD10C,10.5001*%
%AMMACRO20*
4,1,44,.1832,1.55,
-.1832,1.55,
-.246895,1.544486,
-.308656,1.527946,
-.366607,1.500933,
-.418986,1.464267,
-.464203,1.419063,
-.500883,1.366693,
-.527912,1.30875,
-.544469,1.246993,
-.55005,1.1833,
-.55,1.1832,
-.55,-1.1832,
-.544486,-1.246895,
-.527946,-1.308656,
-.500933,-1.366607,
-.464267,-1.418986,
-.419063,-1.464203,
-.366693,-1.500883,
-.30875,-1.527912,
-.246993,-1.544469,
-.1833,-1.55005,
-.1832,-1.55,
.1832,-1.55,
.246895,-1.544486,
.308656,-1.527946,
.366607,-1.500933,
.418986,-1.464267,
.464203,-1.419063,
.500883,-1.366693,
.527912,-1.30875,
.544469,-1.246993,
.55005,-1.1833,
.55,-1.1832,
.55,1.1832,
.544486,1.246895,
.527946,1.308656,
.500933,1.366607,
.464267,1.418986,
.419063,1.464203,
.366693,1.500883,
.30875,1.527912,
.246993,1.544469,
.1833,1.55005,
.1832,1.55,
0.0*
%
%ADD20MACRO20*%
%AMMACRO29*
4,1,40,-.35,.2301,
-.35,-.2301,
-.348178,-.25092,
-.342769,-.271108,
-.333936,-.29005,
-.321949,-.30717,
-.30717,-.321949,
-.29005,-.333936,
-.271108,-.342769,
-.25092,-.348178,
-.2301,-.35,
.2301,-.35,
.25092,-.348178,
.271108,-.342769,
.29005,-.333936,
.30717,-.321949,
.321949,-.30717,
.333936,-.29005,
.342769,-.271108,
.348178,-.25092,
.35,-.2301,
.35,.2301,
.348178,.25092,
.342769,.271108,
.333936,.29005,
.321949,.30717,
.30717,.321949,
.29005,.333936,
.271108,.342769,
.25092,.348178,
.2301,.35,
-.2301,.35,
-.25092,.348178,
-.271108,.342769,
-.29005,.333936,
-.30717,.321949,
-.321949,.30717,
-.333936,.29005,
-.342769,.271108,
-.348178,.25092,
-.35,.2301,
0.0*
%
%ADD29MACRO29*%
%AMMACRO37*
4,1,40,.2301,.35,
-.2301,.35,
-.25092,.348178,
-.271108,.342769,
-.29005,.333936,
-.30717,.321949,
-.321949,.30717,
-.333936,.29005,
-.342769,.271108,
-.348178,.25092,
-.35,.2301,
-.35,-.2301,
-.348178,-.25092,
-.342769,-.271108,
-.333936,-.29005,
-.321949,-.30717,
-.30717,-.321949,
-.29005,-.333936,
-.271108,-.342769,
-.25092,-.348178,
-.2301,-.35,
.2301,-.35,
.25092,-.348178,
.271108,-.342769,
.29005,-.333936,
.30717,-.321949,
.321949,-.30717,
.333936,-.29005,
.342769,-.271108,
.348178,-.25092,
.35,-.2301,
.35,.2301,
.348178,.25092,
.342769,.271108,
.333936,.29005,
.321949,.30717,
.30717,.321949,
.29005,.333936,
.271108,.342769,
.25092,.348178,
.2301,.35,
0.0*
%
%ADD37MACRO37*%
%AMMACRO35*
4,1,44,-1.9,.3832,
-1.9,-.3832,
-1.888401,-.516353,
-1.853806,-.645461,
-1.797318,-.7666,
-1.720653,-.87609,
-1.62614,-.970603,
-1.51665,-1.047268,
-1.395511,-1.103756,
-1.266403,-1.138351,
-1.13325,-1.15,
-1.1332,-1.15,
1.1332,-1.15,
1.266354,-1.138359,
1.395464,-1.103773,
1.516607,-1.047293,
1.626101,-.970635,
1.720621,-.876128,
1.797293,-.766643,
1.853789,-.645508,
1.888392,-.516403,
1.90005,-.38325,
1.9,-.3832,
1.9,.3832,
1.888401,.516353,
1.853806,.645461,
1.797318,.7666,
1.720653,.87609,
1.62614,.970603,
1.51665,1.047268,
1.395511,1.103756,
1.266403,1.138351,
1.13325,1.15,
1.1332,1.15,
-1.1332,1.15,
-1.266354,1.138359,
-1.395464,1.103773,
-1.516607,1.047293,
-1.626101,.970635,
-1.720621,.876128,
-1.797293,.766643,
-1.853789,.645508,
-1.888392,.516403,
-1.90005,.38325,
-1.9,.3832,
0.0*
%
%ADD35MACRO35*%
%AMMACRO32*
4,1,44,.0867,.35,
-.0867,.35,
-.116777,.347377,
-.145941,.339572,
-.173307,.326821,
-.198043,.309511,
-.219397,.288169,
-.236721,.263443,
-.249488,.236085,
-.25731,.206925,
-.25995,.17685,
-.2599,.1768,
-.2599,-.1768,
-.257319,-.206876,
-.249505,-.236038,
-.236746,-.2634,
-.219429,-.288131,
-.198081,-.309479,
-.17335,-.326796,
-.145988,-.339555,
-.116826,-.347369,
-.08675,-.35,
-.0867,-.35,
.0867,-.35,
.116777,-.347377,
.145941,-.339572,
.173307,-.326821,
.198043,-.309511,
.219397,-.288169,
.236721,-.263443,
.249488,-.236085,
.25731,-.206925,
.25995,-.17685,
.2599,-.1768,
.2599,.1768,
.257319,.206876,
.249505,.236038,
.236746,.2634,
.219429,.288131,
.198081,.309479,
.17335,.326796,
.145988,.339555,
.116826,.347369,
.08675,.35,
.0867,.35,
0.0*
%
%ADD32MACRO32*%
%ADD17R,.8992X1.6002*%
%AMMACRO42*
4,1,44,-.7999,.1832,
-.7999,-.1832,
-.794386,-.246895,
-.777846,-.308656,
-.750833,-.366607,
-.714167,-.418986,
-.668963,-.464203,
-.616593,-.500883,
-.55865,-.527912,
-.496893,-.544469,
-.4332,-.55005,
-.4331,-.55,
.4331,-.55,
.496795,-.544486,
.558556,-.527946,
.616507,-.500933,
.668886,-.464267,
.714103,-.419063,
.750783,-.366693,
.777812,-.30875,
.794369,-.246993,
.79995,-.1833,
.7999,-.1832,
.7999,.1832,
.794386,.246895,
.777846,.308656,
.750833,.366607,
.714167,.418986,
.668963,.464203,
.616593,.500883,
.55865,.527912,
.496893,.544469,
.4332,.55005,
.4331,.55,
-.4331,.55,
-.496795,.544486,
-.558556,.527946,
-.616507,.500933,
-.668886,.464267,
-.714103,.419063,
-.750783,.366693,
-.777812,.30875,
-.794369,.246993,
-.79995,.1833,
-.7999,.1832,
0.0*
%
%ADD42MACRO42*%
%AMMACRO21*
4,1,44,-.4249,.1383,
-.4249,-.1383,
-.423034,-.160302,
-.417326,-.181637,
-.408,-.201657,
-.39534,-.219753,
-.37973,-.235376,
-.361643,-.24805,
-.341631,-.257392,
-.3203,-.263116,
-.2983,-.26505,
-.2982,-.265,
.2982,-.265,
.320202,-.263134,
.341537,-.257426,
.361557,-.2481,
.379653,-.23544,
.395276,-.21983,
.40795,-.201743,
.417292,-.181731,
.423016,-.1604,
.42495,-.1384,
.4249,-.1383,
.4249,.1383,
.423034,.160302,
.417326,.181637,
.408,.201657,
.39534,.219753,
.37973,.235376,
.361643,.24805,
.341631,.257392,
.3203,.263116,
.2983,.26505,
.2982,.265,
-.2982,.265,
-.320202,.263134,
-.341537,.257426,
-.361557,.2481,
-.379653,.23544,
-.395276,.21983,
-.40795,.201743,
-.417292,.181731,
-.423016,.1604,
-.42495,.1384,
-.4249,.1383,
0.0*
%
%ADD21MACRO21*%
%AMMACRO15*
4,1,44,-.65,.47,
-.65,-.47,
-.644997,-.527287,
-.630122,-.582835,
-.605827,-.634957,
-.57285,-.682067,
-.532194,-.722736,
-.485093,-.755727,
-.432979,-.780037,
-.377436,-.794929,
-.32015,-.79995,
-.3201,-.7999,
.3201,-.7999,
.377387,-.794938,
.432932,-.780055,
.48505,-.755752,
.532156,-.722768,
.572818,-.682106,
.605802,-.635,
.630105,-.582882,
.644988,-.527337,
.65,-.47005,
.65,-.47,
.65,.47,
.644997,.527287,
.630122,.582835,
.605827,.634957,
.57285,.682067,
.532194,.722736,
.485093,.755727,
.432979,.780037,
.377436,.794929,
.32015,.79995,
.3201,.7999,
-.3201,.7999,
-.377387,.794938,
-.432932,.780055,
-.48505,.755752,
-.532156,.722768,
-.572818,.682106,
-.605802,.635,
-.630105,.582882,
-.644988,.527337,
-.65,.47005,
-.65,.47,
0.0*
%
%ADD15MACRO15*%
%AMMACRO16*
4,1,44,.47,.65,
-.47,.65,
-.527287,.644997,
-.582835,.630122,
-.634957,.605827,
-.682067,.57285,
-.722736,.532194,
-.755727,.485093,
-.780037,.432979,
-.794929,.377436,
-.79995,.32015,
-.7999,.3201,
-.7999,-.3201,
-.794938,-.377387,
-.780055,-.432932,
-.755752,-.48505,
-.722768,-.532156,
-.682106,-.572818,
-.635,-.605802,
-.582882,-.630105,
-.527337,-.644988,
-.47005,-.65,
-.47,-.65,
.47,-.65,
.527287,-.644997,
.582835,-.630122,
.634957,-.605827,
.682067,-.57285,
.722736,-.532194,
.755727,-.485093,
.780037,-.432979,
.794929,-.377436,
.79995,-.32015,
.7999,-.3201,
.7999,.3201,
.794938,.377387,
.780055,.432932,
.755752,.48505,
.722768,.532156,
.682106,.572818,
.635,.605802,
.582882,.630105,
.527337,.644988,
.47005,.65,
.47,.65,
0.0*
%
%ADD16MACRO16*%
%AMMACRO22*
4,1,44,-.4249,.0633,
-.4249,-.0633,
-.423025,-.085301,
-.417309,-.106634,
-.407975,-.12665,
-.395308,-.144741,
-.379691,-.160358,
-.3616,-.173025,
-.341584,-.182359,
-.320251,-.188075,
-.29825,-.19,
-.2982,-.19,
.2982,-.19,
.320202,-.188084,
.341537,-.182376,
.361557,-.17305,
.379653,-.16039,
.395276,-.144779,
.40795,-.126693,
.417292,-.106681,
.423016,-.08535,
.42495,-.06335,
.4249,-.0633,
.4249,.0633,
.423025,.085301,
.417309,.106634,
.407975,.12665,
.395308,.144741,
.379691,.160358,
.3616,.173025,
.341584,.182359,
.320251,.188075,
.29825,.19,
.2982,.19,
-.2982,.19,
-.320202,.188084,
-.341537,.182376,
-.361557,.17305,
-.379653,.16039,
-.395276,.144779,
-.40795,.126693,
-.417292,.106681,
-.423016,.08535,
-.42495,.06335,
-.4249,.0633,
0.0*
%
%ADD22MACRO22*%
%ADD38R,1.X3.*%
%ADD26R,1.8499X.5499*%
%AMMACRO41*
4,1,40,-.4242,-.1415,
-.1415,-.4242,
-.121485,-.441046,
-.098827,-.454128,
-.07424,-.463077,
-.048474,-.467621,
-.02231,-.467621,
.003457,-.463078,
.028043,-.454129,
.050702,-.441047,
.0707,-.4242,
.4242,-.0707,
.441054,-.050693,
.454134,-.028033,
.463081,-.003446,
.467622,.022321,
.46762,.048485,
.463074,.074251,
.454124,.098837,
.44104,.121495,
.4242,.1415,
.1415,.4242,
.121485,.441046,
.098827,.454128,
.07424,.463077,
.048474,.467621,
.02231,.467621,
-.003457,.463078,
-.028043,.454129,
-.050702,.441047,
-.0707,.4242,
-.4242,.0707,
-.441054,.050693,
-.454134,.028033,
-.463081,.003446,
-.467622,-.022321,
-.46762,-.048485,
-.463074,-.074251,
-.454124,-.098837,
-.44104,-.121495,
-.4242,-.1415,
0.0*
%
%ADD41MACRO41*%
%ADD33R,1.5001X1.05*%
%AMMACRO23*
4,1,44,-.1999,-.4,
.1999,-.4,
.225965,-.39777,
.251237,-.390998,
.27495,-.37994,
.296382,-.364933,
.314883,-.346432,
.32989,-.325,
.340948,-.301287,
.34772,-.276015,
.35,-.24995,
.35,-.2499,
.35,.2499,
.347728,.275965,
.340965,.30124,
.329915,.324957,
.314915,.346394,
.296421,.364901,
.274993,.379915,
.251284,.390981,
.226014,.397761,
.19995,.40005,
.1999,.4,
-.1999,.4,
-.225965,.39777,
-.251237,.390998,
-.27495,.37994,
-.296382,.364933,
-.314883,.346432,
-.32989,.325,
-.340948,.301287,
-.34772,.276015,
-.35,.24995,
-.35,.2499,
-.35,-.2499,
-.347728,-.275965,
-.340965,-.30124,
-.329915,-.324957,
-.314915,-.346394,
-.296421,-.364901,
-.274993,-.379915,
-.251284,-.390981,
-.226014,-.397761,
-.19995,-.40005,
-.1999,-.4,
0.0*
%
%ADD23MACRO23*%
%AMMACRO18*
4,1,44,.4,-.1999,
.4,.1999,
.39777,.225965,
.390998,.251237,
.37994,.27495,
.364933,.296382,
.346432,.314883,
.325,.32989,
.301287,.340948,
.276015,.34772,
.24995,.35,
.2499,.35,
-.2499,.35,
-.275965,.347728,
-.30124,.340965,
-.324957,.329915,
-.346394,.314915,
-.364901,.296421,
-.379915,.274993,
-.390981,.251284,
-.397761,.226014,
-.40005,.19995,
-.4,.1999,
-.4,-.1999,
-.39777,-.225965,
-.390998,-.251237,
-.37994,-.27495,
-.364933,-.296382,
-.346432,-.314883,
-.325,-.32989,
-.301287,-.340948,
-.276015,-.34772,
-.24995,-.35,
-.2499,-.35,
.2499,-.35,
.275965,-.347728,
.30124,-.340965,
.324957,-.329915,
.346394,-.314915,
.364901,-.296421,
.379915,-.274993,
.390981,-.251284,
.397761,-.226014,
.40005,-.19995,
.4,-.1999,
0.0*
%
%ADD18MACRO18*%
%ADD39R,1.05X1.5001*%
%ADD43R,5.7X3.*%
%ADD14R,1.05X1.4501*%
%AMMACRO31*
4,1,40,-.2301,-.35,
.2301,-.35,
.25092,-.348178,
.271108,-.342769,
.29005,-.333936,
.30717,-.321949,
.321949,-.30717,
.333936,-.29005,
.342769,-.271108,
.348178,-.25092,
.35,-.2301,
.35,.2301,
.348178,.25092,
.342769,.271108,
.333936,.29005,
.321949,.30717,
.30717,.321949,
.29005,.333936,
.271108,.342769,
.25092,.348178,
.2301,.35,
-.2301,.35,
-.25092,.348178,
-.271108,.342769,
-.29005,.333936,
-.30717,.321949,
-.321949,.30717,
-.333936,.29005,
-.342769,.271108,
-.348178,.25092,
-.35,.2301,
-.35,-.2301,
-.348178,-.25092,
-.342769,-.271108,
-.333936,-.29005,
-.321949,-.30717,
-.30717,-.321949,
-.29005,-.333936,
-.271108,-.342769,
-.25092,-.348178,
-.2301,-.35,
0.0*
%
%ADD31MACRO31*%
%AMMACRO27*
4,1,40,.35,-.2301,
.35,.2301,
.348178,.25092,
.342769,.271108,
.333936,.29005,
.321949,.30717,
.30717,.321949,
.29005,.333936,
.271108,.342769,
.25092,.348178,
.2301,.35,
-.2301,.35,
-.25092,.348178,
-.271108,.342769,
-.29005,.333936,
-.30717,.321949,
-.321949,.30717,
-.333936,.29005,
-.342769,.271108,
-.348178,.25092,
-.35,.2301,
-.35,-.2301,
-.348178,-.25092,
-.342769,-.271108,
-.333936,-.29005,
-.321949,-.30717,
-.30717,-.321949,
-.29005,-.333936,
-.271108,-.342769,
-.25092,-.348178,
-.2301,-.35,
.2301,-.35,
.25092,-.348178,
.271108,-.342769,
.29005,-.333936,
.30717,-.321949,
.321949,-.30717,
.333936,-.29005,
.342769,-.271108,
.348178,-.25092,
.35,-.2301,
0.0*
%
%ADD27MACRO27*%
%ADD13C,1.905*%
%AMMACRO30*
4,1,44,-.677,.3268,
-.677,-.3268,
-.675538,-.344183,
-.67103,-.361039,
-.663664,-.376857,
-.653663,-.391155,
-.641331,-.403499,
-.627043,-.413514,
-.611233,-.420896,
-.594381,-.425421,
-.577,-.42695,
-.5769,-.4269,
.5769,-.4269,
.594283,-.425438,
.611139,-.42093,
.626957,-.413564,
.641255,-.403563,
.653599,-.391231,
.663614,-.376943,
.670996,-.361133,
.675521,-.344281,
.67705,-.3269,
.677,-.3268,
.677,.3268,
.675538,.344183,
.67103,.361039,
.663664,.376857,
.653663,.391155,
.641331,.403499,
.627043,.413514,
.611233,.420896,
.594381,.425421,
.577,.42695,
.5769,.4269,
-.5769,.4269,
-.594283,.425438,
-.611139,.42093,
-.626957,.413564,
-.641255,.403563,
-.653599,.391231,
-.663614,.376943,
-.670996,.361133,
-.675521,.344281,
-.67705,.3269,
-.677,.3268,
0.0*
%
%ADD30MACRO30*%
%AMMACRO12*
4,1,40,-.6833,-1.45,
.6833,-1.45,
.816436,-1.438352,
.945527,-1.403762,
1.06665,-1.347282,
1.176125,-1.270626,
1.270626,-1.176125,
1.347282,-1.06665,
1.403762,-.945527,
1.438352,-.816436,
1.45,-.6833,
1.45,.6833,
1.438352,.816436,
1.403762,.945527,
1.347282,1.06665,
1.270626,1.176125,
1.176125,1.270626,
1.06665,1.347282,
.945527,1.403762,
.816436,1.438352,
.6833,1.45,
-.6833,1.45,
-.816436,1.438352,
-.945527,1.403762,
-1.06665,1.347282,
-1.176125,1.270626,
-1.270626,1.176125,
-1.347282,1.06665,
-1.403762,.945527,
-1.438352,.816436,
-1.45,.6833,
-1.45,-.6833,
-1.438352,-.816436,
-1.403762,-.945527,
-1.347282,-1.06665,
-1.270626,-1.176125,
-1.176125,-1.270626,
-1.06665,-1.347282,
-.945527,-1.403762,
-.816436,-1.438352,
-.6833,-1.45,
0.0*
%
%ADD12MACRO12*%
%ADD11C,3.683*%
%AMMACRO28*
4,1,44,-.47,-.65,
.47,-.65,
.527287,-.644997,
.582835,-.630122,
.634957,-.605827,
.682067,-.57285,
.722736,-.532194,
.755727,-.485093,
.780037,-.432979,
.794929,-.377436,
.79995,-.32015,
.7999,-.3201,
.7999,.3201,
.794938,.377387,
.780055,.432932,
.755752,.48505,
.722768,.532156,
.682106,.572818,
.635,.605802,
.582882,.630105,
.527337,.644988,
.47005,.65,
.47,.65,
-.47,.65,
-.527287,.644997,
-.582835,.630122,
-.634957,.605827,
-.682067,.57285,
-.722736,.532194,
-.755727,.485093,
-.780037,.432979,
-.794929,.377436,
-.79995,.32015,
-.7999,.3201,
-.7999,-.3201,
-.794938,-.377387,
-.780055,-.432932,
-.755752,-.48505,
-.722768,-.532156,
-.682106,-.572818,
-.635,-.605802,
-.582882,-.630105,
-.527337,-.644988,
-.47005,-.65,
-.47,-.65,
0.0*
%
%ADD28MACRO28*%
%AMMACRO24*
4,1,44,.4249,-.1383,
.4249,.1383,
.423034,.160302,
.417326,.181637,
.408,.201657,
.39534,.219753,
.37973,.235376,
.361643,.24805,
.341631,.257392,
.3203,.263116,
.2983,.26505,
.2982,.265,
-.2982,.265,
-.320202,.263134,
-.341537,.257426,
-.361557,.2481,
-.379653,.23544,
-.395276,.21983,
-.40795,.201743,
-.417292,.181731,
-.423016,.1604,
-.42495,.1384,
-.4249,.1383,
-.4249,-.1383,
-.423034,-.160302,
-.417326,-.181637,
-.408,-.201657,
-.39534,-.219753,
-.37973,-.235376,
-.361643,-.24805,
-.341631,-.257392,
-.3203,-.263116,
-.2983,-.26505,
-.2982,-.265,
.2982,-.265,
.320202,-.263134,
.341537,-.257426,
.361557,-.2481,
.379653,-.23544,
.395276,-.21983,
.40795,-.201743,
.417292,-.181731,
.423016,-.1604,
.42495,-.1384,
.4249,-.1383,
0.0*
%
%ADD24MACRO24*%
%AMMACRO25*
4,1,44,.4249,-.0633,
.4249,.0633,
.423025,.085301,
.417309,.106634,
.407975,.12665,
.395308,.144741,
.379691,.160358,
.3616,.173025,
.341584,.182359,
.320251,.188075,
.29825,.19,
.2982,.19,
-.2982,.19,
-.320202,.188084,
-.341537,.182376,
-.361557,.17305,
-.379653,.16039,
-.395276,.144779,
-.40795,.126693,
-.417292,.106681,
-.423016,.08535,
-.42495,.06335,
-.4249,.0633,
-.4249,-.0633,
-.423025,-.085301,
-.417309,-.106634,
-.407975,-.12665,
-.395308,-.144741,
-.379691,-.160358,
-.3616,-.173025,
-.341584,-.182359,
-.320251,-.188075,
-.29825,-.19,
-.2982,-.19,
.2982,-.19,
.320202,-.188084,
.341537,-.182376,
.361557,-.17305,
.379653,-.16039,
.395276,-.144779,
.40795,-.126693,
.417292,-.106681,
.423016,-.08535,
.42495,-.06335,
.4249,-.0633,
0.0*
%
%ADD25MACRO25*%
%AMMACRO36*
4,1,44,1.675,-.3633,
1.675,.3633,
1.665489,.472109,
1.637228,.577613,
1.591077,.676607,
1.528436,.766082,
1.451209,.843321,
1.361743,.905977,
1.262757,.952144,
1.157257,.980422,
1.04845,.98995,
1.0484,.9899,
-1.0484,.9899,
-1.157208,.980431,
-1.26271,.952161,
-1.3617,.906002,
-1.451171,.843353,
-1.528403,.766121,
-1.591052,.67665,
-1.637211,.57766,
-1.665481,.472158,
-1.675,.36335,
-1.675,.3633,
-1.675,-.3633,
-1.665489,-.472109,
-1.637228,-.577613,
-1.591077,-.676607,
-1.528436,-.766082,
-1.451209,-.843321,
-1.361743,-.905977,
-1.262757,-.952144,
-1.157257,-.980422,
-1.04845,-.98995,
-1.0484,-.9899,
1.0484,-.9899,
1.157208,-.980431,
1.26271,-.952161,
1.3617,-.906002,
1.451171,-.843353,
1.528403,-.766121,
1.591052,-.67665,
1.637211,-.57766,
1.665481,-.472158,
1.675,-.36335,
1.675,-.3633,
0.0*
%
%ADD36MACRO36*%
G75*
%LPD*%
G75*
G36*
G01X7100000Y2050000D02*
X7800000D01*
X7900000Y1950000D01*
Y1100000D01*
X7600000Y1400000D01*
X6991670D01*
X6700000Y1100000D01*
Y1500000D01*
X7100000Y1900000D01*
Y2050000D01*
G37*
G36*
G01Y3030000D02*
X7800000D01*
X7900000Y3130000D01*
Y3980000D01*
X7600000Y3680000D01*
X6991670D01*
X6700000Y3980000D01*
Y3580000D01*
X7100000Y3180000D01*
Y3030000D01*
G37*
G54D10*
X762000Y762000D03*
Y4318000D03*
X7289800Y762000D03*
Y4318000D03*
G54D11*
X762000Y-254000D03*
Y5334000D03*
X7289800Y-254000D03*
Y5334000D03*
G54D20*
X2540000Y3721100D03*
Y4721100D03*
X3259990Y3721100D03*
X3116000D03*
X2972000D03*
X2828010D03*
X2683990D03*
Y4721100D03*
X2828010D03*
X2972000D03*
X3116000D03*
X3259990D03*
X3836010Y3721100D03*
X3691990D03*
X3548000D03*
X3404010D03*
Y4721100D03*
X3548000D03*
X3691990D03*
X3836010D03*
X4728900Y3721100D03*
X4584900D03*
X4440910D03*
X4296890D03*
X4152900D03*
Y4721100D03*
X4296890D03*
X4440910D03*
X4584900D03*
X4728900D03*
X5448910Y3721100D03*
X5304890D03*
X5160900D03*
X5016910D03*
X4872890D03*
Y4721100D03*
X5016910D03*
X5160900D03*
X5304890D03*
X5448910D03*
G54D12*
X990600Y1641700D03*
Y3441700D03*
G54D30*
X5061710Y2336800D03*
Y2526790D03*
X5346700D03*
Y2431800D03*
Y2336800D03*
G54D21*
X3247290Y1669400D03*
X3362300D03*
X3250490Y1384300D03*
Y1544290D03*
X3365500D03*
Y1384300D03*
X3247290Y1829390D03*
X3362300D03*
G54D13*
X1485900Y152400D03*
X1498600Y4902200D03*
X6337300Y152400D03*
G54D31*
X5284800Y2692400D03*
X5384800D03*
X5792800Y3860800D03*
X5892800D03*
G54D22*
X3247290Y1724390D03*
Y1774400D03*
X3362300D03*
Y1724390D03*
X3250490Y1439290D03*
Y1489300D03*
X3365500D03*
Y1439290D03*
G54D40*
X6400800Y3414700D03*
Y3314700D03*
G54D14*
X1808600Y762000D03*
X2508600D03*
X3045400D03*
X3745400D03*
X4282200D03*
X4982200D03*
X5519000D03*
X6219000D03*
G54D23*
X3252800Y2400300D03*
X3352800D03*
X3252800Y1968500D03*
X3352800D03*
X2859100Y3048000D03*
X2959100D03*
X3595700D03*
X3695700D03*
X4624400Y2171700D03*
X4724400D03*
X4472000Y3048000D03*
X4572000D03*
X5195900D03*
X5295900D03*
G54D41*
X6545990Y3347310D03*
X6616700Y3276600D03*
G54D32*
X6145000Y2430000D03*
X6080000D03*
Y2619990D03*
X6145000D03*
X6210000Y2430000D03*
Y2619990D03*
G54D24*
X3366210Y2260600D03*
Y2100610D03*
X3251200D03*
Y2260600D03*
G54D33*
X5880100Y2896110D03*
Y3096110D03*
G54D15*
X1981200Y1638300D03*
Y1892300D03*
X5600700Y2514600D03*
Y2260600D03*
X5638800Y3111500D03*
Y2857500D03*
G54D42*
X6248400Y3602000D03*
Y3452010D03*
Y3302000D03*
G54D25*
X3366210Y2205610D03*
Y2155600D03*
X3251200D03*
Y2205610D03*
G54D43*
X7286400Y2312800D03*
Y2744600D03*
G54D16*
X2280000Y406400D03*
X2026000D03*
X3262800D03*
X3516800D03*
X4753600D03*
X4499600D03*
X5990400D03*
X5736400D03*
X6156800Y2235200D03*
Y2819400D03*
X6410800Y2235200D03*
Y2819400D03*
G54D34*
X5709510Y3728310D03*
X5638800Y3657600D03*
G54D26*
X3629000Y1484790D03*
Y1549790D03*
Y1614790D03*
Y1679790D03*
Y1744810D03*
Y1809810D03*
Y1874810D03*
Y1939810D03*
Y2004810D03*
Y2069810D03*
Y2134800D03*
Y2199800D03*
Y2264800D03*
Y2329800D03*
X4348990Y1809810D03*
Y1744810D03*
Y1679790D03*
Y1614790D03*
Y1549790D03*
Y1484790D03*
Y2329800D03*
Y2264800D03*
Y2199800D03*
Y2134800D03*
Y2069810D03*
Y2004810D03*
Y1939810D03*
Y1874810D03*
G54D17*
X2323590Y1642390D03*
X2418590Y1422400D03*
X2228600D03*
X2913890Y3213100D03*
X2723900D03*
X2818890Y3433090D03*
X3650490Y3213100D03*
X3460500D03*
X3555490Y3433090D03*
X4526790Y3213100D03*
X4336800D03*
X4431790Y3433090D03*
X5263390Y3213100D03*
X5073400D03*
X5168390Y3433090D03*
G54D35*
X5969000Y3452010D03*
G54D36*
X5930900Y4137890D03*
Y4660900D03*
G54D27*
X4584700Y1525600D03*
Y1625600D03*
X4648200Y2465400D03*
Y2565400D03*
X6108700Y3011500D03*
Y3111500D03*
X6614000Y2465400D03*
Y2565400D03*
G54D18*
X2184400Y1157300D03*
Y1257300D03*
X2692400Y2948000D03*
Y3048000D03*
X3429000Y2948000D03*
Y3048000D03*
X4305300Y2948000D03*
Y3048000D03*
X5041900Y2948000D03*
Y3048000D03*
G54D28*
X5168900Y1244600D03*
X5422900D03*
X5168900Y1562100D03*
X5422900D03*
X5168900Y1866900D03*
X5422900D03*
X6083300Y3860800D03*
Y4927600D03*
X6337300Y3860800D03*
Y4927600D03*
G54D37*
X6430000Y2430000D03*
X6330000D03*
G54D19*
X2424100Y1244600D03*
X2324100D03*
X4697400Y1917700D03*
X4597400D03*
X4775200Y2565400D03*
X5383200Y2832100D03*
X5283200D03*
X4875200Y2565400D03*
X6714000Y2311400D03*
X6614000D03*
X6714000Y2743200D03*
X6614000D03*
G54D38*
X6880000Y2312800D03*
Y2744600D03*
G54D29*
X4889500Y2436800D03*
Y2336800D03*
G54D39*
X6616190Y3086100D03*
X6416190D03*
M02*
